<svg width="1920" height="1080" viewBox="0 0 1920 1080" fill="none" xmlns="http://www.w3.org/2000/svg">
<g clip-path="url(#clip0)">
<rect width="1920" height="1080" fill="white"/>
<rect width="1920" height="1080" fill="#4A144B"/>
<path d="M207.759 172C312.948 172 -341 172 -341 172V416H207.759C207.759 416 331.122 402.227 325 291.5C318.878 180.773 207.759 172 207.759 172Z" fill="#370638"/>
<path d="M1759.99 657.106L2068 657.106V809H1759.99C1759.99 809 1647 809 1647 730.037C1647 651.074 1759.99 657.106 1759.99 657.106Z" fill="#370638"/>
<path d="M207.759 721C312.948 721 -341 721 -341 721V965H207.759C207.759 965 331.122 951.227 325 840.5C318.878 729.773 207.759 721 207.759 721Z" fill="#370638"/>
<path d="M1782.5 172.089L2021 172.088V299H1782.5C1782.5 299 1695 299 1695 233.024C1695 167.049 1782.5 172.089 1782.5 172.089Z" stroke="black" stroke-linecap="round" stroke-linejoin="round"/>
<circle cx="54" cy="172" r="123.5" stroke="#601F69" stroke-width="3"/>
<circle cx="46" cy="721" r="123.5" stroke="#601F69" stroke-width="3"/>
<circle cx="1858" cy="149" r="123.5" stroke="#601F69" stroke-width="3"/>
<circle cx="1858" cy="665" r="123.5" stroke="#601F69" stroke-width="3"/>
<circle cx="1614" cy="307" r="33" fill="#601F69"/>
<path d="M1581 340V302H1614V340H1581Z" fill="#601F69" stroke="#601F69" stroke-linecap="round" stroke-linejoin="round"/>
<circle cx="629" cy="363" r="33" transform="rotate(-180 629 363)" fill="#601F69"/>
<path d="M662 330V368H629V330H662Z" fill="#601F69" stroke="#601F69" stroke-linecap="round" stroke-linejoin="round"/>
<circle cx="1500" cy="191" r="33" transform="rotate(-90 1500 191)" fill="#370638"/>
<path d="M1533 224H1495V191H1533V224Z" fill="#370638" stroke="#370638" stroke-linecap="round" stroke-linejoin="round"/>
<circle cx="141" cy="651" r="33" transform="rotate(-90 141 651)" fill="#370638"/>
<path d="M174 684H136V651H174V684Z" fill="#370638" stroke="#370638" stroke-linecap="round" stroke-linejoin="round"/>
<circle cx="146" cy="100" r="33" transform="rotate(-90 146 100)" fill="#370638"/>
<path d="M179 133H141V100H179V133Z" fill="#370638" stroke="#370638" stroke-linecap="round" stroke-linejoin="round"/>
<circle cx="1590" cy="856" r="33" fill="#601F69"/>
<path d="M1557 889V851H1590V889H1557Z" fill="#601F69" stroke="#601F69" stroke-linecap="round" stroke-linejoin="round"/>
<circle cx="1476" cy="740" r="33" transform="rotate(-90 1476 740)" fill="#370638"/>
<path d="M1509 773H1471V740H1509V773Z" fill="#370638" stroke="#370638" stroke-linecap="round" stroke-linejoin="round"/>
<circle cx="596" cy="699" r="78" fill="#601F69"/>
<path d="M518 777V706H603V777H518Z" fill="#601F69" stroke="#601F69" stroke-linecap="round" stroke-linejoin="round"/>
<path d="M1283 818H1114V618H1283V818Z" fill="#370638" stroke="#370638" stroke-linecap="round" stroke-linejoin="round"/>
<circle cx="1090.5" cy="627.5" r="192.5" transform="rotate(-90 1090.5 627.5)" fill="#370638"/>
</g>
<defs>
<clipPath id="clip0">
<rect width="1920" height="1080" fill="white"/>
</clipPath>
</defs>
</svg>
