<svg id="Layer_1" data-name="Layer 1" xmlns="http://www.w3.org/2000/svg" viewBox="0 0 700 550"><title>man at the office</title><path d="M427.18277,458.66861c16.25-5.08,30.83-10.27,48.37-20.12,18.09-10.16,98.45-58.51,108.9-142.19a159.61541,159.61541,0,0,0-6.66-68.16c-3.23-9.47-9.93-28.49-26.84-47.3-20.7-23.04-44.32-31.97-58.17-37.02-29.14-10.63-53.58-10.07-65.22-9.69-12.56.41-34.73,1.33-59.93,12.34-16.44,7.18-26.66,15.37-41.72,27.61-23.86,19.41-27,27.49-68.74,67.57-11.46,11-20.88,19.67-35.26,28.21-9.97,5.92-18.03,9.23-32.9,15.27-36.55,14.85-46.95657,17.85676-58.91657,26.21676-23.26,16.27-21.75343,34.01324-22.75343,37.83324a75.12694,75.12694,0,0,0-1.77,29.97c3.05,20.07,13.86,33.19,20.57,41.13a113.09822,113.09822,0,0,0,32.9,26.44,210.24676,210.24676,0,0,0,26.96,11.89Z" fill="#efedef"/><path d="M478.77383,444.48242l-.49024-.87109C502.184,430.18457,580.98086,379.84863,591.46133,295.875a166.34461,166.34461,0,0,0-6.91309-70.77246c-2.97656-8.73145-9.94824-29.17774-27.84765-49.09473-21.92286-24.39355-46.94629-33.51953-60.38965-38.42187a174.0938,174.0938,0,0,0-67.74805-10.06836c-11.53809.374-35.5459,1.15332-62.24316,12.81055l-.40039-.916c26.873-11.73438,51.01074-12.51758,62.61035-12.89453a175.03361,175.03361,0,0,1,68.123,10.1289c13.52637,4.93262,38.70215,14.11329,60.792,38.69336,18.03613,20.06836,25.05371,40.65137,28.05078,49.44043a167.41253,167.41253,0,0,1,6.958,71.21778C581.91543,380.4375,502.77773,430.99805,478.77383,444.48242Z" fill="#6a8d99"/><rect x="137.88168" y="91.08548" width="237.67255" height="199.72765" rx="2.9487" fill="#ffe3cb"/><path d="M277.2184,126.99213a1.07375,1.07375,0,0,1-.07761-2.1446l19.69041-1.44773a1.07361,1.07361,0,0,1,.1573,2.14145L277.2981,126.989C277.27136,126.99108,277.24462,126.99213,277.2184,126.99213Z" fill="#904d24"/><path d="M296.90985,132.50724h-19.6904a1.07387,1.07387,0,1,1,0-2.14774h19.6904a1.07387,1.07387,0,0,1,0,2.14774Z" fill="#904d24"/><path d="M296.90985,139.46957h-19.6904a1.07387,1.07387,0,1,1,0-2.14774h19.6904a1.07387,1.07387,0,0,1,0,2.14774Z" fill="#904d24"/><path d="M296.90985,144.14887h-19.6904a1.07387,1.07387,0,0,1,0-2.14774h19.6904a1.07387,1.07387,0,0,1,0,2.14774Z" fill="#904d24"/><path d="M183.873,259.79643a1.07392,1.07392,0,0,1-1.07387-1.07387v-134.252a1.07387,1.07387,0,0,1,2.14774,0v134.252A1.07392,1.07392,0,0,1,183.873,259.79643Z" fill="#904d24"/><path d="M352.84649,237.17806H160.58925a1.07387,1.07387,0,0,1,0-2.14774H352.84649a1.07387,1.07387,0,0,1,0,2.14774Z" fill="#904d24"/><path d="M193.85089,224.12226a1.07388,1.07388,0,0,1-.89349-1.668l19.29242-29.04062a1.09568,1.09568,0,0,1,.96847-.47716,1.074,1.074,0,0,1,.894.60615l9.69524,20.166,26.29512-52.55144a1.05831,1.05831,0,0,1,1.066-.58832,1.07336,1.07336,0,0,1,.9302.78443l9.29044,33.87618,8.03147-14.19784a1.0741,1.0741,0,0,1,1.92017.1012l10.89076,25.1038,7.73522-21.717a1.07259,1.07259,0,0,1,.89611-.70735,1.06092,1.06092,0,0,1,1.02668.49971l7.63559,12.26141L326.607,142.59365a1.07385,1.07385,0,0,1,1.96788.11063l5.15961,14.02638L351.899,122.671a1.0739,1.0739,0,0,1,1.895,1.01094l-19.29243,36.17441a1.07391,1.07391,0,0,1-1.9553-.13476L327.415,145.77278l-26.82839,53.47535a1.07436,1.07436,0,0,1-.91079.59146,1.101,1.101,0,0,1-.96061-.50495l-7.472-11.99818-7.902,22.18526a1.07375,1.07375,0,0,1-1.99673.06712l-11.1157-25.6229-8.2517,14.5869a1.07411,1.07411,0,0,1-1.97051-.24435l-9.23748-33.68322-26.02036,52.00192a1.14378,1.14378,0,0,1-.969.59357,1.074,1.074,0,0,1-.95956-.60877l-9.8258-20.43761-18.24792,27.4681A1.07233,1.07233,0,0,1,193.85089,224.12226Z" fill="#904d24"/><path d="M165.246,208.11856a1.07392,1.07392,0,0,1-1.07387-1.07387V143.075a1.07387,1.07387,0,0,1,2.14774,0v63.96969A1.07392,1.07392,0,0,1,165.246,208.11856Z" fill="#904d24"/><path d="M310.93622,253.97667h-.01573l-100.45241-1.41522a1.074,1.074,0,0,1-1.05867-1.08908,1.0901,1.0901,0,0,1,1.08908-1.05866l100.45241,1.41522a1.07392,1.07392,0,0,1-.01468,2.14774Z" fill="#904d24"/><polygon points="426.658 458.41 398.713 364.199 406.499 361.889 435.205 458.666 426.658 458.41" fill="#c38f86"/><polygon points="368.939 458.41 360.392 458.666 389.099 361.889 396.885 364.199 368.939 458.41" fill="#c38f86"/><rect x="393.68067" y="356.27181" width="8.12101" height="102.41279" fill="#c38f86"/><rect x="349.63834" y="351.53054" width="89.74866" height="13.54324" rx="6.77162" fill="#935b50"/><path d="M487.582,310.11943v.36982a3.5573,3.5573,0,0,1-3.556,3.556H473.34379a3.5573,3.5573,0,0,1-3.556-3.556V296.09457a3.5573,3.5573,0,0,1,3.556-3.556H484.026a3.5573,3.5573,0,0,1,3.556,3.556v14.02486Z" fill="#ffba55"/><path d="M493.47062,296.20825H487.582v2.1336h4.82178v9.64391H487.582v2.1336h5.88858a1.0653,1.0653,0,0,0,1.0668-1.0668V297.27505A1.06541,1.06541,0,0,0,493.47062,296.20825Z" fill="#935b50"/><rect x="478.6849" y="299.90124" width="4.41956" height="4.41956" rx="0.7112" fill="#fff"/><rect x="480.39395" y="292.53809" width="1.00195" height="7.36328" fill="#e5caf3"/><path d="M328.01245,431.25145s.73363,24.00843-1.17979,24.44038-49.2124-4.46281-40.37068-7.0903l14.53544-3.52673a13.3605,13.3605,0,0,0,10.0931-10.41353l1.38611-7.38713Z" fill="#f9977a"/><path d="M386.23527,422.79488s12.33346,18.812,11.01895,20.02736-36.89951,16.27212-31.13429,10.15264l5.33614-6.861a11.87979,11.87979,0,0,0,2.95309-12.89813l-2.50948-6.52185Z" fill="#f9977a"/><path d="M368.60062,335.5382c-4.98506,3.84686-2.64994,8.44384-.57362,14.26637l22.70177,77.50908-16.37749,8.74492L335.37905,359.441s-12.78762-15.574,3.50721-26.30527Z" fill="#8b9d36"/><path d="M376.91019,299.814l-6.78259-5.03745A6.71372,6.71372,0,0,0,366.8,293.493c-2.1201-.21486-5.53023-.6618-7.02232-1.41721-1.44778-.733-2.17855-.09651-1.439,1.30992.4353.82781,1.96763,1.91856,5.98088,3.2087l-3.49212.86186a3.9753,3.9753,0,0,1-3.05823-.48546l-3.84478-2.41241a1.2072,1.2072,0,0,0-1.53132.20882l-.00023.00026a1.10921,1.10921,0,0,0,.21748,1.67314l6.94,4.66121s-.66769,5.51928,4.67377,6.71513,12.686-.91988,12.686-.91988Z" fill="#f9977a"/><polygon points="350.07 310.353 373.142 308.941 349.396 276.493 326.841 277.973 350.07 310.353" fill="#6c7fd8"/><path d="M379.02469,307.25623l-12.00428-10.15866s-6.46339-1.91487-10.18485-3.39873a5.40031,5.40031,0,0,0-6.01126,1.49712c-1.39218,1.60763-1.34247,3.23043,2.52968,5.7864,5.79133,3.8228,8.74316,5.23177,10.48756,5.73736.60433.17516,3.981,1.46347,3.981,1.46347Z" fill="#f9977a"/><path d="M363.54076,298.80048a23.29138,23.29138,0,0,1-2.58984-.80664c-.85181-.3042-1.68262-.66162-2.50318-1.04321a23.35837,23.35837,0,0,1-2.39184-1.2887,12.59462,12.59462,0,0,1-2.17212-1.63562c1.56811.90223,3.17383,1.66639,4.79712,2.43006C360.2976,297.23017,361.93212,297.96613,363.54076,298.80048Z" fill="#dd765e"/><path d="M362.0017,300.93354a22.51163,22.51163,0,0,1-2.87134-.75708,25.71487,25.71487,0,0,1-2.771-1.07983,17.14922,17.14922,0,0,1-2.60669-1.45447,7.0225,7.0225,0,0,1-2.13623-2.07361,10.14359,10.14359,0,0,0,2.35961,1.71728c.85132.47046,1.71851.91675,2.61182,1.31434C358.36205,299.42377,360.18261,300.15034,362.0017,300.93354Z" fill="#dd765e"/><path d="M360.07665,302.58576a16.38543,16.38543,0,0,1-2.415-.59607,21.74126,21.74126,0,0,1-2.32519-.88733,14.99073,14.99073,0,0,1-4.176-2.6925c.73242.39538,1.448.78906,2.18164,1.152.7395.3507,1.47095.712,2.21924,1.04235Z" fill="#dd765e"/><path d="M353.32374,248.62718l-7.68249-3.64266a6.50006,6.50006,0,0,1-2.66409-2.31189c-1.13652-1.73935-3.05886-4.49228-4.42076-5.44948-1.32146-.92876-1.05225-1.8422.58279-1.8237.96236.01089,2.654.85475,5.62714,3.757l-.74108-3.40209a3.72666,3.72666,0,0,0-1.8027-2.43145l-3.9427-2.26065a1.11425,1.11425,0,0,1-.48228-1.41713l.00014-.00031a1.195,1.195,0,0,1,1.65248-.551l7.402,3.9451s4.83921-3.01607,8.31145,1.077,4.74892,11.38208,4.74892,11.38208Z" fill="#f9977a"/><path d="M349.65551,234.98872a8.34052,8.34052,0,0,1-1.48682-.85706,12.68073,12.68073,0,0,1-1.3164-1.09277,4.97091,4.97091,0,0,1,1.54248.77527A6.34838,6.34838,0,0,1,349.65551,234.98872Z" fill="#dd765e"/><path d="M351.36669,234.176a16.7406,16.7406,0,0,1-1.31592-1.04773c-.19726-.19336-.41553-.35657-.62549-.52942a3.274,3.274,0,0,0-.69043-.4541,1.509,1.509,0,0,1,.85132.20069,4.36928,4.36928,0,0,1,.719.4873A4.48978,4.48978,0,0,1,351.36669,234.176Z" fill="#dd765e"/><path d="M353.45751,234.1059c-.20264-.39441-.31079-.77893-.51221-1.10949a1.85851,1.85851,0,0,0-.77807-.84119.93718.93718,0,0,1,.66113.142,1.58117,1.58117,0,0,1,.46045.51513A1.88751,1.88751,0,0,1,353.45751,234.1059Z" fill="#dd765e"/><path d="M408.966,196.00131a18.74044,18.74044,0,0,0-8.4192,1.08775c-1.25364.49472-5.83875,2.30405-7.90138,6.66725-.78341,1.657-.88226,3.61162-1.08046,7.5208-.12376,2.44174-1.00828,4.22715-.86018,7.19148a24.30112,24.30112,0,0,0,1.563,7.018c1.30753,3.5316.68043,5.60105,1.27722,6.245,2.40509,2.59523,9.1964.15971,9.47423,3.67782.17156,2.17235-1.53012,2.65669-1.25815,5.19551.35258,3.29133,11.27774.98843,14.455-.81093.43311-.24529,4.3473-2.98249,3.71694-6.80959-.33681-2.0445-2.62323-11.60522-2.51106-12.85752.40581-4.52631,2.72861-5.1829,4.31232-10.70462a8.24786,8.24786,0,0,0-1.85249-8.08629A18.19208,18.19208,0,0,0,408.966,196.00131Z" fill="#f9977a"/><ellipse cx="392.72339" cy="215.04692" rx="0.94788" ry="1.13699" transform="translate(-11.66872 22.83906) rotate(-3.28239)" fill="#0a0709"/><ellipse cx="401.26105" cy="214.65413" rx="0.94788" ry="1.13699" transform="translate(-11.63222 23.32726) rotate(-3.28239)" fill="#0a0709"/><path d="M390.69766,213.1123a.58785.58785,0,0,1-.36817-1.04589,6.38793,6.38793,0,0,1,7.05762-.34766.58724.58724,0,0,1-.57617,1.02344,5.2804,5.2804,0,0,0-5.74512.24023A.58665.58665,0,0,1,390.69766,213.1123Z" fill="#1e1d22"/><path d="M399.54629,212.70508a.58786.58786,0,0,1-.36816-1.0459,6.38678,6.38678,0,0,1,7.05664-.34766.58724.58724,0,0,1-.57618,1.02344,5.289,5.289,0,0,0-5.74414.24024A.58671.58671,0,0,1,399.54629,212.70508Z" fill="#1e1d22"/><path d="M397.95165,213.00385a4.40028,4.40028,0,0,1-.11255,2.916,10.13021,10.13021,0,0,1-1.35034,2.63135c-.29834.40808-.71924.70861-.63916,1.10583a1.71008,1.71008,0,0,0,.73193,1.0492,3.87494,3.87494,0,0,0,2.73951.43566,3.56593,3.56593,0,0,1-2.90821-.18591,1.88933,1.88933,0,0,1-.91723-1.25732,1.062,1.062,0,0,1,.23022-.81116l.45337-.57568a11.03257,11.03257,0,0,0,1.38184-2.50428A4.96938,4.96938,0,0,0,397.95165,213.00385Z" fill="#dd765e"/><path d="M413.48607,212.67426a2.50693,2.50693,0,0,1,1.96412.66382,4.28145,4.28145,0,0,1,.6914.8009,3.716,3.716,0,0,1,.43921.94849,13.50566,13.50566,0,0,0-1.38525-1.45251,4.42615,4.42615,0,0,0-.78882-.57166A3.75408,3.75408,0,0,0,413.48607,212.67426Z" fill="#dd765e"/><path d="M414.48949,217.37434a3.25454,3.25454,0,0,1-.47192-2.15979,3.61907,3.61907,0,0,1,.324-1.08338,3.04115,3.04115,0,0,1,.65967-.89783c-.13428.34827-.28662.66858-.37988,1.00928a4.58136,4.58136,0,0,0-.21533,1.0188A6.68777,6.68777,0,0,0,414.48949,217.37434Z" fill="#dd765e"/><path d="M400.3495,234.98274s6.6911-.18816,10.25966-5.48877c1.70156-2.527,1.46163-7.47007,1.14094-10.33715a8.60564,8.60564,0,0,1,.42916-3.81c.59355-1.69269,1.31062-3.99483,2.98844-4.22306,1.23624-.16817,1.71946-.50728,2.22375.62792.83343,1.878-.346,4.04627-1.167,5.5565-1.17564,2.16095-2.23947,2.66987-2.18729,4.12514.03967,1.11017,3.43523,3.21062,4.03627,2.74869,1.22521-.94163.39954-3.55663,3.55017-10.01521,1.98978-4.07832,2.95818-4.87077,3.08852-7.36555.04622-.88581.23762-4.553-2.14529-6.57117-1.10531-.93607-1.6913-.60843-6.37832-2.27328a38.74918,38.74918,0,0,1-3.81822-1.48916c-3.75483-1.75948-3.72244-2.75487-5.89287-3.24342-1.96073-.44125-2.036.36057-5.74036.31956-3.57148-.03943-3.92519-.7896-5.54919-.261-2.81965.91757-4.0469,3.92517-4.37643,4.7333a9.21,9.21,0,0,0-.88368,4.48479,8.42931,8.42931,0,0,0,1.95044,4.23521c.48689.4348,2.23986-2.28121,3.217-3.31759.95821-1.01541,2.12082-.67117,3.683-.64943,1.52312.0212,1.48517.93718,3.771,1.63468.81443.24848,3.95294-1.28464,5.07272.37944,1.19311,1.77306,2.06158,1.95458,1.62771,3.67545-.2711,1.07512-.00646,2.36849.52279,4.95538.37961,1.85647-.86592,8.4592-.86592,8.4592a2.40605,2.40605,0,0,1-3.13773,1.18335,43.52648,43.52648,0,0,0-5.366-1.94987,7.92762,7.92762,0,0,0-6.49593,1.02063c-.65155.42641-1.3192.90127-1.84542,1.326a2.6318,2.6318,0,0,0-.9777,2.338C391.42071,228.585,392.966,235.38519,400.3495,234.98274Zm-6.83391-9.44555c.20913-1.34775,2.24842-1.96194,3.41277-2.31129a5.01811,5.01811,0,0,1,2.8942-.23237c.22995.05712,2.316.64267,2.58055,2.22889.2652,1.58641-1.52419,2.78326-1.80479,2.96365a4.87161,4.87161,0,0,1-4.59058.35227C394.92266,228.05929,393.3102,226.83274,393.51559,225.53719Z" fill="#1e1d22"/><path d="M401.48508,225.06463s-3.56333,3.526-7.06408.325" fill="#0a0709"/><path d="M360.28112,241.29614c8.966,3.618,22.51043,20.11492,22.51043,20.11492l15.42574-14.28668,3.46012-8.34241,13.86747-3.64739a4.89351,4.89351,0,0,0,3.69965-5.45263l-.0166-.0988,7.66646,12.295c6.05836,9.71595,7.89592,20.92121,7.02254,32.22733l-2.67072,46.91392s-43.49474,5.15131-41.58708,0l.34664-8.28028-4.73426-.5506-10.30137-2.0237,1.33535-12.5104,10.68292-.36793,4.00608-3.12761.42782-13.0725-2.36643.39166c-6.20422,1.02689-13.71963-1.77653-17.59253-6.56243L352.4597,250.37252A13.04108,13.04108,0,0,1,360.28112,241.29614Z" fill="#ffba55"/><path d="M423.51049,236.45124q-4.54835,2.61237-9.18384,5.05811c-1.54712.81164-3.08032,1.64953-4.63867,2.43957l-4.6648,2.38892-.21508.11-.09082-.2174c-1.03418-2.47364-2.07129-4.94581-3.0398-7.44837,1.19336,2.40332,2.31812,4.837,3.44605,7.26941l-.30567-.1073,4.63013-2.45593c1.54-.825,3.105-1.60193,4.65625-2.4054Q418.76464,238.68488,423.51049,236.45124Z" fill="#e6952a"/><path d="M390.99438,294.15888a34.21922,34.21922,0,0,1,4.56762-1.49743q2.32434-.61964,4.67359-1.141,4.69592-1.04863,9.43408-1.89367l-.09839.121-.75659-18.743a59.572,59.572,0,0,1,.20312-9.3938,23.02186,23.02186,0,0,1,2.64722-9.01343,10.61717,10.61717,0,0,1,3.22681-3.474,9.24476,9.24476,0,0,1,4.50756-1.48633,10.999,10.999,0,0,1,8.65992,3.34131,11.53971,11.53971,0,0,1,1.47363,1.88709,12.77663,12.77663,0,0,1,1.02759,2.15417,35.37061,35.37061,0,0,1,1.40722,4.5044,56.7868,56.7868,0,0,1,1.40894,9.30444,104.30887,104.30887,0,0,1-.51587,18.76636c-.33154,3.11364-.79272,6.21045-1.29565,9.29931a10.75638,10.75638,0,0,1-5.22168,7.60157,12.53506,12.53506,0,0,1-2.15064.99157l-2.19751.8241c-1.46777.54211-2.946,1.05554-4.42847,1.55591-2.96777.991-5.96337,1.90515-8.99975,2.66565a84.973,84.973,0,0,1-9.20337,1.83044,43.3008,43.3008,0,0,1-9.35791.37561,43.24571,43.24571,0,0,0,9.34155-.49048,84.803,84.803,0,0,0,9.16138-1.9403q4.52527-1.21143,8.96387-2.72083c1.47754-.50586,2.95044-1.02454,4.41333-1.5719l2.18969-.83179a12.19562,12.19562,0,0,0,2.09742-.9768,10.39906,10.39906,0,0,0,5.022-7.37464c.48852-3.08435.93555-6.17566,1.25268-9.28149a103.845,103.845,0,0,0,.43482-18.68433,56.28223,56.28223,0,0,0-1.43433-9.21435,34.85738,34.85738,0,0,0-1.36792-4.44629,10.69217,10.69217,0,0,0-2.37768-3.88355,10.52222,10.52222,0,0,0-8.27149-3.23059,8.79685,8.79685,0,0,0-4.30176,1.397,10.19715,10.19715,0,0,0-3.10717,3.32165,22.64633,22.64633,0,0,0-2.63062,8.844,59.21771,59.21771,0,0,0-.24072,9.33874l.657,18.74573.00366.10412-.10229.01709q-4.73987.79138-9.44824,1.776-2.35218.49567-4.68384,1.08252A34.18538,34.18538,0,0,0,390.99438,294.15888Z" fill="#e6952a"/><path d="M398.21728,247.12434l-1.55347,4.08606c-.53565,1.35644-1.07349,2.70471-1.52881,4.08276a54.29784,54.29784,0,0,0-2.14038,8.42114q-.38232,2.13959-.58691,4.30664c-.13965,1.44055-.18946,2.8982-.30591,4.35071-.20117,2.90625-.4104,5.81213-.67945,8.71472.04688-2.91467.15332-5.82605.26831-8.73706a62.39961,62.39961,0,0,1,.77735-8.72656,50.14734,50.14734,0,0,1,2.28052-8.46619C395.779,252.4145,397.0227,249.78425,398.21728,247.12434Z" fill="#e6952a"/><path d="M382.79149,261.41108a34.92275,34.92275,0,0,0-1.05493,5.10669,23.846,23.846,0,0,0-.19238,2.58325,25.29439,25.29439,0,0,0,.10278,2.61279,11.85449,11.85449,0,0,1-.44116-5.26257,15.20062,15.20062,0,0,1,.56128-2.59827A12.28364,12.28364,0,0,1,382.79149,261.41108Z" fill="#e6952a"/><path d="M419.0371,297.10249a35.36059,35.36059,0,0,0-4.239-4.26575,22.48972,22.48972,0,0,0-2.41626-1.75318,18.39218,18.39218,0,0,0-2.69214-1.34008,10.31314,10.31314,0,0,1,2.89355.981,14.17529,14.17529,0,0,1,2.55689,1.70105,17.5099,17.5099,0,0,1,2.16406,2.16748A14.78793,14.78793,0,0,1,419.0371,297.10249Z" fill="#e6952a"/><path d="M428.38476,307.77314a11.48693,11.48693,0,0,1-1.38843,2.83679,11.9058,11.9058,0,0,1-2.08814,2.406,9.03888,9.03888,0,0,1-2.74365,1.64258,7.75017,7.75017,0,0,1-3.12744.47363,10.99025,10.99025,0,0,0,2.96948-.85388,11.12782,11.12782,0,0,0,2.552-1.66724,16.402,16.402,0,0,0,2.1045-2.23987A21.12879,21.12879,0,0,0,428.38476,307.77314Z" fill="#e6952a"/><path d="M427.24022,313.66035a7.75627,7.75627,0,0,1-1.988,2.33044,11.01808,11.01808,0,0,1-2.65161,1.59155,12.47406,12.47406,0,0,1-2.98243.7948c-.50659.08692-1.02343.08643-1.53149.13074-.51221-.00745-1.02295-.02661-1.52954-.06409,1.01245-.13281,2.01172-.24365,2.98779-.4718a18.21463,18.21463,0,0,0,2.84986-.88342,15.05545,15.05545,0,0,0,2.6101-1.42444A11.33434,11.33434,0,0,0,427.24022,313.66035Z" fill="#e6952a"/><path d="M386.98852,297.28645c.18945,1.00329.32055,2.0111.44262,3.01953.12818,1.00805.2146,2.01941.30078,3.03076.07349,1.01233.146,2.02478.177,3.0404.03662,1.01526.06469,2.03113.0332,3.05176-.19019-1.00317-.32105-2.011-.4436-3.01953-.12793-1.00806-.21436-2.01929-.29981-3.03076-.07275-1.01233-.14551-2.02478-.176-3.04053C386.98583,299.32294,386.95775,298.30695,386.98852,297.28645Z" fill="#e6952a"/><path d="M365.54931,244.395c-.644.86413-1.33106,1.68859-2.02466,2.50695-.68921.82251-1.40918,1.61658-2.1294,2.41053-.72949.7854-1.46,1.57006-2.22094,2.32666-.75684.76025-1.52,1.51477-2.32691,2.229.64307-.86475,1.33032-1.689,2.02368-2.50757.68946-.82226,1.40943-1.61645,2.13013-2.40991.73023-.78491,1.46045-1.5697,2.22168-2.32593C363.97948,245.8642,364.74267,245.10981,365.54931,244.395Z" fill="#e6952a"/><rect x="346.50723" y="263.2627" width="0.39063" height="11.38281" fill="#7ca1b1"/><rect x="363.99307" y="286.96789" width="13.43262" height="0.39138" transform="translate(-81.88437 164.49629) rotate(-22.59787)" fill="#7ca1b1"/><rect x="354.94415" y="274.45034" width="12.36443" height="0.39033" transform="translate(-32.68225 499.93905) rotate(-67.02728)" fill="#7ca1b1"/><path d="M431.24621,321.01939a36.54555,36.54555,0,0,1-6.42442,22.56524,23.96442,23.96442,0,0,1-19.81193,10.06958l-37.64131-.10783c-6.3775.28758-11.8059.2259-13.67359,6.11377l-24.26728,76.50244-18.58-2.20538,15.14983-84.0798s.571-16.74164,18.86582-19.297l44.3061-7.99447.68813-6.307Z" fill="#8b9d36"/><polygon points="389.269 322.754 389.07 322.418 398.118 317.068 398.317 317.404 389.269 322.754" fill="#5e7c24"/><path d="M346.70287,381.703q.5409-5.2013,1.15381-10.39343a23.25417,23.25417,0,0,1,3.17285-9.94788,16.04519,16.04519,0,0,1,7.76587-6.88428,10.04464,10.04464,0,0,1,2.56592-.633,16.23076,16.23076,0,0,1,2.62842.06616,12.84388,12.84388,0,0,0,5.1726-.22949,12.92642,12.92642,0,0,1-5.1853.4176,16.60118,16.60118,0,0,0-2.59277-.011,9.79337,9.79337,0,0,0-2.4812.66712,15.92671,15.92671,0,0,0-7.54053,6.80786,23.32019,23.32019,0,0,0-3.20215,9.78515Q347.46679,376.5298,346.70287,381.703Z" fill="#5e7c24"/><rect x="485.27092" y="321.66924" width="8.63678" height="136.99937" fill="#935b50"/><rect x="250.89672" y="315.04525" width="259.54635" height="6.62399" rx="1.48897" fill="#935b50"/><rect x="268.12108" y="321.66924" width="8.63678" height="136.99937" fill="#935b50"/><path d="M261.23133,321.66924H500.699a0,0,0,0,1,0,0v18.68822a2.97795,2.97795,0,0,1-2.97795,2.97795H264.20928a2.97795,2.97795,0,0,1-2.97795-2.97795V321.66924a0,0,0,0,1,0,0Z" fill="#c38f86"/><circle cx="475.37945" cy="131.43337" r="28.03391" fill="#ffba55"/><path d="M475.3793,159.96777a28.53418,28.53418,0,1,1,28.53418-28.53418A28.567,28.567,0,0,1,475.3793,159.96777Zm0-56.06836a27.53418,27.53418,0,1,0,27.53418,27.53418A27.56509,27.56509,0,0,0,475.3793,103.89941Z" fill="#d77f4a"/><path d="M475.3793,133.93359a.49971.49971,0,0,1-.5-.5V115.35645a.5.5,0,0,1,1,0v18.07714A.49972.49972,0,0,1,475.3793,133.93359Z" fill="#d77f4a"/><path d="M490.933,137.67383a.49849.49849,0,0,1-.22461-.05274l-18.75684-9.40722a.5005.5005,0,0,1,.44922-.89453l18.75684,9.40722a.50016.50016,0,0,1-.22461.94727Z" fill="#d77f4a"/><path d="M185.13012,430.4239a116.92234,116.92234,0,0,1-1.61377-16.68116,122.99178,122.99178,0,0,1,.66089-16.76721,89.4939,89.4939,0,0,1,3.42822-16.42932,72.55667,72.55667,0,0,1,3.0603-7.82043,59.70517,59.70517,0,0,1,4.1875-7.26184,62.89891,62.89891,0,0,0-6.77441,15.22924c-.76953,2.67469-1.46314,5.37073-2.00293,8.10218q-.78882,4.10008-1.25952,8.25329a131.50078,131.50078,0,0,0-.80689,16.68421q.03882,4.1812.323,8.358C184.50927,424.87458,184.7456,427.65766,185.13012,430.4239Z" fill="#50661a"/><path d="M185.13007,388.5874s-29.38216,3.70052-42.16929-8.90756c-9.48919-9.35633-.46339-25.45988,12.5413-22.55063C164.20843,359.0769,174.947,366.81568,185.13007,388.5874Z" fill="#5e7c24"/><path d="M185.13012,388.58735c-4.12451-1.25537-8.18408-2.72534-12.18042-4.35266q-5.99159-2.4483-11.74854-5.44239-2.863-1.51739-5.61816-3.233a56.507,56.507,0,0,1-5.3357-3.689,39.84464,39.84464,0,0,1-4.80053-4.36646,19.31732,19.31732,0,0,1-3.52759-5.4104,19.16631,19.16631,0,0,0,3.75781,5.195,39.98158,39.98158,0,0,0,4.87061,4.18774,82.16228,82.16228,0,0,0,10.95459,6.74744c3.78491,2.03674,7.69751,3.83142,11.63891,5.5564q2.9579,1.29144,5.96021,2.48193C181.09521,387.07478,183.1018,387.8592,185.13012,388.58735Z" fill="#50661a"/><path d="M153.26928,373.73017l.02881-4.33472c-.00806-1.44079.00024-2.87927-.08155-4.313a37.76944,37.76944,0,0,0-.38086-4.2743l-.19946-1.04992c-.0708-.34937-.19385-.68128-.28564-1.02649a7.55582,7.55582,0,0,0-.38745-.99231,8.66208,8.66208,0,0,0-.57715-.9065,7.29976,7.29976,0,0,1,1.936,3.88062,29.12777,29.12777,0,0,1,.53736,4.34155c.029,1.45508.03,2.90845-.06836,4.35681A36.45461,36.45461,0,0,1,153.26928,373.73017Z" fill="#50661a"/><path d="M139.4414,373.73017c1.72705-.30066,3.43066-.54834,5.0957-.93188a15.31544,15.31544,0,0,0,2.4165-.76087,3.49255,3.49255,0,0,0,1.88794-1.59082,3.03124,3.03124,0,0,1-1.65844,2.03821,9.85373,9.85373,0,0,1-2.499.94031A15.87743,15.87743,0,0,1,139.4414,373.73017Z" fill="#50661a"/><path d="M144.75316,381.25849a48.94511,48.94511,0,0,0,6.8208-1.371,12.80553,12.80553,0,0,0,3.12916-1.34241,4.47223,4.47223,0,0,0,2.08178-2.59363,4.05181,4.05181,0,0,1-1.79468,3.00635,10.42436,10.42436,0,0,1-3.23,1.546A20.25231,20.25231,0,0,1,144.75316,381.25849Z" fill="#50661a"/><path d="M161.18236,378.42316q.73463-2.15349,1.34937-4.3236c.39795-1.45069.79028-2.90186,1.05-4.379a25.9731,25.9731,0,0,0,.4021-8.94348,15.067,15.067,0,0,1,.68652,4.50964,26.9564,26.9564,0,0,1-.457,4.55664,35.66175,35.66175,0,0,1-1.21118,4.40466A28.08773,28.08773,0,0,1,161.18236,378.42316Z" fill="#50661a"/><path d="M156.7849,386.92524c.93677-.24585,1.843-.553,2.731-.88147a15.24221,15.24221,0,0,0,2.5415-1.2074,9.34622,9.34622,0,0,0,2.14771-1.74219,7.57559,7.57559,0,0,0,1.3418-2.46374,5.45291,5.45291,0,0,1-.94483,2.77234,7.61732,7.61732,0,0,1-2.21338,1.98584,10.62455,10.62455,0,0,1-2.7185,1.13159A10.9456,10.9456,0,0,1,156.7849,386.92524Z" fill="#50661a"/><path d="M171.67309,367.39155a14.30163,14.30163,0,0,1,1.38159,3.84277,16.5055,16.5055,0,0,1,.32275,4.10217,13.38843,13.38843,0,0,1-.86157,4.0304,12.09406,12.09406,0,0,1-2.08325,3.515,18.33063,18.33063,0,0,0,1.61474-3.677,14.65575,14.65575,0,0,0,.6875-3.90515,18.86984,18.86984,0,0,0-.166-3.97937A24.15818,24.15818,0,0,0,171.67309,367.39155Z" fill="#50661a"/><path d="M169.77318,388.58735c1.06812-.53528,2.11768-.99439,3.12452-1.53381a12.44486,12.44486,0,0,0,2.81909-1.94739,5.28938,5.28938,0,0,1-2.51685,2.516A8.2095,8.2095,0,0,1,169.77318,388.58735Z" fill="#50661a"/><path d="M179.07421,377.306a14.38555,14.38555,0,0,1,1.00952,4.56714,10.27014,10.27014,0,0,1-.11328,2.36389,4.54446,4.54446,0,0,1-.89624,2.18274,7.19219,7.19219,0,0,0,.39648-2.23938,19.98953,19.98953,0,0,0-.03-2.27112C179.36181,380.38728,179.17846,378.8675,179.07421,377.306Z" fill="#50661a"/><path d="M184.06216,388.43938s-22.89271-18.78641-22.533-36.74038c.2669-13.32346,18.165-17.84521,24.99628-6.40319C191.09876,352.956,192.86535,366.07406,184.06216,388.43938Z" fill="#c4ce6e"/><path d="M184.06225,388.4394a125.66541,125.66541,0,0,1-5.344-11.78833q-2.38586-6.02307-4.17187-12.27222-.86207-3.12871-1.50391-6.31689a53.80486,53.80486,0,0,1-.96875-6.429,39.89064,39.89064,0,0,1-.08252-6.50781,18.59807,18.59807,0,0,1,1.58911-6.27661,19.94914,19.94914,0,0,0-1.09985,6.30591,39.95488,39.95488,0,0,0,.35791,6.39612,83.82256,83.82256,0,0,0,2.67017,12.56018c1.10815,4.14648,2.49682,8.21606,3.92651,12.27063q1.07226,3.04193,2.24975,6.04846C182.43773,384.44746,183.251,386.441,184.06225,388.4394Z" fill="#8b9d36"/><path d="M172.93773,355.09125c2.031-2.089,4.12085-4.05627,6.114-6.10925.99414-1.02612,1.95312-2.07812,2.853-3.1748a18.29253,18.29253,0,0,0,1.21118-1.73462,7.51923,7.51923,0,0,0,.4873-.93921,10.06021,10.06021,0,0,0,.30664-1.02942,7.02125,7.02125,0,0,1-1.37011,4.15686,24.36527,24.36527,0,0,1-2.77051,3.41687A33.56988,33.56988,0,0,1,172.93773,355.09125Z" fill="#8b9d36"/><path d="M163.42821,345.05231c1.5044.94629,2.86524,1.97925,4.27857,2.91016a18.7305,18.7305,0,0,0,2.1626,1.24866,3.71714,3.71714,0,0,0,2.40722.40759,2.94018,2.94018,0,0,1-2.66626.32849,9.10725,9.10725,0,0,1-2.45312-1.15A13.04867,13.04867,0,0,1,163.42821,345.05231Z" fill="#8b9d36"/><path d="M161.61571,354.086c1.94483,1.34228,3.79419,2.72619,5.77417,3.85449a13.84158,13.84158,0,0,0,3.06665,1.36719,4.65341,4.65341,0,0,0,3.28614-.13636,3.95256,3.95256,0,0,1-3.44483.90039,9.99978,9.99978,0,0,1-3.40356-1.2633,17.53475,17.53475,0,0,1-2.886-2.10352A15.77307,15.77307,0,0,1,161.61571,354.086Z" fill="#8b9d36"/><path d="M174.97265,364.06354c1.35888-.68872,2.68359-1.40954,4.00464-2.12146,1.31079-.73083,2.615-1.46313,3.86792-2.27172a42.45312,42.45312,0,0,0,3.637-2.5835A27.07955,27.07955,0,0,0,189.71,353.9621a13.75936,13.75936,0,0,1-2.70679,3.70569,23.18494,23.18494,0,0,1-3.62207,2.84607A27.37085,27.37085,0,0,1,174.97265,364.06354Z" fill="#8b9d36"/><path d="M165.77587,366.718c.87378.44617,1.72681.86707,2.584,1.255a17.62235,17.62235,0,0,0,2.6062.96509,10.16958,10.16958,0,0,0,2.68042.39416,8.65759,8.65759,0,0,0,2.7251-.582,5.05406,5.05406,0,0,1-2.64892,1.35864,7.32942,7.32942,0,0,1-3.02539-.20825,9.88544,9.88544,0,0,1-2.70923-1.24512A9.24756,9.24756,0,0,1,165.77587,366.718Z" fill="#8b9d36"/><path d="M190.19579,364.09321a14.12078,14.12078,0,0,1-4.4812,6.83716,15.67453,15.67453,0,0,1-1.69385,1.22741c-.29931.17945-.61767.32788-.92456.49219a5.27232,5.27232,0,0,1-.95605.42029,11.06349,11.06349,0,0,1-4.04322.77515,21.5419,21.5419,0,0,0,3.7212-1.486,16.56469,16.56469,0,0,0,3.252-2.19287,22.15709,22.15709,0,0,0,2.77539-2.80566A30.02571,30.02571,0,0,0,190.19579,364.09321Z" fill="#8b9d36"/><path d="M173.50121,377.29047c1.19653.28662,2.24805.6958,3.31885,1.04493a20.97217,20.97217,0,0,0,3.2959.876,3.647,3.647,0,0,1-1.803.39771,6.33287,6.33287,0,0,1-1.811-.32617,7.52815,7.52815,0,0,1-1.63354-.79187A5.434,5.434,0,0,1,173.50121,377.29047Z" fill="#8b9d36"/><path d="M188.08788,376.28474a9.5106,9.5106,0,0,1-1.0437,2.12536,12.73461,12.73461,0,0,1-1.44873,1.87012,9.18584,9.18584,0,0,1-1.83984,1.53235,4.14565,4.14565,0,0,1-2.28443.73962,8.90672,8.90672,0,0,0,1.81494-1.36291c.543-.50952,1.07422-1.03662,1.58252-1.59485C185.915,378.50422,186.90893,377.35529,188.08788,376.28474Z" fill="#8b9d36"/><path d="M183.37416,419.90538s-29.59515,1.06405-41.20628-12.6347c-8.6165-10.16571,1.81019-25.39968,14.50342-21.34164C165.16913,388.64579,175.17431,397.31188,183.37416,419.90538Z" fill="#c4ce6e"/><path d="M183.37426,419.90534a125.607,125.607,0,0,1-11.80738-5.30188c-3.8496-1.95788-7.59936-4.11572-11.24877-6.44018q-2.71692-1.77522-5.30762-3.74085a53.83433,53.83433,0,0,1-4.98071-4.179,39.898,39.898,0,0,1-4.36841-4.82459,18.59865,18.59865,0,0,1-2.96192-5.75732,19.94957,19.94957,0,0,0,3.34839,5.45556,39.9484,39.9484,0,0,0,4.50073,4.55848,83.83042,83.83042,0,0,0,10.31348,7.65c3.57471,2.37549,7.30908,4.50757,11.06372,6.60144q2.81689,1.57086,5.68945,3.0459C179.51464,417.98737,181.44359,418.94392,183.37426,419.90534Z" fill="#8b9d36"/><path d="M152.96605,402.26459c.14039-2.91027.40552-5.76818.54126-8.62634.06617-1.42712.08912-2.85034.03809-4.26819a18.30849,18.30849,0,0,0-.23975-2.10205,7.51988,7.51988,0,0,0-.2561-1.02661,10.10284,10.10284,0,0,0-.45142-.97461,7.02286,7.02286,0,0,1,1.72364,4.0232,24.38206,24.38206,0,0,1,.18384,4.395A33.56572,33.56572,0,0,1,152.96605,402.26459Z" fill="#8b9d36"/><path d="M139.19335,401.03071c1.75415-.28613,3.45776-.412,5.13354-.64954a18.7225,18.7225,0,0,0,2.44776-.49475,3.71691,3.71691,0,0,0,2.07446-1.28747,2.94073,2.94073,0,0,1-1.78149,2.01074,9.10917,9.10917,0,0,1-2.60034.761A13.04462,13.04462,0,0,1,139.19335,401.03071Z" fill="#8b9d36"/><path d="M143.81225,409.003c2.34643-.28064,4.64892-.46692,6.87988-.931a13.84169,13.84169,0,0,0,3.20386-1.0044,4.65358,4.65358,0,0,0,2.37353-2.27685,3.9521,3.9521,0,0,1-1.98706,2.95471,10.00335,10.00335,0,0,1-3.38745,1.30518,17.527,17.527,0,0,1-3.55566.33252A15.75726,15.75726,0,0,1,143.81225,409.003Z" fill="#8b9d36"/><path d="M160.42895,407.64484c.563-1.41565,1.07934-2.83276,1.59863-4.2406.49927-1.4154.99243-2.82739,1.39673-4.26269a42.51426,42.51426,0,0,0,1.01733-4.34375,27.11133,27.11133,0,0,0,.352-4.47864,13.76431,13.76431,0,0,1,.42285,4.56946,23.19121,23.19121,0,0,1-.83227,4.53064A27.36754,27.36754,0,0,1,160.42895,407.64484Z" fill="#8b9d36"/><path d="M155.29052,415.72077c.95019-.24377,1.86816-.49267,2.76782-.76916a17.60412,17.60412,0,0,0,2.59253-1.001,10.16775,10.16775,0,0,0,2.27051-1.47827,8.65561,8.65561,0,0,0,1.65771-2.23963,5.0515,5.0515,0,0,1-1.08691,2.77161,7.32787,7.32787,0,0,1-2.406,1.84583,9.88642,9.88642,0,0,1-2.85522.85937A9.25658,9.25658,0,0,1,155.29052,415.72077Z" fill="#8b9d36"/><path d="M171.86205,397.59333a14.11788,14.11788,0,0,1,1.16455,8.09131,15.61054,15.61054,0,0,1-.45776,2.04126c-.10547.33252-.24585.65442-.36743.98083a5.25808,5.25808,0,0,1-.43848.94764,11.06165,11.06165,0,0,1-2.51855,3.25683,21.52127,21.52127,0,0,0,1.80664-3.57654,16.56913,16.56913,0,0,0,.98706-3.796,22.15165,22.15165,0,0,0,.22412-3.94006A30.0241,30.0241,0,0,0,171.86205,397.59333Z" fill="#8b9d36"/><path d="M168.0786,418.5351c1.08692-.57678,2.14576-.96582,3.17969-1.4126a20.98548,20.98548,0,0,0,3.05078-1.52441,3.64516,3.64516,0,0,1-1.08862,1.49133,6.33817,6.33817,0,0,1-1.57349.95386,7.531,7.531,0,0,1-1.749.48731A5.42693,5.42693,0,0,1,168.0786,418.5351Z" fill="#8b9d36"/><path d="M178.34911,408.12861a9.49553,9.49553,0,0,1,.624,2.28418,12.74093,12.74093,0,0,1,.15137,2.36059,9.19158,9.19158,0,0,1-.36523,2.36646,4.14646,4.14646,0,0,1-1.22339,2.06616,8.89952,8.89952,0,0,0,.45874-2.2229c.07007-.74121.11963-1.48791.1311-2.2428C178.189,411.23054,178.17382,409.71149,178.34911,408.12861Z" fill="#8b9d36"/><path d="M185.12223,390.57537s29.53663,2.14315,41.63984-11.12284c8.98167-9.84456-.88225-25.44881-13.71509-21.8566C204.45569,360.00083,194.141,368.2961,185.12223,390.57537Z" fill="#5e7c24"/><path d="M185.1223,390.57539c1.98682-.83435,3.94922-1.72364,5.89722-2.64075q2.93262-1.35188,5.82105-2.79334c3.84448-1.93066,7.657-3.92968,11.3291-6.16357a82.16714,82.16714,0,0,0,10.58276-7.31665,39.98368,39.98368,0,0,0,4.64258-4.43921,19.16045,19.16045,0,0,0,3.47827-5.38611,19.31735,19.31735,0,0,1-3.23706,5.58911,39.85555,39.85555,0,0,1-4.563,4.614,56.56034,56.56034,0,0,1-5.1333,3.96569q-2.65869,1.85706-5.4397,3.52527-5.57848,3.299-11.44458,6.05542C193.15087,387.42133,189.17479,389.10383,185.1223,390.57539Z" fill="#50661a"/><path d="M216.1538,374.05573a36.4296,36.4296,0,0,1-.74927-4.28467c-.1748-1.441-.25049-2.89257-.29834-4.34716a29.09723,29.09723,0,0,1,.30713-4.36377,7.29857,7.29857,0,0,1,1.72827-3.97742,8.64992,8.64992,0,0,0-.52832.93567,7.55181,7.55181,0,0,0-.33447,1.01135c-.07349.34961-.17871.6875-.231,1.04016l-.1438,1.05908a37.75222,37.75222,0,0,0-.15454,4.28833c-.0061,1.436.07837,2.87208.14649,4.31128Z" fill="#50661a"/><path d="M229.96239,373.32526a15.88251,15.88251,0,0,1-5.25146-.02758,9.85185,9.85185,0,0,1-2.54541-.80713,3.03016,3.03016,0,0,1-1.76367-1.94776,3.49167,3.49167,0,0,0,1.96923,1.489,15.33275,15.33275,0,0,0,2.45337.63208C226.50756,372.95893,228.22167,373.11628,229.96239,373.32526Z" fill="#50661a"/><path d="M225.05541,381.12373a20.25154,20.25154,0,0,1-7.03711-.38355,10.42613,10.42613,0,0,1-3.30713-1.37317,4.05233,4.05233,0,0,1-1.95093-2.90722,4.47192,4.47192,0,0,0,2.21582,2.47985,12.80544,12.80544,0,0,0,3.19581,1.1753A48.94517,48.94517,0,0,0,225.05541,381.12373Z" fill="#50661a"/><path d="M208.4995,379.16022a28.10628,28.10628,0,0,1-2.03784-4.07324,35.63487,35.63487,0,0,1-1.44214-4.33447,26.96608,26.96608,0,0,1-.697-4.52625,15.05854,15.05854,0,0,1,.44727-4.53955,25.96446,25.96446,0,0,0,.874,8.90967c.3374,1.46143.80591,2.88989,1.27978,4.31751Q207.64758,377.05219,208.4995,379.16022Z" fill="#50661a"/><path d="M213.33983,387.41816a10.94824,10.94824,0,0,1-2.90258-.25208,10.62513,10.62513,0,0,1-2.77417-.98645,7.61624,7.61624,0,0,1-2.31543-1.86609,5.45418,5.45418,0,0,1-1.09009-2.71862,7.58226,7.58226,0,0,0,1.47021,2.38952,9.3558,9.3558,0,0,0,2.23682,1.62635,15.25742,15.25742,0,0,0,2.60181,1.07141C211.47021,386.9632,212.39159,387.22211,213.33983,387.41816Z" fill="#50661a"/><path d="M197.44066,368.69819a24.16274,24.16274,0,0,0-.687,3.9707,18.87545,18.87545,0,0,0,.04444,3.98255,14.65675,14.65675,0,0,0,.89282,3.8634,18.32794,18.32794,0,0,0,1.80688,3.58655,12.09052,12.09052,0,0,1-2.26611-3.4,13.38571,13.38571,0,0,1-1.07324-3.97925,16.5025,16.5025,0,0,1,.10571-4.11352A14.30248,14.30248,0,0,1,197.44066,368.69819Z" fill="#50661a"/><path d="M200.45751,389.76411a8.212,8.212,0,0,1-3.4729-.78284,5.29077,5.29077,0,0,1-2.64624-2.37964,12.44557,12.44557,0,0,0,2.91821,1.7959C198.29052,388.88288,199.36278,389.286,200.45751,389.76411Z" fill="#50661a"/><path d="M190.57348,378.98981c-.02149,1.56482-.12427,3.09217-.12256,4.61622a19.9982,19.9982,0,0,0,.08984,2.26953,7.209,7.209,0,0,0,.51416,2.21533,4.54545,4.54545,0,0,1-1.01-2.13245,10.2701,10.2701,0,0,1-.238-2.35461A14.3943,14.3943,0,0,1,190.57348,378.98981Z" fill="#50661a"/><path d="M183.9987,419.56913s29.53663,2.14316,41.63984-11.12283c8.98167-9.84456-.88225-25.44881-13.71509-21.85661C203.33216,388.99459,193.01744,397.28986,183.9987,419.56913Z" fill="#8b9d36"/><path d="M183.99877,419.56916c1.96436-.8905,3.92676-1.77588,5.86206-2.72034q2.92091-1.37493,5.79688-2.8363c3.82861-1.95557,7.63818-3.95,11.29711-6.19336a83.82217,83.82217,0,0,0,10.5857-7.26868,39.9523,39.9523,0,0,0,4.66406-4.39111,19.94817,19.94817,0,0,0,3.54517-5.32983,18.60074,18.60074,0,0,1-3.17017,5.64538,39.884,39.884,0,0,1-4.54126,4.662,53.84686,53.84686,0,0,1-5.12988,3.99451q-2.65907,1.86713-5.44043,3.54467c-3.73194,2.1897-7.55786,4.20935-11.47656,6.02539A125.58533,125.58533,0,0,1,183.99877,419.56916Z" fill="#5e7c24"/><path d="M215.03026,403.04951a33.56679,33.56679,0,0,1-1.22558-8.63,24.34926,24.34926,0,0,1,.34424-4.38537,7.02148,7.02148,0,0,1,1.86914-3.95765,10.02231,10.02231,0,0,0-.48658.95752,7.47593,7.47593,0,0,0-.29345,1.01661,18.31292,18.31292,0,0,0-.31641,2.09191c-.10254,1.41492-.13183,2.83814-.11767,4.26673C214.83544,397.27033,214.99608,400.13605,215.03026,403.04951Z" fill="#5e7c24"/><path d="M228.83886,402.319a13.04775,13.04775,0,0,1-5.283.14734,9.11289,9.11289,0,0,1-2.5708-.85535,2.94017,2.94017,0,0,1-1.70679-2.07446,3.71577,3.71577,0,0,0,2.02612,1.3623,18.71816,18.71816,0,0,0,2.42774.58374C225.39818,401.78107,227.09618,401.96906,228.83886,402.319Z" fill="#5e7c24"/><path d="M223.93212,410.1175a15.771,15.771,0,0,1-3.53858.25122,17.52957,17.52957,0,0,1-3.54125-.46216,10.00016,10.00016,0,0,1-3.33765-1.42785,3.95227,3.95227,0,0,1-1.87793-3.02527,4.65313,4.65313,0,0,0,2.28906,2.36206,13.84236,13.84236,0,0,0,3.165,1.12048C219.30346,409.48127,221.5974,409.75141,223.93212,410.1175Z" fill="#5e7c24"/><path d="M207.376,408.154a27.37109,27.37109,0,0,1-3.65259-8.3645,23.19334,23.19334,0,0,1-.6665-4.558,13.768,13.768,0,0,1,.58935-4.551,27.09117,27.09117,0,0,0,.18848,4.48852,42.486,42.486,0,0,0,.85815,4.37806c.35181,1.449.793,2.87817,1.24024,4.31079C206.40063,405.28376,206.865,406.7187,207.376,408.154Z" fill="#5e7c24"/><path d="M212.2163,416.41193a9.25069,9.25069,0,0,1-2.938-.11853,9.88318,9.88318,0,0,1-2.822-.96289,7.33221,7.33221,0,0,1-2.33716-1.93237,5.05329,5.05329,0,0,1-.98511-2.80945,8.66229,8.66229,0,0,0,1.5752,2.29859,10.16076,10.16076,0,0,0,2.21509,1.56018,17.59927,17.59927,0,0,0,2.5542,1.09484C210.36718,415.85151,211.27563,416.13374,212.2163,416.41193Z" fill="#5e7c24"/><path d="M196.31713,397.692a29.99735,29.99735,0,0,0-.5459,3.988,22.15382,22.15382,0,0,0,.08032,3.94556,16.55788,16.55788,0,0,0,.84766,3.82946,21.53128,21.53128,0,0,0,1.675,3.64014,11.06261,11.06261,0,0,1-2.39795-3.34656,5.278,5.278,0,0,1-.40381-.963c-.10937-.33057-.238-.65747-.3313-.99353a15.6796,15.6796,0,0,1-.38306-2.05664A14.12123,14.12123,0,0,1,196.31713,397.692Z" fill="#5e7c24"/><path d="M199.334,418.75788a5.43029,5.43029,0,0,1-1.81787-.07092,7.53243,7.53243,0,0,1-1.73-.55078,6.33612,6.33612,0,0,1-1.53784-1.01062,3.649,3.649,0,0,1-1.03345-1.53015,20.97461,20.97461,0,0,0,2.99317,1.63476C197.22509,417.71442,198.269,418.14179,199.334,418.75788Z" fill="#5e7c24"/><path d="M189.44994,407.98359c.11768,1.58826.04712,3.10559.05518,4.61682-.01612.75476.0061,1.50281.04907,2.24609a8.91821,8.91821,0,0,0,.3772,2.23816,4.1471,4.1471,0,0,1-1.147-2.10949,9.20046,9.20046,0,0,1-.2788-2.37818,12.74731,12.74731,0,0,1,.23754-2.35351A9.51175,9.51175,0,0,1,189.44994,407.98359Z" fill="#5e7c24"/><path d="M193.86866,367.05805s-8.18918-28.45948,2.2952-43.03865c7.78035-10.81905,25.08358-4.38569,24.21547,8.91213C219.79814,341.83412,213.80871,353.638,193.86866,367.05805Z" fill="#8b9d36"/><path d="M193.86864,367.05805a125.62326,125.62326,0,0,1,2.28931-12.73889c.969-4.20886,2.156-8.36914,3.52881-12.47241q1.06567-3.06537,2.34643-6.05469a53.79918,53.79918,0,0,1,2.85059-5.84338,39.87718,39.87718,0,0,1,3.625-5.4054,18.59839,18.59839,0,0,1,4.87012-4.26623,19.93971,19.93971,0,0,0-4.48389,4.56811,39.97714,39.97714,0,0,0-3.335,5.46961,83.8325,83.8325,0,0,0-4.929,11.8573c-1.44043,4.043-2.6062,8.182-3.73,12.33166q-.843,3.11334-1.57983,6.25708C194.79638,362.84931,194.33471,364.95222,193.86864,367.05805Z" fill="#5e7c24"/><path d="M203.63256,333.28657c2.85791-.56763,5.69507-1.00147,8.50122-1.56079,1.40088-.28089,2.78735-.60291,4.15088-.99512a18.32742,18.32742,0,0,0,1.98144-.74109,7.50406,7.50406,0,0,0,.93433-.49683,10.06941,10.06941,0,0,0,.83667-.67358,7.02375,7.02375,0,0,1-3.48706,2.64526,24.383,24.383,0,0,1-4.22022,1.24134A33.57187,33.57187,0,0,1,203.63256,333.28657Z" fill="#5e7c24"/><path d="M201.49926,319.62421c.7019,1.63282,1.23608,3.25562,1.87182,4.82422a18.70386,18.70386,0,0,0,1.07178,2.25525,3.71682,3.71682,0,0,0,1.751,1.70166,2.94,2.94,0,0,1-2.38184-1.24255,9.10576,9.10576,0,0,1-1.36719-2.339A13.04507,13.04507,0,0,1,201.49926,319.62421Z" fill="#5e7c24"/><path d="M194.88061,326.03388c.8396,2.209,1.57714,4.39795,2.56713,6.45056a13.84543,13.84543,0,0,0,1.74927,2.86585,4.65381,4.65381,0,0,0,2.7832,1.75256,3.95262,3.95262,0,0,1-3.34741-1.2135,10.00055,10.00055,0,0,1-2.08569-2.97156,17.52908,17.52908,0,0,1-1.18262-3.36963A15.7733,15.7733,0,0,1,194.88061,326.03388Z" fill="#5e7c24"/><path d="M200.21679,341.82905c1.50976.204,3.00952.36218,4.50122.52563,1.49414.14221,2.9834.27918,4.47387.32447a42.48026,42.48026,0,0,0,4.46094-.06336,27.08249,27.08249,0,0,0,4.43091-.74133,13.76767,13.76767,0,0,1-4.33154,1.51538,23.18645,23.18645,0,0,1-4.59741.288A27.37206,27.37206,0,0,1,200.21679,341.82905Z" fill="#5e7c24"/><path d="M191.13793,338.79584c.46631.86316.92969,1.69385,1.41553,2.49976a17.61389,17.61389,0,0,0,1.59814,2.27356,10.16854,10.16854,0,0,0,1.98364,1.84558,8.65518,8.65518,0,0,0,2.574,1.06714,5.05323,5.05323,0,0,1-2.95215-.38452,7.3276,7.3276,0,0,1-2.3728-1.88819,9.88721,9.88721,0,0,1-1.52442-2.56274A9.2575,9.2575,0,0,1,191.13793,338.79584Z" fill="#5e7c24"/><path d="M212.73461,350.49213a14.11884,14.11884,0,0,1-7.56958,3.08667,15.64758,15.64758,0,0,1-2.09131.04944c-.34814-.022-.69458-.08044-1.04053-.11938a5.25567,5.25567,0,0,1-1.02563-.19641,11.06376,11.06376,0,0,1-3.76929-1.65613,21.54381,21.54381,0,0,0,3.90747.88818,16.55786,16.55786,0,0,0,3.92188.03967,22.14326,22.14326,0,0,0,3.87744-.73522A30.02184,30.02184,0,0,0,212.73461,350.49213Z" fill="#5e7c24"/><path d="M191.4995,351.8852c.82251.91492,1.45606,1.84839,2.13965,2.74365a20.99085,20.99085,0,0,0,2.2168,2.59156,3.64545,3.64545,0,0,1-1.71021-.69568,6.3309,6.3309,0,0,1-1.30615-1.29627,7.5307,7.5307,0,0,1-.89575-1.579A5.4278,5.4278,0,0,1,191.4995,351.8852Z" fill="#5e7c24"/><path d="M204.0808,359.3343a9.50044,9.50044,0,0,1-2.06543,1.15783,12.7539,12.7539,0,0,1-2.25415.71778,9.18492,9.18492,0,0,1-2.38452.21765,4.14571,4.14571,0,0,1-2.30054-.68714,8.91783,8.91783,0,0,0,2.26782-.0924c.73609-.11145,1.47266-.244,2.208-.41529C201.03222,359.9289,202.50243,359.54682,204.0808,359.3343Z" fill="#5e7c24"/><path d="M164.1634,422.85746v5.34632a1.85289,1.85289,0,0,0,1.83438,1.87086h36.75276a1.85289,1.85289,0,0,0,1.83439-1.87086v-4.927a1.85338,1.85338,0,0,0-1.81387-1.87073l-36.75276-.41936A1.85239,1.85239,0,0,0,164.1634,422.85746Z" fill="#d6694b"/><polygon points="165.918 430.075 167.225 457.669 200.659 457.669 202.831 430.075 165.918 430.075" fill="#e19974"/><path d="M523.56329,219.73375V457.66861H577.3555V219.73375a2.5812,2.5812,0,0,0-2.5812-2.5812H526.14449A2.5812,2.5812,0,0,0,523.56329,219.73375Z" fill="#935b50"/><rect x="526.5317" y="260.43922" width="47.85539" height="35.54308" rx="2.5812" fill="#e19974"/><rect x="526.5317" y="221.02435" width="47.85539" height="35.54308" rx="2.5812" fill="#e19974"/><path d="M571.3474,252.05646a1.59469,1.59469,0,1,1-2.25342,2.2533,9.55721,9.55721,0,0,0,.561-.89807,2.02625,2.02625,0,0,1,.32544-.46887C570.22265,252.69685,570.53637,252.62421,571.3474,252.05646Z" fill="#d6694b"/><path d="M569.094,223.28205a1.59469,1.59469,0,1,1,2.25342,2.2533,9.50158,9.50158,0,0,0-.89819-.561,2.02783,2.02783,0,0,1-.46875-.32544C569.73437,224.40681,569.66186,224.09309,569.094,223.28205Z" fill="#d6694b"/><path d="M529.57152,225.53535a1.59461,1.59461,0,1,1,2.25318-2.2533,9.5606,9.5606,0,0,0-.561.898,2.02869,2.02869,0,0,1-.32519.46887C530.69628,224.895,530.38256,224.96748,529.57152,225.53535Z" fill="#d6694b"/><path d="M531.8247,254.30976a1.59461,1.59461,0,1,1-2.25318-2.2533,9.52909,9.52909,0,0,0,.898.561,2.02846,2.02846,0,0,1,.469.32532C531.18432,253.185,531.25707,253.49873,531.8247,254.30976Z" fill="#d6694b"/><path d="M571.3474,291.47126a1.59469,1.59469,0,1,1-2.25342,2.2533,9.56192,9.56192,0,0,0,.561-.89795,2.02372,2.02372,0,0,1,.32544-.46888C570.22265,292.11164,570.53637,292.03913,571.3474,291.47126Z" fill="#d6694b"/><path d="M569.094,262.697a1.59469,1.59469,0,1,1,2.25342,2.25329,9.5341,9.5341,0,0,0-.89819-.56115,2.02417,2.02417,0,0,1-.46875-.32532C569.73437,263.82172,569.66186,263.50788,569.094,262.697Z" fill="#d6694b"/><path d="M529.57152,264.95026a1.59461,1.59461,0,1,1,2.25318-2.25329,9.55928,9.55928,0,0,0-.561.89795,2.03133,2.03133,0,0,1-.32519.46887C530.69628,264.30988,530.38256,264.38239,529.57152,264.95026Z" fill="#d6694b"/><path d="M531.8247,293.72456a1.59461,1.59461,0,1,1-2.25318-2.2533,9.51092,9.51092,0,0,0,.898.56116,2.02143,2.02143,0,0,1,.469.32531C531.18432,292.5998,531.25707,292.91364,531.8247,293.72456Z" fill="#d6694b"/><rect x="526.5317" y="299.8541" width="47.85539" height="35.54308" rx="2.5812" fill="#e19974"/><rect x="526.5317" y="339.26897" width="47.85539" height="35.54308" rx="2.5812" fill="#e19974"/><rect x="526.5317" y="378.68384" width="47.85539" height="35.54308" rx="2.5812" fill="#e19974"/><rect x="526.5317" y="418.09871" width="47.85539" height="35.54308" rx="2.5812" fill="#e19974"/><rect x="543.10298" y="233.95614" width="14.71282" height="5.42051" rx="1" fill="#d6694b"/><rect x="543.10298" y="312.78589" width="14.71282" height="5.42051" rx="1" fill="#d6694b"/><rect x="543.10298" y="352.20076" width="14.71282" height="5.42051" rx="1" fill="#d6694b"/><rect x="543.10298" y="431.03051" width="14.71282" height="5.42051" rx="1" fill="#d6694b"/><rect x="543.10298" y="391.61564" width="14.71282" height="5.42051" rx="1" fill="#d6694b"/><rect x="543.10298" y="273.37102" width="14.71282" height="5.42051" rx="1" fill="#d6694b"/><path d="M571.3474,330.88618a1.59469,1.59469,0,1,1-2.25342,2.25329,9.55928,9.55928,0,0,0,.561-.898,2.021,2.021,0,0,1,.32544-.46887C570.22265,331.52656,570.53637,331.45405,571.3474,330.88618Z" fill="#d6694b"/><path d="M569.094,302.11176a1.59469,1.59469,0,1,1,2.25342,2.2533,9.55514,9.55514,0,0,0-.89819-.561,2.03185,2.03185,0,0,1-.46875-.32531C569.73437,303.23652,569.66186,302.9228,569.094,302.11176Z" fill="#d6694b"/><path d="M529.57152,304.36506a1.59461,1.59461,0,1,1,2.25318-2.2533,9.54276,9.54276,0,0,0-.561.89807,2.03429,2.03429,0,0,1-.32519.46888C530.69628,303.72468,530.38256,303.79731,529.57152,304.36506Z" fill="#d6694b"/><path d="M531.8247,333.13947a1.5946,1.5946,0,1,1-2.25318-2.25329,9.52847,9.52847,0,0,0,.898.561,2.02477,2.02477,0,0,1,.469.32544C531.18432,332.01472,531.25707,332.32844,531.8247,333.13947Z" fill="#d6694b"/><path d="M571.3474,370.30109a1.59469,1.59469,0,1,1-2.25342,2.2533,9.55721,9.55721,0,0,0,.561-.89807,2.02625,2.02625,0,0,1,.32544-.46887C570.22265,370.94135,570.53637,370.86884,571.3474,370.30109Z" fill="#d6694b"/><path d="M569.094,341.52668a1.59469,1.59469,0,1,1,2.25342,2.2533,9.50158,9.50158,0,0,0-.89819-.561,2.02783,2.02783,0,0,1-.46875-.32544C569.73437,342.65144,569.66186,342.33771,569.094,341.52668Z" fill="#d6694b"/><path d="M529.57152,343.78a1.59461,1.59461,0,1,1,2.25318-2.2533,9.55928,9.55928,0,0,0-.561.89795,2.02869,2.02869,0,0,1-.32519.46887C530.69628,343.13959,530.38256,343.2121,529.57152,343.78Z" fill="#d6694b"/><path d="M531.8247,372.55439a1.59461,1.59461,0,1,1-2.25318-2.2533,9.52909,9.52909,0,0,0,.898.561,2.02846,2.02846,0,0,1,.469.32532C531.18432,371.42951,531.25707,371.74335,531.8247,372.55439Z" fill="#d6694b"/><path d="M571.3474,449.13081a1.59469,1.59469,0,1,1-2.25342,2.25329,9.55928,9.55928,0,0,0,.561-.89795,2.02468,2.02468,0,0,1,.32544-.469C570.22265,449.77119,570.53637,449.69868,571.3474,449.13081Z" fill="#d6694b"/><path d="M569.094,420.35639a1.59469,1.59469,0,1,1,2.25342,2.2533,9.55514,9.55514,0,0,0-.89819-.561,2.03154,2.03154,0,0,1-.46875-.32532C569.73437,421.48115,569.66186,421.16743,569.094,420.35639Z" fill="#d6694b"/><path d="M529.57152,422.60969a1.59461,1.59461,0,1,1,2.25318-2.2533,9.54276,9.54276,0,0,0-.561.89807,2.034,2.034,0,0,1-.32519.46887C530.69628,421.96931,530.38256,422.04194,529.57152,422.60969Z" fill="#d6694b"/><path d="M531.8247,451.3841a1.5946,1.5946,0,1,1-2.25318-2.25329,9.52847,9.52847,0,0,0,.898.561,2.02846,2.02846,0,0,1,.469.32532C531.18432,450.25935,531.25707,450.57307,531.8247,451.3841Z" fill="#d6694b"/><path d="M571.3474,409.71589a1.59469,1.59469,0,1,1-2.25342,2.25329,9.56077,9.56077,0,0,0,.561-.89794,2.02372,2.02372,0,0,1,.32544-.46888C570.22265,410.35627,570.53637,410.28376,571.3474,409.71589Z" fill="#d6694b"/><path d="M569.094,380.9416a1.59469,1.59469,0,1,1,2.25342,2.25329,9.5341,9.5341,0,0,0-.89819-.56115,2.02479,2.02479,0,0,1-.46875-.32532C569.73437,382.06635,569.66186,381.75251,569.094,380.9416Z" fill="#d6694b"/><path d="M529.57152,383.19489a1.59461,1.59461,0,1,1,2.25318-2.25329,9.54351,9.54351,0,0,0-.561.89795,2.03133,2.03133,0,0,1-.32519.46887C530.69628,382.55451,530.38256,382.627,529.57152,383.19489Z" fill="#d6694b"/><path d="M531.8247,411.96918a1.59461,1.59461,0,1,1-2.25318-2.25329,9.51092,9.51092,0,0,0,.898.56116,2.02143,2.02143,0,0,1,.469.32531C531.18432,410.84443,531.25707,411.15827,531.8247,411.96918Z" fill="#d6694b"/><path d="M364.059,458.81758c-3.28637-2.1949-3.73424-6.57129-1.03392-9.936l11.35809-14.15273a1.55534,1.55534,0,0,1,1.724-.42579l8.08638,3.502a1.55914,1.55914,0,0,0,1.78747-.502l4.716-6.07149a1.41,1.41,0,0,1,2.3429.024l4.789,10.21145a1.30241,1.30241,0,0,1-.75859,1.66518l-33.00132,15.69209Z" fill="#6c7fd8"/><path d="M286.05018,451.18118c-1.83472-3.683.28064-7.66785,4.7865-9.0564l18.9525-5.84051a1.84713,1.84713,0,0,1,1.87751.5848l5.616,7.4405a1.85379,1.85379,0,0,0,1.98175.55458l7.98251-2.5917c1.083-.35161,2.31581.3816,2.20185,1.30955l-1.39488,11.35767a1.40882,1.40882,0,0,1-1.68348,1.00506l-40.31462-4.75229Z" fill="#6c7fd8"/><rect x="100.00039" y="457.66895" width="500" height="2" fill="#935b50"/></svg>