<svg width="345" height="226" viewBox="0 0 345 226" fill="none" xmlns="http://www.w3.org/2000/svg">
<g clip-path="url(#clip0)">
<path fill-rule="evenodd" clip-rule="evenodd" d="M16.7074 183.12C16.7074 183.12 -4.35836 188.267 0.818847 208.388C3.52421 218.902 23.3386 221.333 51.1148 221.333C51.7669 221.333 52.4102 221.329 53.0579 221.325C53.6528 221.522 54.252 221.715 54.86 221.895C87.505 231.519 132.073 221.913 172.38 209.832C203.937 200.375 275.387 202.073 297.686 202.073C374.811 202.073 333.341 183.12 333.341 183.12H16.7074Z" fill="url(#paint0_linear)"/>
<path opacity="0.5" d="M323.127 196.715H131.804V182.711H309.067L323.127 196.715Z" fill="#000640"/>
<path opacity="0.5" fill-rule="evenodd" clip-rule="evenodd" d="M166.503 212.298C166.503 216.515 135.373 219.938 96.9738 219.938C58.5744 219.938 27.4451 216.519 27.4451 212.298C27.4451 208.081 58.5744 204.658 96.9738 204.658C135.378 204.662 166.503 208.081 166.503 212.298Z" fill="#000640"/>
<path d="M12.2792 184.19H339.307C339.307 184.19 350.63 107.425 300.374 60.0308C250.118 12.6366 177.209 49.3496 177.209 49.3496C177.209 49.3496 136.598 -20.4296 76.6924 5.96195C-20.2821 48.6825 12.2792 184.19 12.2792 184.19Z" fill="url(#paint1_linear)"/>
<path opacity="0.8" d="M68.1357 22.8C68.096 22.8 68.0564 22.7957 68.0167 22.7957C61.8922 22.7957 56.9265 27.7413 56.9265 33.8411C56.9265 39.9409 61.8922 44.8866 68.0167 44.8866C74.1413 44.8866 79.107 39.9409 79.107 33.8411H68.1357V22.8Z" fill="url(#paint2_linear)"/>
<path d="M42.9767 83.1004H39.3416V115.785H42.9767V83.1004Z" fill="url(#paint3_linear)"/>
<path d="M49.9913 94.2029H46.3562V115.789H49.9913V94.2029Z" fill="url(#paint4_linear)"/>
<path d="M57.0102 87.164H53.3752V115.952H57.0102V87.164Z" fill="url(#paint5_linear)"/>
<path d="M64.0292 84.3642H60.3941V115.789H64.0292V84.3642Z" fill="url(#paint6_linear)"/>
<path d="M71.0437 94.8699H67.4087V115.789H71.0437V94.8699Z" fill="url(#paint7_linear)"/>
<path d="M78.0627 98.973H74.4276V115.789H78.0627V98.973Z" fill="url(#paint8_linear)"/>
<path d="M85.0817 86.4575H81.4466V115.789H85.0817V86.4575Z" fill="url(#paint9_linear)"/>
<path d="M92.0962 91.7454H88.4612V115.789H92.0962V91.7454Z" fill="url(#paint10_linear)"/>
<path d="M99.1152 87.5195H95.4801V115.789H99.1152V87.5195Z" fill="url(#paint11_linear)"/>
<path d="M106.134 96.5287H102.499V115.789H106.134V96.5287Z" fill="url(#paint12_linear)"/>
<path d="M113.153 92.8644H109.518V115.789H113.153V92.8644Z" fill="url(#paint13_linear)"/>
<path d="M110.902 90.5123C110.902 90.5167 110.827 90.5079 110.681 90.486C110.523 90.4597 110.311 90.429 110.047 90.3851C109.769 90.3324 109.421 90.2885 109.011 90.249C108.804 90.2271 108.584 90.2052 108.346 90.1788C108.108 90.17 107.857 90.1569 107.588 90.1437C106.517 90.0954 105.2 90.1262 103.693 90.3544C102.191 90.5738 100.494 90.9863 98.7186 91.7016C96.9474 92.4169 95.088 93.4262 93.3564 94.8568C91.5983 96.2611 90.065 98.1261 88.5537 100.158C87.0292 102.172 85.4738 104.384 83.3104 106.166C82.2397 107.056 81.0236 107.829 79.6709 108.355C78.3183 108.873 76.8114 109.097 75.3309 108.886C73.8416 108.706 72.4625 108.096 71.2376 107.342C70.0215 106.561 68.942 105.626 67.9903 104.612C66.0692 102.589 64.6769 100.29 63.2052 98.2358C61.7512 96.1733 60.2179 94.2907 58.4246 92.9347C57.539 92.2457 56.574 91.7499 55.6179 91.3461C54.6529 90.9599 53.6748 90.723 52.7363 90.5738C50.846 90.2929 49.0924 90.4553 47.6163 90.7932C46.1359 91.1355 44.9286 91.6752 43.9945 92.1887C43.078 92.7416 42.4127 93.2463 41.9941 93.6193C41.7959 93.7992 41.6372 93.944 41.5183 94.0493C41.4081 94.1459 41.3508 94.1942 41.3462 94.1898C41.342 94.1854 41.3949 94.1327 41.4962 94.0274C41.6108 93.9133 41.7606 93.7641 41.9545 93.5754C42.3642 93.1848 43.0208 92.6626 43.9372 92.0878C44.8713 91.5524 46.083 90.9907 47.5811 90.6264C49.0704 90.271 50.846 90.0867 52.7715 90.3587C53.7276 90.5036 54.7234 90.7361 55.7104 91.1267C56.6842 91.5304 57.6799 92.0395 58.5832 92.7328C60.4162 94.102 61.9715 96.0022 63.4388 98.0691C64.9192 100.132 66.316 102.414 68.2106 104.401C69.1491 105.402 70.2154 106.315 71.4006 107.078C72.5991 107.816 73.9342 108.408 75.3706 108.579C76.7981 108.781 78.2478 108.566 79.5608 108.066C80.8738 107.557 82.0635 106.802 83.1165 105.929C85.2403 104.182 86.7912 101.992 88.3246 99.978C89.0912 98.9687 89.8491 97.9857 90.651 97.0817C91.0564 96.6341 91.4529 96.1909 91.8891 95.7959C92.105 95.594 92.3165 95.3966 92.528 95.1991C92.7439 95.0104 92.9686 94.8349 93.1889 94.6506C94.9514 93.2112 96.8372 92.1975 98.6305 91.4909C100.428 90.78 102.142 90.3807 103.662 90.1744C105.182 89.9638 106.509 89.9462 107.584 90.0121C107.853 90.0296 108.108 90.0428 108.346 90.0603C108.584 90.0911 108.804 90.1174 109.011 90.1437C109.426 90.192 109.769 90.2446 110.047 90.3061C110.311 90.3631 110.523 90.4026 110.677 90.4377C110.831 90.4904 110.902 90.5079 110.902 90.5123ZM35.3365 118.067C35.2527 118.067 35.1823 108.746 35.1823 97.2528C35.1823 85.7554 35.2483 76.4345 35.3365 76.4345C35.4202 76.4345 35.4907 85.751 35.4907 97.2528C35.4907 108.746 35.4246 118.067 35.3365 118.067ZM114.634 118.067C114.634 118.15 97.3924 118.22 76.1284 118.22C54.8556 118.22 37.6188 118.155 37.6188 118.067C37.6188 117.983 54.8556 117.913 76.1284 117.913C97.3924 117.913 114.634 117.983 114.634 118.067ZM44.5232 120.638C44.5232 120.722 43.316 120.792 41.8267 120.792C40.3374 120.792 39.1301 120.722 39.1301 120.638C39.1301 120.555 40.3374 120.485 41.8267 120.485C43.316 120.485 44.5232 120.555 44.5232 120.638ZM53.4721 120.77C53.4721 120.853 52.0269 120.924 50.2468 120.924C48.4667 120.924 47.0215 120.853 47.0215 120.77C47.0215 120.687 48.4667 120.616 50.2468 120.616C52.0269 120.616 53.4721 120.687 53.4721 120.77ZM61.1035 120.77C61.1035 120.853 59.6583 120.924 57.8782 120.924C56.0981 120.924 54.6529 120.853 54.6529 120.77C54.6529 120.687 56.0981 120.616 57.8782 120.616C59.6627 120.616 61.1035 120.687 61.1035 120.77ZM68.7349 120.77C68.7349 120.853 67.2897 120.924 65.5096 120.924C63.7296 120.924 62.2844 120.853 62.2844 120.77C62.2844 120.687 63.7252 120.616 65.5096 120.616C67.2941 120.616 68.7349 120.687 68.7349 120.77ZM76.3707 120.77C76.3707 120.853 74.9255 120.924 73.1455 120.924C71.3654 120.924 69.9202 120.853 69.9202 120.77C69.9202 120.687 71.3654 120.616 73.1455 120.616C74.9255 120.616 76.3707 120.687 76.3707 120.77ZM84.0022 120.77C84.0022 120.853 82.557 120.924 80.7769 120.924C78.9968 120.924 77.5516 120.853 77.5516 120.77C77.5516 120.687 78.9968 120.616 80.7769 120.616C82.557 120.616 84.0022 120.687 84.0022 120.77ZM91.6336 120.77C91.6336 120.853 90.1884 120.924 88.4083 120.924C86.6282 120.924 85.183 120.853 85.183 120.77C85.183 120.687 86.6282 120.616 88.4083 120.616C90.1884 120.616 91.6336 120.687 91.6336 120.77ZM99.265 120.77C99.265 120.853 97.8198 120.924 96.0397 120.924C94.2596 120.924 92.8144 120.853 92.8144 120.77C92.8144 120.687 94.2596 120.616 96.0397 120.616C97.8198 120.616 99.265 120.687 99.265 120.77ZM106.896 120.77C106.896 120.853 105.451 120.924 103.671 120.924C101.891 120.924 100.446 120.853 100.446 120.77C100.446 120.687 101.891 120.616 103.671 120.616C105.456 120.616 106.896 120.687 106.896 120.77ZM114.528 120.77C114.528 120.853 113.083 120.924 111.303 120.924C109.522 120.924 108.077 120.853 108.077 120.77C108.077 120.687 109.522 120.616 111.303 120.616C113.087 120.616 114.528 120.687 114.528 120.77Z" fill="white"/>
<path d="M64.1834 98.6264C64.1746 98.5869 64.4962 98.6352 64.6196 99.0477C64.6725 99.2408 64.6725 99.5128 64.4742 99.7498C64.2803 99.9912 63.8926 100.044 63.6018 99.9034C63.3066 99.7761 63.0863 99.4558 63.1392 99.1486C63.1832 98.8502 63.3903 98.6659 63.571 98.5781C63.9631 98.3938 64.2142 98.6001 64.179 98.622C64.1658 98.6659 63.9411 98.5825 63.6811 98.7624C63.5577 98.8502 63.4344 99.0038 63.4211 99.1793C63.4035 99.3505 63.5269 99.5348 63.7296 99.6269C63.9323 99.7147 64.1526 99.6884 64.2715 99.5611C64.3949 99.4382 64.4301 99.2408 64.4125 99.0916C64.3729 98.78 64.157 98.6703 64.1834 98.6264ZM99.3135 90.7361C99.3135 90.7186 99.384 90.6923 99.5206 90.7142C99.6528 90.7361 99.8422 90.8239 99.9964 91.017C100.151 91.2013 100.265 91.5348 100.124 91.8683C99.9876 92.1887 99.644 92.4388 99.2342 92.4388C98.8068 92.4388 98.494 92.0965 98.4058 91.785C98.3001 91.4602 98.4014 91.1223 98.5777 90.9468C98.939 90.5869 99.2782 90.644 99.2694 90.6703C99.2871 90.7186 98.983 90.7625 98.7451 91.0828C98.6305 91.2364 98.5865 91.4646 98.6702 91.6972C98.7539 91.9254 98.9698 92.136 99.2386 92.136C99.5074 92.1404 99.7673 91.9605 99.8687 91.7542C99.9744 91.5436 99.9215 91.3066 99.8202 91.1443C99.6131 90.802 99.3047 90.7844 99.3135 90.7361Z" fill="white"/>
<path d="M99.8863 75.4778C99.8026 75.4778 99.7321 75.2804 99.7321 75.039C99.7321 74.7976 99.8026 74.6002 99.8863 74.6002C99.97 74.6002 100.04 74.7976 100.04 75.039C100.036 75.2804 99.97 75.4778 99.8863 75.4778ZM99.8863 79.2781C99.8026 79.2781 99.7321 78.8525 99.7321 78.3259C99.7321 77.7993 99.8026 77.3736 99.8863 77.3736C99.97 77.3736 100.04 77.7993 100.04 78.3259C100.036 78.8525 99.97 79.2781 99.8863 79.2781ZM99.8863 83.0828C99.8026 83.0828 99.7321 82.6572 99.7321 82.1306C99.7321 81.604 99.8026 81.1783 99.8863 81.1783C99.97 81.1783 100.04 81.604 100.04 82.1306C100.036 82.6572 99.97 83.0828 99.8863 83.0828ZM99.8863 86.8875C99.8026 86.8875 99.7321 86.4619 99.7321 85.9353C99.7321 85.4087 99.8026 84.983 99.8863 84.983C99.97 84.983 100.04 85.4087 100.04 85.9353C100.036 86.4619 99.97 86.8875 99.8863 86.8875ZM99.8863 89.6654C99.8026 89.6654 99.7321 89.4679 99.7321 89.2265C99.7321 88.9852 99.8026 88.7877 99.8863 88.7877C99.97 88.7877 100.04 88.9852 100.04 89.2265C100.036 89.4679 99.97 89.6654 99.8863 89.6654Z" fill="white"/>
<path d="M125.266 179.447C125.266 179.447 120.771 185.516 105.513 185.151C94.3918 184.888 83.3677 176.502 83.3677 176.502C83.3677 176.502 102.239 164.048 125.266 179.447Z" fill="#00759F"/>
<path d="M125.028 180.083C125.028 180.083 115.823 181.07 103.543 167.093C94.5945 156.904 93.0568 140.096 93.0568 140.096C93.0568 140.096 119.917 146.714 125.028 180.083Z" fill="#005CB4"/>
<path d="M124.613 179.833C124.613 179.833 116.224 175.936 112.981 157.645C110.615 144.313 118.04 129.139 118.04 129.139C118.04 129.139 137.572 148.645 124.613 179.833Z" fill="#741AAC"/>
<path d="M290.544 183.124C290.544 183.124 295.012 189.158 310.173 188.794C321.224 188.531 332.178 180.197 332.178 180.197C332.178 180.197 313.425 167.822 290.544 183.124Z" fill="#00759F"/>
<path d="M290.777 183.756C290.777 183.756 299.92 184.739 312.125 170.845C321.021 160.722 322.546 144.015 322.546 144.015C322.546 144.015 295.858 150.598 290.777 183.756Z" fill="#005CB4"/>
<path d="M291.192 183.51C291.192 183.51 299.528 179.635 302.749 161.463C305.097 148.215 297.722 133.136 297.722 133.136C297.722 133.136 278.313 152.52 291.192 183.51Z" fill="#741AAC"/>
<path opacity="0.3" d="M42.6859 102.76L123.292 67.9694L224.809 186.407L40.1171 109.466" fill="#83FFFF"/>
<path d="M293.007 67.9694H123.292V185.682H293.007V67.9694Z" fill="url(#paint14_linear)"/>
<path d="M286.318 74.824H135.285V138.951H286.318V74.824Z" fill="url(#paint15_linear)"/>
<path d="M213.653 142.497H135.285V179.837H213.653V142.497Z" fill="url(#paint16_linear)"/>
<path d="M185.665 109.119H177.76V137.384H185.665V109.119Z" fill="#A600A9"/>
<path d="M194.6 103.765H186.696V137.384H194.6V103.765Z" fill="url(#paint17_linear)"/>
<path d="M203.571 85.4394H195.667V137.389H203.571V85.4394Z" fill="#A600A9"/>
<path d="M129.584 82.6615C130.562 82.6615 131.355 81.8717 131.355 80.8974C131.355 79.9231 130.562 79.1333 129.584 79.1333C128.605 79.1333 127.812 79.9231 127.812 80.8974C127.812 81.8717 128.605 82.6615 129.584 82.6615Z" fill="url(#paint18_linear)"/>
<path d="M129.584 94.6111C130.562 94.6111 131.355 93.8212 131.355 92.8469C131.355 91.8726 130.562 91.0828 129.584 91.0828C128.605 91.0828 127.812 91.8726 127.812 92.8469C127.812 93.8212 128.605 94.6111 129.584 94.6111Z" fill="url(#paint19_linear)"/>
<path d="M129.584 107.732C130.562 107.732 131.355 106.942 131.355 105.968C131.355 104.994 130.562 104.204 129.584 104.204C128.605 104.204 127.812 104.994 127.812 105.968C127.812 106.942 128.605 107.732 129.584 107.732Z" fill="url(#paint20_linear)"/>
<path d="M272.792 156.026C266.883 157.742 266.905 155.012 259.855 153.819C252.81 152.625 250.624 155.012 247.227 157.483C243.835 159.949 238.587 157.364 235.353 156.267C232.114 155.17 227.268 156.895 223.491 160.002C222.253 161.024 220.522 161.599 218.759 161.92V175.765H285.803V146.824C281.467 149.123 277.502 154.657 272.792 156.026Z" fill="url(#paint21_linear)"/>
<path d="M272.792 160.094C266.883 161.81 266.905 159.08 259.855 157.887C252.81 156.693 250.624 159.08 247.227 161.551C243.83 164.022 238.587 161.432 235.353 160.335C232.114 159.238 227.268 160.963 223.491 164.07C222.253 165.092 220.522 165.667 218.759 165.988V179.833H285.803V150.892C281.467 153.195 277.502 158.725 272.792 160.094Z" fill="#00759F"/>
<path d="M150.698 107.342H142.793V137.384H150.698V107.342Z" fill="#A600A9"/>
<path d="M159.395 98.4991H151.491V137.384H159.395V98.4991Z" fill="url(#paint22_linear)"/>
<path d="M168.031 118.611H160.127V137.389H168.031V118.611Z" fill="url(#paint23_linear)"/>
<path d="M176.786 124.061H168.882V137.384H176.786V124.061Z" fill="url(#paint24_linear)"/>
<path d="M195.927 156.482H193.34V175.923H195.927V156.482Z" fill="url(#paint25_linear)"/>
<path d="M191.944 164.662H189.357V175.918H191.944V164.662Z" fill="#005CB4"/>
<path d="M187.96 162.907H185.374V175.923H187.96V162.907Z" fill="#A600A9"/>
<path d="M183.977 170.674H181.391V175.923H183.977V170.674Z" fill="#005CB4"/>
<path d="M203.897 152.234H201.311V175.918H203.897V152.234Z" fill="#00759F"/>
<path d="M199.91 154.402H197.323V175.923H199.91V154.402Z" fill="url(#paint26_linear)"/>
<path d="M211.864 149.891H209.277V175.918H211.864V149.891Z" fill="#A600A9"/>
<path d="M207.881 144.752H205.294V175.923H207.881V144.752Z" fill="#005CB4"/>
<path d="M183.907 178.363C183.907 178.424 183.396 178.472 182.761 178.472C182.131 178.472 181.616 178.424 181.616 178.363C181.616 178.301 182.127 178.249 182.761 178.249C183.396 178.249 183.907 178.301 183.907 178.363ZM187.837 178.363C187.837 178.424 187.326 178.472 186.691 178.472C186.061 178.472 185.55 178.424 185.55 178.363C185.55 178.301 186.061 178.249 186.691 178.249C187.326 178.249 187.837 178.301 187.837 178.363ZM191.763 178.363C191.763 178.424 191.252 178.472 190.622 178.472C189.992 178.472 189.481 178.424 189.481 178.363C189.481 178.301 189.992 178.249 190.622 178.249C191.252 178.249 191.763 178.301 191.763 178.363ZM195.689 178.363C195.689 178.424 195.178 178.472 194.548 178.472C193.917 178.472 193.402 178.424 193.402 178.363C193.402 178.301 193.913 178.249 194.548 178.249C195.178 178.249 195.689 178.301 195.689 178.363ZM199.619 178.363C199.619 178.424 199.108 178.472 198.478 178.472C197.848 178.472 197.332 178.424 197.332 178.363C197.332 178.301 197.843 178.249 198.478 178.249C199.108 178.249 199.619 178.301 199.619 178.363ZM203.545 178.363C203.545 178.424 203.034 178.472 202.399 178.472C201.769 178.472 201.254 178.424 201.254 178.363C201.254 178.301 201.765 178.249 202.399 178.249C203.034 178.249 203.545 178.301 203.545 178.363ZM207.475 178.363C207.475 178.424 206.964 178.472 206.33 178.472C205.699 178.472 205.188 178.424 205.188 178.363C205.188 178.301 205.699 178.249 206.33 178.249C206.96 178.249 207.475 178.301 207.475 178.363ZM211.401 178.363C211.401 178.424 210.89 178.472 210.255 178.472C209.625 178.472 209.114 178.424 209.114 178.363C209.114 178.301 209.625 178.249 210.255 178.249C210.89 178.249 211.401 178.301 211.401 178.363Z" fill="#1A2E35"/>
<path opacity="0.5" d="M44.8978 196.201C58.1892 196.201 68.964 194.624 68.964 192.677C68.964 190.731 58.1892 189.154 44.8978 189.154C31.6063 189.154 20.8315 190.731 20.8315 192.677C20.8315 194.624 31.6063 196.201 44.8978 196.201Z" fill="#000640"/>
<path d="M47.5326 112.472L44.325 126.506C44.2368 126.887 44.4968 127.265 44.889 127.317L54.8732 128.744C55.2213 128.792 55.5474 128.568 55.6267 128.23L58.8343 114.201C58.9225 113.819 58.6625 113.441 58.2748 113.384L48.2905 111.958C47.938 111.906 47.6119 112.129 47.5326 112.472Z" fill="black"/>
<path d="M48.1583 112.924L45.0872 126.356L55.001 127.774L58.0721 114.341L48.1583 112.924Z" fill="url(#paint27_linear)"/>
<path d="M57.019 115.328L48.5989 114.126" stroke="#A1D2F0" stroke-width="1.481" stroke-linecap="round" stroke-linejoin="round"/>
<path d="M56.7371 116.601L48.3125 115.394" stroke="#A1D2F0" stroke-width="1.481" stroke-linecap="round" stroke-linejoin="round"/>
<path d="M53.2297 117.654L47.9644 116.899" stroke="#A1D2F0" stroke-width="1.481" stroke-linecap="round" stroke-linejoin="round"/>
<path d="M52.8552 118.743L47.5899 117.992" stroke="#A1D2F0" stroke-width="1.481" stroke-linecap="round" stroke-linejoin="round"/>
<path d="M52.4807 119.835L47.2154 119.085" stroke="#A1D2F0" stroke-width="1.481" stroke-linecap="round" stroke-linejoin="round"/>
<path d="M54.4106 125.865L49.1497 125.115" stroke="#A1D2F0" stroke-width="1.481" stroke-linecap="round" stroke-linejoin="round"/>
<path d="M43.6905 126.668C44.2545 126.405 44.6775 125.913 45.0784 125.435C45.475 124.965 45.8715 124.496 46.2681 124.026C46.4267 123.842 46.5897 123.636 46.6073 123.394C45.942 123.342 45.5146 124.202 44.8493 124.25C45.1577 123.162 45.6027 122.108 46.1711 121.125C46.3077 120.884 46.4575 120.608 46.3606 120.349C45.6424 120.621 45.0344 121.13 44.5144 121.692C44.1487 122.086 43.8095 122.512 43.5142 122.96C42.6374 124.281 42.0911 125.799 41.7209 127.344" fill="url(#paint28_linear)"/>
<path d="M40.8485 146.468L37.7466 153.551C39.0552 155.749 39.8087 158.347 39.91 160.976C39.9629 162.345 39.8395 163.71 39.8792 165.079C39.8836 165.176 39.8968 165.281 39.9188 165.378C40.333 163.35 40.6458 161.678 40.7648 160.594C41.1041 157.549 41.1041 152.708 40.9983 146.459C40.9543 146.459 40.9014 146.459 40.8485 146.468Z" fill="#F2A181"/>
<path d="M40.8307 137.972L33.7016 131.982C33.7016 131.982 30.3837 136.463 31.6351 140.785C32.2519 142.909 33.023 143.967 33.3579 144.976C33.6707 145.92 35.8165 159.256 35.6579 160.234C35.4993 161.209 34.3449 163.938 33.9042 166.808C33.4196 169.963 33.4548 179.631 33.1508 183.541H33.1464C33.1464 183.541 32.904 186.459 32.556 187.095C32.2123 187.732 31.7232 188.443 31.6395 189.307C31.591 189.807 31.8686 190.338 32.4458 190.632C33.023 190.926 33.4108 190.619 33.6178 190.646C34.8251 190.79 35.041 191.703 37.1119 192.045C37.7508 192.151 38.729 191.936 39.2885 191.497C39.5088 191.326 39.5 191.049 39.3767 190.856C39.2533 190.668 37.7244 190.145 37.037 189.702C36.3805 189.281 35.7372 188.122 35.5565 187.727C35.5125 187.626 35.5213 187.337 35.5609 186.973C35.6535 186.349 35.7592 185.7 35.8738 185.029C35.9663 184.55 36.0412 184.204 36.0412 184.204L36.0192 184.199C37.5305 175.703 40.3416 164.478 40.7734 160.607C41.2493 156.285 41.0554 148.39 40.8307 137.972Z" fill="url(#paint29_linear)"/>
<path d="M39.4474 191.637C39.5972 191.378 39.6368 190.992 39.4958 190.896C39.302 190.764 38.6058 190.308 38.2048 190.123C37.8039 189.939 37.165 189.777 37.3897 189.9C37.6144 190.022 37.2002 190.474 36.8257 190.448C35.5259 190.369 34.5698 189.509 33.8296 189.325C32.7633 189.057 32.3138 187.802 32.2654 187.6C32.0627 187.727 31.5957 188.741 31.4987 189.057C31.415 189.347 31.2564 189.869 31.3401 190.167C31.3974 190.374 31.5207 190.79 31.4591 191.229C31.4591 191.229 31.6706 191.392 32.2257 191.506C32.5782 191.58 33.0541 191.519 33.0541 191.519L33.1466 190.852C33.1466 190.852 33.4374 190.843 33.8075 190.918C34.1776 190.992 34.7813 191.343 34.8165 191.387C34.9663 191.563 35.0853 191.888 35.2792 191.984C35.7991 192.243 36.3234 192.37 36.9843 192.41C38.3767 192.48 39.1874 192.076 39.4474 191.637Z" fill="black"/>
<path d="M50.564 191.506C50.4098 191.339 48.7575 191.071 47.9865 190.747C47.2506 190.439 46.3562 189.452 46.1799 189.031C46.0037 188.614 46.0478 186.49 46.0698 185.599C46.224 179.46 47.3652 164.456 47.5282 160.866C47.8146 154.622 46.9995 148.175 44.5893 138.152L35.6052 131.284C35.6052 131.284 33.0893 135.94 33.9309 140.395C34.42 142.979 36.5702 143.374 36.9359 144.379C37.3016 145.384 42.7344 161.573 42.7344 161.573C42.7344 161.573 41.6769 165.075 41.6152 168.91C41.5623 172.184 43.0516 182.058 43.3292 185.818C43.36 186.551 43.4878 188.315 43.2719 188.873C43.0075 189.557 42.3246 190.365 42.3598 191.229C42.3775 191.734 42.7432 192.208 43.3821 192.405C44.0165 192.603 44.3734 192.234 44.5937 192.225C45.8583 192.173 46.2108 193.042 48.3962 193.037C49.0704 193.037 50.0485 192.669 50.5685 192.138C50.7623 191.949 50.7183 191.677 50.564 191.506Z" fill="url(#paint30_linear)"/>
<path d="M50.7535 192.278C50.8725 191.997 50.8549 191.607 50.7006 191.536C50.4803 191.44 49.7005 191.098 49.2598 190.984C48.8192 190.865 48.1407 190.808 48.3874 190.891C48.6342 190.975 48.2729 191.488 47.8807 191.528C46.528 191.659 45.4177 190.966 44.629 190.905C43.4878 190.817 43.0692 189.65 42.9943 189.452C42.8049 189.61 42.2409 190.685 42.188 191.019C42.1395 191.317 42.0558 191.861 42.1836 192.142C42.2717 192.335 42.4612 192.73 42.4568 193.169C42.4568 193.169 42.6991 193.292 43.2895 193.318C43.6641 193.331 44.1443 193.195 44.1443 193.195V192.519C44.1443 192.519 44.4439 192.462 44.8361 192.476C45.2282 192.489 45.7129 192.691 45.9508 192.866C46.1359 193.007 46.3298 193.239 46.5501 193.296C47.1846 193.454 47.6384 193.498 48.3257 193.428C49.7665 193.283 50.5464 192.752 50.7535 192.278Z" fill="black"/>
<path d="M33.8912 131.227C33.2832 131.894 31.111 135.502 31.0845 138.433C31.0625 141.369 32.1112 143.251 32.2037 143.861C32.8911 148.346 33.5608 153.753 33.5608 154.047C33.5608 154.341 36.1163 156.039 39.5531 155.824C45.9024 155.425 48.3698 153.77 48.3698 153.77C48.3698 153.77 48.0702 142.909 47.092 137.555C46.6029 134.874 44.466 130.552 44.466 130.552" fill="url(#paint31_linear)"/>
<path d="M28.0972 119.502C28.0972 119.502 29.1194 124.562 29.3882 125.461C29.657 126.361 30.9832 132.079 32.239 131.978C33.4947 131.877 40.3815 126.154 40.3815 126.154L39.4077 124.21L33.3449 127.089C33.3449 127.089 32.7985 120.555 32.3183 118.997" fill="white"/>
<path d="M30.4413 122.617C31.0845 124.877 32.3976 127.256 32.7897 129.011C32.869 129.362 37.0681 127.844 37.0769 126.273" fill="url(#paint32_linear)"/>
<path d="M29.9037 116.557C29.9037 116.557 29.6834 120.783 30.4501 122.916C31.2079 122.903 31.8732 122.727 31.8732 122.727L29.9037 116.557Z" fill="#B03D44"/>
<path d="M41.8091 99.2232C43.0208 100.785 42.7828 102.988 42.4832 104.941C42.3334 105.929 42.1792 106.916 42.0294 107.903C41.9589 108.373 41.862 108.886 41.4962 109.189C41.1261 109.492 40.5974 109.488 40.1171 109.47C40.1215 110.286 40.1259 111.102 40.1303 111.923C38.7248 111.954 37.3236 111.963 35.9181 111.941C35.9181 111.366 35.7903 110.795 35.5568 110.277C34.8694 110.264 34.4112 109.58 34.1424 108.948C33.834 108.224 33.6049 107.465 33.389 106.705C33.0982 105.7 32.8206 104.678 32.7941 103.629C32.7677 102.58 33.0189 101.492 33.6842 100.685C34.138 100.132 34.7593 99.741 35.3938 99.4119C36.2662 98.9599 37.3104 98.6044 38.2093 98.9994" fill="white"/>
<path d="M40.5886 102.808C40.6987 102.98 40.6723 103.212 40.778 103.388C40.9543 103.686 41.1834 103.791 41.4962 103.936C41.9985 104.169 41.884 104.902 41.8663 105.226C42.2453 104.976 42.3069 104.287 42.3995 103.941C42.5008 103.55 42.5669 103.146 42.6859 102.76C42.796 102.383 42.9899 102.027 43.0251 101.628C43.1485 100.254 42.2849 98.6395 41.2363 97.8715C40.474 97.3098 39.3152 97.3318 38.456 97.9023C38.0947 98.1436 37.8215 98.5035 37.6629 98.9072C37.5924 99.0783 37.5483 99.2802 37.6321 99.447" fill="black"/>
<path d="M33.8296 112.507C33.9001 112.028 34.0322 111.471 34.4773 111.282C34.6006 111.23 34.7372 111.212 34.8738 111.199C36.2441 111.05 37.6232 110.984 38.9979 111.006C39.5663 111.015 40.1568 111.045 40.6679 111.296C41.4654 111.695 41.906 112.551 42.2937 113.354" fill="url(#paint33_linear)"/>
<path d="M44.955 121.683C44.955 122.13 44.7039 122.732 44.6246 122.964C44.3117 123.126 43.0692 123.39 42.3554 123.065C42.1968 121.586 41.3288 118.743 41.3288 118.743C41.3288 118.743 44.955 121.27 44.955 121.683Z" fill="#B03D44"/>
<path d="M43.36 120.651C43.36 120.651 47.4753 130.552 49.2598 130.552C50.5596 130.552 53.7408 121.411 53.7408 121.411L51.7272 120.463L49.4845 124.289L47.2154 117.15" fill="white"/>
<path d="M51.3307 121.143C51.3307 121.143 51.996 120.099 51.9475 119.357C51.9299 119.076 51.7581 117.729 51.8991 117.465C52.0401 117.202 52.3793 116.333 52.5732 116.167C52.7671 116 53.4809 115.728 53.6571 115.846C53.8334 115.965 54.0493 115.412 54.3401 115.46C54.6309 115.508 54.8688 115.75 54.8688 116.013C54.8688 116.276 55.2566 116.325 55.305 116.518C55.3535 116.711 55.3315 116.877 55.402 117.022C55.4725 117.167 55.6884 117.097 55.7633 117.457C55.8338 117.786 55.7412 117.817 55.7633 117.988C55.7853 118.154 55.9307 118.141 55.8822 118.462C55.8338 118.782 55.6134 119.199 55.4196 119.559C55.2257 119.919 54.8292 120.371 54.296 120.691C54.0361 120.849 53.8907 121.125 53.6395 121.591" fill="white"/>
<path d="M52.4366 113.494C52.3838 113.415 52.2472 113.283 52.0797 113.397C51.9167 113.512 51.9652 113.709 52.0004 113.792C52.0357 113.871 53.2165 116.535 53.2165 116.535C53.2165 116.535 53.3135 116.649 53.5029 116.483C53.7056 116.303 53.6439 116.215 53.6439 116.215C53.6439 116.215 52.4851 113.573 52.4366 113.494Z" fill="black"/>
<path d="M53.7144 116.035C53.4809 116.447 53.2121 116.579 52.9742 116.803C52.7847 116.978 52.8068 117.092 52.5997 117.277C52.9654 117.25 52.9037 117.035 53.3751 116.693C53.5955 116.535 53.8202 116.364 53.8642 116.096C53.8819 116.009 53.7717 115.956 53.7144 116.035Z" fill="black"/>
<path d="M44.9595 122.455C46.2857 122.214 47.3123 121.297 48.3654 120.226C47.7794 118.615 46.9466 114.653 45.497 113.139C43.9989 111.581 41.4742 111.774 40.1215 111.818C38.7204 111.756 37.566 111.923 35.8916 111.998C34.7769 112.046 33.6665 112.178 32.5738 112.415C32.4505 112.441 32.3271 112.472 32.2037 112.502V112.489C32.2037 112.489 30.1945 112.704 29.1723 113.481C26.5727 115.46 28.5863 122.653 28.5863 122.653C28.5863 122.653 28.4585 123.034 30.2033 122.938C30.4985 122.92 30.7849 122.894 31.0581 122.859C31.9658 124.978 34.2482 129.349 33.5828 130.284C33.411 130.525 32.9748 130.99 32.9219 131.293C32.728 132.403 35.2528 132.798 36.3323 132.886C37.9757 133.022 39.866 132.93 41.5139 132.855C42.7652 132.798 45.497 132.364 45.6909 130.824C45.7305 130.521 45.5807 130.279 45.4309 130.06C45.237 129.779 44.7964 129.441 44.6378 129.13C44.2589 128.384 43.924 125.246 44.0562 124.447C44.1575 123.807 44.5982 123.39 44.9595 122.455Z" fill="url(#paint34_linear)"/>
<path d="M40.7648 155.728C40.3595 153.121 37.8568 145.046 37.751 144.822C36.3851 143.769 35.4863 142.681 35.0324 141.803C34.724 143.572 35.5347 145.323 36.2926 146.955C37.6188 149.803 38.4075 152.897 39.5487 155.824" fill="url(#paint35_linear)"/>
<path d="M40.3595 106.675C40.192 105.854 40.2052 105.389 40.474 104.84C40.5621 104.66 40.6811 104.489 40.8441 104.375C41.0644 104.221 41.3508 104.191 41.5932 104.296C41.7518 104.366 41.8796 104.494 41.9721 104.647C42.2585 103.546 42.3202 102.37 42.2365 101.224C42.1043 99.4075 41.0072 98.0032 39.3989 97.3449C36.4248 96.1294 32.1552 97.3318 30.948 100.237C30.0359 102.431 30.4985 105.599 32.2434 107.443C33.7899 109.071 36.0106 109.312 38.0639 108.974C39.1125 108.803 40.734 108.904 41.2759 107.482C41.32 107.372 41.2231 107.263 41.1129 107.271C40.6855 107.306 40.3903 106.828 40.3595 106.675Z" fill="black"/>
<path d="M34.561 107.956C33.7062 107.715 32.7809 108.193 32.2081 108.878C31.5472 109.663 31.2652 110.887 31.8776 111.704C32.1068 112.011 32.4372 112.226 32.7721 112.415C33.7943 112.981 35.0016 113.314 36.1384 113.038C37.2707 112.761 38.2665 111.747 38.2533 110.585C38.2401 109.531 37.469 108.654 36.6891 107.943" fill="black"/>
<path opacity="0.5" d="M295.184 193.959C295.184 196.535 284.679 198.624 271.725 198.624C258.771 198.624 248.267 196.535 248.267 193.959C248.267 191.383 258.767 189.294 271.725 189.294C284.684 189.294 295.184 191.383 295.184 193.959Z" fill="#000640"/>
<path d="M264.006 115.991L267.117 129.599C267.2 129.968 266.949 130.332 266.57 130.389L256.886 131.776C256.551 131.824 256.229 131.605 256.154 131.276L253.043 117.667C252.96 117.294 253.211 116.93 253.59 116.877L263.274 115.495C263.614 115.443 263.931 115.662 264.006 115.991Z" fill="black"/>
<path d="M263.402 116.43L266.381 129.463L256.762 130.837L253.784 117.803L263.402 116.43Z" fill="url(#paint36_linear)"/>
<path d="M254.801 118.765L262.975 117.597" stroke="#A1D2F0" stroke-width="1.436" stroke-linecap="round" stroke-linejoin="round"/>
<path d="M255.079 119.998L263.248 118.83" stroke="#A1D2F0" stroke-width="1.436" stroke-linecap="round" stroke-linejoin="round"/>
<path d="M258.481 121.02L263.587 120.287" stroke="#A1D2F0" stroke-width="1.436" stroke-linecap="round" stroke-linejoin="round"/>
<path d="M258.842 122.078L263.949 121.345" stroke="#A1D2F0" stroke-width="1.436" stroke-linecap="round" stroke-linejoin="round"/>
<path d="M259.208 123.135L264.314 122.407" stroke="#A1D2F0" stroke-width="1.436" stroke-linecap="round" stroke-linejoin="round"/>
<path d="M257.335 128.985L262.442 128.257" stroke="#A1D2F0" stroke-width="1.436" stroke-linecap="round" stroke-linejoin="round"/>
<path d="M267.733 129.766C267.187 129.507 266.777 129.033 266.39 128.568C266.006 128.112 265.618 127.655 265.235 127.199C265.081 127.019 264.922 126.821 264.905 126.589C265.552 126.536 265.967 127.37 266.61 127.418C266.31 126.361 265.878 125.338 265.328 124.386C265.195 124.153 265.05 123.881 265.143 123.631C265.839 123.894 266.429 124.39 266.936 124.935C267.293 125.316 267.619 125.729 267.905 126.163C268.756 127.445 269.284 128.919 269.646 130.416" fill="black"/>
<path d="M270.487 148.965L273.492 155.837C272.223 157.97 271.492 160.489 271.395 163.039C271.346 164.364 271.461 165.693 271.426 167.019C271.421 167.111 271.408 167.212 271.386 167.308C270.985 165.342 270.681 163.723 270.567 162.666C270.236 159.712 270.236 155.017 270.342 148.956C270.39 148.961 270.439 148.961 270.487 148.965Z" fill="#F2A181"/>
<path d="M270.509 140.728L277.423 134.918C277.423 134.918 280.639 139.262 279.427 143.458C278.832 145.52 278.083 146.543 277.757 147.521C277.453 148.434 275.374 161.375 275.528 162.319C275.682 163.267 276.801 165.913 277.229 168.695C277.7 171.754 277.665 181.132 277.96 184.928H277.964C277.964 184.928 278.202 187.758 278.537 188.372C278.872 188.991 279.344 189.68 279.427 190.514C279.476 190.997 279.203 191.514 278.643 191.8C278.083 192.085 277.709 191.787 277.506 191.813C276.334 191.953 276.127 192.84 274.118 193.169C273.497 193.27 272.549 193.064 272.003 192.634C271.791 192.467 271.8 192.199 271.919 192.015C272.038 191.83 273.519 191.321 274.188 190.896C274.827 190.488 275.449 189.364 275.625 188.978C275.669 188.877 275.66 188.601 275.62 188.245C275.528 187.64 275.427 187.008 275.316 186.363C275.228 185.897 275.158 185.56 275.158 185.56L275.18 185.555C273.717 177.318 270.99 166.426 270.571 162.67C270.099 158.488 270.289 150.835 270.509 140.728Z" fill="black"/>
<path d="M271.849 192.778C271.703 192.528 271.664 192.151 271.8 192.059C271.99 191.931 272.664 191.488 273.052 191.308C273.439 191.128 274.061 190.97 273.84 191.089C273.624 191.207 274.025 191.646 274.387 191.62C275.647 191.545 276.577 190.707 277.295 190.532C278.33 190.273 278.766 189.057 278.81 188.86C279.009 188.982 279.463 189.965 279.555 190.273C279.639 190.553 279.789 191.063 279.709 191.352C279.656 191.554 279.533 191.958 279.595 192.379C279.595 192.379 279.392 192.537 278.85 192.647C278.506 192.717 278.048 192.655 278.048 192.655L277.96 192.006C277.96 192.006 277.678 191.997 277.321 192.067C276.964 192.142 276.378 192.48 276.343 192.524C276.198 192.695 276.083 193.007 275.894 193.103C275.391 193.358 274.88 193.476 274.241 193.516C272.889 193.599 272.1 193.208 271.849 192.778Z" fill="black"/>
<path d="M261.067 192.655C261.217 192.493 262.816 192.234 263.57 191.918C264.283 191.62 265.151 190.663 265.319 190.255C265.486 189.847 265.447 187.789 265.429 186.924C265.279 180.969 264.173 166.418 264.015 162.933C263.737 156.877 264.526 150.624 266.865 140.899L275.581 134.238C275.581 134.238 278.022 138.758 277.202 143.076C276.726 145.582 274.642 145.968 274.29 146.942C273.937 147.916 268.667 163.618 268.667 163.618C268.667 163.618 269.694 167.014 269.751 170.731C269.804 173.908 268.355 183.484 268.086 187.131C268.055 187.846 267.932 189.553 268.143 190.093C268.403 190.76 269.06 191.541 269.029 192.379C269.011 192.866 268.659 193.331 268.037 193.52C267.421 193.713 267.077 193.353 266.865 193.344C265.636 193.292 265.297 194.134 263.177 194.134C262.525 194.134 261.574 193.775 261.071 193.261C260.873 193.081 260.917 192.818 261.067 192.655Z" fill="black"/>
<path d="M260.886 193.402C260.772 193.129 260.785 192.752 260.939 192.682C261.151 192.585 261.909 192.256 262.336 192.142C262.763 192.028 263.424 191.975 263.182 192.054C262.94 192.138 263.292 192.634 263.671 192.669C264.984 192.796 266.059 192.125 266.826 192.063C267.932 191.975 268.337 190.843 268.412 190.654C268.597 190.808 269.143 191.852 269.192 192.173C269.24 192.462 269.32 192.989 269.196 193.265C269.113 193.454 268.927 193.836 268.932 194.262C268.932 194.262 268.698 194.385 268.126 194.406C267.764 194.42 267.297 194.288 267.297 194.288V193.634C267.297 193.634 267.006 193.577 266.627 193.595C266.244 193.608 265.777 193.801 265.548 193.976C265.367 194.112 265.178 194.341 264.966 194.393C264.354 194.547 263.913 194.591 263.244 194.525C261.842 194.376 261.085 193.862 260.886 193.402Z" fill="black"/>
<path d="M277.242 134.185C277.832 134.83 279.938 138.328 279.96 141.176C279.982 144.024 278.965 145.849 278.877 146.442C278.207 150.791 281 172.684 281 172.969C281 173.255 277.445 176.12 274.127 176.498C266.839 177.327 259.965 174.216 259.965 174.216C259.965 174.216 261.217 157.417 264.438 140.324C264.927 137.727 266.984 133.531 266.984 133.531" fill="url(#paint37_linear)"/>
<path d="M282.86 122.811C282.86 122.811 281.868 127.717 281.608 128.59C281.348 129.463 280.062 135.01 278.841 134.914C277.621 134.817 270.941 129.261 270.941 129.261L271.888 127.379L277.771 130.17C277.771 130.17 278.304 123.829 278.766 122.319" fill="black"/>
<path d="M281.106 119.958C281.106 119.958 281.322 124.057 280.573 126.128C279.837 126.115 279.194 125.948 279.194 125.948L281.106 119.958Z" fill="#B03D44"/>
<path d="M269.558 103.142C268.381 104.66 268.615 106.793 268.905 108.689C269.051 109.645 269.196 110.607 269.346 111.563C269.417 112.02 269.509 112.515 269.866 112.809C270.223 113.103 270.738 113.099 271.201 113.082C271.197 113.876 271.192 114.666 271.188 115.46C272.549 115.491 273.911 115.5 275.272 115.478C275.272 114.92 275.396 114.367 275.625 113.863C276.29 113.849 276.735 113.187 276.995 112.572C277.295 111.87 277.515 111.133 277.727 110.396C278.009 109.422 278.277 108.426 278.304 107.412C278.33 106.398 278.088 105.341 277.44 104.555C277 104.02 276.396 103.642 275.779 103.322C274.933 102.883 273.92 102.536 273.047 102.918" fill="white"/>
<path d="M270.743 106.622C270.637 106.789 270.659 107.012 270.562 107.184C270.395 107.473 270.17 107.574 269.866 107.715C269.377 107.943 269.491 108.649 269.505 108.97C269.135 108.724 269.077 108.061 268.989 107.719C268.888 107.342 268.826 106.951 268.712 106.574C268.606 106.205 268.416 105.863 268.381 105.477C268.262 104.142 269.099 102.58 270.113 101.83C270.849 101.286 271.977 101.308 272.809 101.861C273.162 102.093 273.426 102.444 273.58 102.835C273.646 103.002 273.695 103.199 273.611 103.357" fill="black"/>
<path d="M277.299 116.026C277.229 115.561 277.105 115.021 276.669 114.837C276.55 114.784 276.418 114.771 276.286 114.758C274.955 114.613 273.62 114.547 272.285 114.569C271.734 114.578 271.161 114.604 270.668 114.85C269.892 115.236 269.465 116.07 269.091 116.847" fill="url(#paint38_linear)"/>
<path d="M266.508 124.926C266.508 125.36 266.751 125.939 266.83 126.172C267.134 126.326 268.341 126.585 269.033 126.273C269.183 124.838 270.029 122.078 270.029 122.078C270.029 122.078 266.508 124.526 266.508 124.926Z" fill="#B03D44"/>
<path d="M268.055 123.925C268.055 123.925 264.063 133.527 262.336 133.527C261.076 133.527 257.987 124.662 257.987 124.662L259.939 123.741L262.116 127.453L264.319 120.529" fill="black"/>
<path d="M260.322 124.408C260.322 124.408 259.675 123.394 259.723 122.675C259.741 122.398 259.904 121.095 259.767 120.84C259.631 120.586 259.304 119.743 259.115 119.581C258.926 119.418 258.234 119.155 258.066 119.274C257.899 119.392 257.687 118.852 257.405 118.901C257.123 118.949 256.89 119.181 256.89 119.436C256.89 119.69 256.515 119.739 256.467 119.927C256.418 120.116 256.441 120.278 256.374 120.419C256.304 120.559 256.097 120.489 256.022 120.84C255.956 121.161 256.044 121.191 256.022 121.354C256 121.516 255.859 121.503 255.903 121.814C255.951 122.126 256.163 122.53 256.352 122.881C256.542 123.232 256.925 123.666 257.441 123.978C257.696 124.131 257.833 124.399 258.075 124.851" fill="black"/>
<path d="M259.252 116.987C259.3 116.913 259.437 116.785 259.595 116.895C259.754 117.005 259.705 117.198 259.67 117.277C259.635 117.356 258.489 119.936 258.489 119.936C258.489 119.936 258.392 120.046 258.212 119.884C258.014 119.712 258.075 119.625 258.075 119.625C258.075 119.625 259.203 117.062 259.252 116.987Z" fill="white"/>
<path d="M258.009 119.449C258.234 119.848 258.494 119.976 258.727 120.195C258.912 120.366 258.886 120.476 259.089 120.656C258.732 120.63 258.793 120.419 258.335 120.09C258.124 119.936 257.903 119.769 257.859 119.51C257.846 119.423 257.956 119.374 258.009 119.449Z" fill="black"/>
<path d="M266.5 125.676C265.213 125.439 264.217 124.553 263.195 123.513C263.764 121.955 264.57 118.106 265.975 116.641C267.425 115.131 269.875 115.315 271.188 115.359C272.545 115.298 273.664 115.46 275.29 115.535C276.369 115.583 277.449 115.706 278.511 115.938C278.634 115.965 278.753 115.991 278.868 116.022L278.872 116.009C278.872 116.009 280.824 116.215 281.811 116.97C284.331 118.892 282.379 125.865 282.379 125.865C282.379 125.865 282.503 126.238 280.811 126.141C280.524 126.124 280.247 126.097 279.982 126.062C279.101 128.12 276.885 132.355 277.533 133.264C277.7 133.501 278.123 133.948 278.172 134.242C278.357 135.322 275.911 135.699 274.863 135.787C273.268 135.919 271.435 135.831 269.835 135.756C268.623 135.699 265.975 135.278 265.786 133.786C265.751 133.492 265.896 133.259 266.041 133.044C266.227 132.772 266.654 132.443 266.808 132.145C267.178 131.42 267.5 128.379 267.372 127.603C267.28 126.988 266.852 126.585 266.5 125.676Z" fill="#A600A9"/>
<path d="M270.968 110.37C271.126 109.571 271.117 109.123 270.853 108.592C270.765 108.417 270.65 108.25 270.496 108.14C270.285 107.991 270.003 107.965 269.769 108.066C269.615 108.132 269.491 108.254 269.403 108.404C269.126 107.333 269.068 106.192 269.148 105.082C269.276 103.317 270.342 101.957 271.902 101.316C274.788 100.136 278.929 101.303 280.101 104.121C280.987 106.249 280.538 109.325 278.846 111.107C277.348 112.687 275.189 112.919 273.201 112.594C272.184 112.428 270.611 112.529 270.086 111.151C270.047 111.045 270.139 110.936 270.245 110.944C270.65 110.984 270.937 110.519 270.968 110.37Z" fill="black"/>
<path d="M276.59 111.616C277.422 111.383 278.317 111.848 278.872 112.507C279.511 113.27 279.789 114.455 279.189 115.249C278.965 115.548 278.647 115.758 278.321 115.938C277.33 116.487 276.158 116.812 275.056 116.54C273.955 116.272 272.99 115.289 273.003 114.161C273.016 113.139 273.765 112.287 274.519 111.598" fill="black"/>
<path d="M270.496 108.14C270.496 108.14 271.342 108.149 270.236 110.949C269.13 113.749 269.024 119.037 269.024 119.037C269.024 119.037 272.043 120.283 276.105 120.178C280.168 120.072 280.582 120.072 280.687 119.761C280.793 119.449 283.292 104.309 277.771 101.716" fill="black"/>
<path opacity="0.5" d="M244.998 219.236C258.289 219.236 269.064 217.658 269.064 215.712C269.064 213.766 258.289 212.188 244.998 212.188C231.706 212.188 220.931 213.766 220.931 215.712C220.931 217.658 231.706 219.236 244.998 219.236Z" fill="#000640"/>
<path d="M217.389 167.225H240.23L239.243 165.044H216.486L217.389 167.225Z" fill="black"/>
<path d="M260.714 215.808H258.009L224.258 130.617H227.219L260.714 215.808Z" fill="black"/>
<path d="M212.538 154.995H235.379L234.392 152.814H211.635L212.538 154.995Z" fill="black"/>
<path d="M207.643 142.593H230.484L229.497 140.408H206.739L207.643 142.593Z" fill="black"/>
<path d="M236.366 215.808H233.661L199.91 130.617H202.875L236.366 215.808Z" fill="black"/>
<path d="M231.815 204.263H254.66L253.673 202.082H230.916L231.815 204.263Z" fill="black"/>
<path d="M227.008 191.857H249.849L248.862 189.676H226.104L227.008 191.857Z" fill="black"/>
<path d="M222.152 179.714H244.998L244.011 177.533H221.253L222.152 179.714Z" fill="black"/>
<path d="M230.215 84.7986L229.378 83.0652C229.378 83.0652 227.765 83.5787 226.479 83.6445C225.192 83.7103 224.677 83.9649 224.677 83.9649L223.646 85.6324C223.646 85.6324 227.638 86.4004 230.215 84.7986Z" fill="url(#paint39_linear)"/>
<path d="M230.215 84.7987C230.215 84.7987 232.339 84.6056 233.436 85.2463C234.533 85.887 235.692 89.9287 236.075 92.6889C236.463 95.4492 237.106 106.161 237.172 108.342C237.239 110.523 237.172 115.464 237.172 115.464C237.172 115.464 231.374 116.684 227.382 116.557C223.39 116.43 220.231 113.283 220.231 113.283C220.231 113.283 220.553 108.728 221.068 107.254C221.584 105.779 222.421 103.085 221.905 100.838C221.39 98.5913 219.843 92.114 220.231 89.6741C220.619 87.2342 220.231 86.7866 221.584 86.339C222.936 85.8914 223.646 85.6325 223.646 85.6325C223.646 85.6325 227.06 86.4004 230.215 84.7987Z" fill="url(#paint40_linear)"/>
<path d="M224.804 90.1656C224.804 90.1656 224.461 92.8601 222.399 95.9407C220.337 99.0213 217.763 102.058 216.904 102.528C216.045 102.997 214.243 102.914 213.256 102.141C212.269 101.373 205.44 93.5008 205.44 93.5008C205.44 93.5008 205.395 92.5617 206.171 91.7454C206.942 90.9336 207.718 90.9336 207.718 90.9336L214.287 96.4497C214.287 96.4497 218.451 89.4371 219.482 88.1952C220.513 86.9533 221.544 86.6549 222.359 86.7822C223.174 86.9138 224.893 88.3664 224.804 90.1656Z" fill="url(#paint41_linear)"/>
<path d="M207.242 90.9775C207.242 90.9775 205.823 89.4811 205.052 89.051C204.281 88.6253 201.787 88.1119 201.443 88.1514C201.1 88.1953 201.091 88.4278 201.518 88.6429C201.945 88.8579 202.902 89.1344 202.902 89.1344C202.902 89.1344 201.699 89.8628 201.699 90.3763C201.699 90.8897 202.47 91.8727 202.946 91.8727C203.417 91.8727 204.104 91.7454 204.104 91.7454L205.523 92.8162C205.523 92.8162 205.823 91.4909 207.242 90.9775Z" fill="white"/>
<path d="M233.692 85.4393C233.626 85.3691 239.843 90.7317 241.548 93.1716C243.253 95.6115 244.703 99.1705 244.478 100.132C244.253 101.093 242.513 102.892 241.354 103.853C240.195 104.814 237.133 106.868 237.133 106.868L236.877 100.772C236.877 100.772 238.97 98.8457 238.776 98.5912C238.582 98.3367 236.459 96.2171 236.459 96.2171C236.459 96.2171 236.168 92.0482 235.494 89.7399C234.82 87.4273 234.304 86.08 233.692 85.4393Z" fill="url(#paint42_linear)"/>
<path d="M220.544 113.569C221.438 114.35 224.13 116.447 227.378 116.553C231.37 116.68 237.168 115.46 237.168 115.46C237.168 115.46 236.459 120.142 235.881 122.003C235.3 123.864 234.917 126.238 234.85 127.006C234.784 127.774 235.943 140.671 236.137 144.327C236.331 147.982 235.837 159.831 235.837 159.831H232.229C232.229 159.831 230.92 145.547 229.761 137.656C228.603 129.766 228.021 125.531 228.021 125.531L227.184 126.944C227.184 126.944 226.796 140.803 226.474 146.96C226.153 153.117 225.465 159.897 225.465 159.897L221.663 160.09C221.663 160.09 220.16 136.634 219.967 129.898C219.79 123.543 220.469 114.569 220.544 113.569Z" fill="url(#paint43_linear)"/>
<path d="M235.626 159.875C235.626 159.875 236.186 162.995 236.186 163.425C236.186 163.85 236.014 165.307 236.014 165.307C236.014 165.307 233.392 165.395 231.59 165.351C229.788 165.307 227.682 164.882 227.682 164.882C227.682 164.882 227.338 163.728 227.809 163.087C228.281 162.446 230.127 162.319 230.687 161.678C231.246 161.037 232.233 159.839 232.233 159.839C232.233 159.839 235.11 160.046 235.626 159.875Z" fill="url(#paint44_linear)"/>
<path d="M225.192 159.875C225.192 159.875 225.752 162.995 225.752 163.425C225.752 163.85 225.58 165.307 225.58 165.307C225.58 165.307 222.963 165.395 221.156 165.351C219.354 165.307 217.248 164.882 217.248 164.882C217.248 164.882 216.904 163.728 217.376 163.087C217.847 162.446 219.693 162.319 220.253 161.678C220.813 161.037 221.8 159.839 221.8 159.839C221.8 159.839 224.677 160.046 225.192 159.875Z" fill="url(#paint45_linear)"/>
<path d="M229.356 82.8502C229.356 82.8502 229.854 76.4125 229.312 74.723C228.669 72.7132 227.378 71.3001 225.36 71.2167C223.342 71.129 219.993 71.3001 219.09 72.4147C218.186 73.525 218.658 75.1531 218.746 75.6665C218.834 76.1799 219.689 76.7373 219.689 76.7373C219.689 76.7373 220.976 76.395 221.363 76.6934C221.751 76.9918 222.35 78.3171 222.35 78.3171C222.35 78.3171 222.786 77.0488 223.337 77.2902C224.712 77.887 224.28 79.6862 224.069 80.068C223.795 80.5595 224.069 80.1953 224.069 80.1953L227.118 83.4865C227.122 83.4909 228.369 83.6226 229.356 82.8502Z" fill="black"/>
<path d="M221.368 76.6934C221.755 76.9918 222.355 78.3171 222.355 78.3171C222.355 78.3171 222.791 77.0488 223.342 77.2902C224.716 77.887 224.285 79.6862 224.073 80.068C223.8 80.5595 224.073 80.1953 224.073 80.1953L227.122 83.4865L224.677 83.9561L224.589 83.3593C224.589 83.3593 223.646 83.7016 223.086 83.7016C222.527 83.7016 221.883 82.5474 221.152 81.3055C220.42 80.0636 219.693 76.7285 219.693 76.7285C219.693 76.7285 220.984 76.395 221.368 76.6934Z" fill="white"/>
<path d="M76.8951 155.745C76.8951 155.745 83.6453 155.745 85.9849 155.359C88.3246 154.973 88.3246 154.973 88.3246 154.973L96.9738 153.889L96.2027 156.636C96.2027 156.636 93.1272 157.724 90.4395 158.44C87.7474 159.155 82.5261 160.559 81.7154 160.761C80.9046 160.958 76.5294 161.884 76.5294 161.884" fill="url(#paint46_linear)"/>
<path d="M60.491 167.554C60.491 167.554 58.2395 169.384 57.5257 171.039C56.8163 172.693 56.6974 175.054 56.8163 175.879C56.9353 176.704 57.2305 177.533 57.2305 177.353C57.2305 177.178 56.2832 190.044 56.2832 190.044C56.2832 190.044 52.2516 193.467 50.7094 196.302C49.1673 199.137 45.7305 206.808 45.7305 206.808C45.7305 206.808 48.5152 208.164 49.5242 208.344C50.5332 208.519 50.5332 208.519 50.5332 208.519C50.5332 208.519 54.86 199.607 56.1642 198.009C56.9882 197 60.2531 194.288 61.5 192.164C62.7426 190.04 64.9985 181.184 64.9985 181.184C64.9985 181.184 67.9021 184.313 69.2064 185.731C70.5106 187.148 72.11 189.154 72.11 189.685C72.11 190.216 70.982 194.17 70.6868 195.587C70.3916 197.004 69.2064 206.742 69.2064 206.742C69.2064 206.742 70.8675 207.098 72.2906 206.918C73.7138 206.742 73.9518 206.444 73.9518 206.444C73.9518 206.444 74.7801 199.712 75.5512 196.408C76.3222 193.103 77.2123 190.325 77.4502 189.794C77.6882 189.263 77.7454 188.14 76.9744 185.84C76.2033 183.537 73.8328 178.758 71.9382 175.923C70.0435 173.088 70.0435 173.088 70.0435 173.088C70.0435 173.088 63.7516 169.858 60.491 167.554Z" fill="black"/>
<path d="M64.8575 181.742C65.4391 178.534 65.8004 175.879 65.8004 175.879L63.4828 185.331C62.8748 188.794 60.1738 193.906 60.1738 193.906C60.1738 193.906 60.1738 193.919 60.1782 193.941C60.707 193.34 61.174 192.739 61.5045 192.177C62.5575 190.365 64.342 183.699 64.8575 181.742Z" fill="url(#paint47_linear)"/>
<path d="M69.2064 206.755C69.2064 206.755 68.237 208.252 68.1974 208.449C68.1577 208.647 67.9594 210.714 67.9594 210.714L71.2773 211.451L71.5152 210.81C71.5152 210.81 74.9123 212.504 75.5468 212.544C76.1813 212.583 79.3008 212.544 79.737 212.425C80.1732 212.307 80.7636 211.521 80.1732 211.284C79.5784 211.047 77.5648 210.968 77.0889 210.696C76.6131 210.42 74.2029 208.217 73.965 207.589C73.7271 206.957 73.6478 206.606 73.6478 206.606C73.6478 206.606 72.3876 207.304 69.2064 206.755Z" fill="url(#paint48_linear)"/>
<path d="M45.823 206.931C45.823 206.931 44.7568 208.405 44.5497 209.055C44.3426 209.704 43.6596 211.771 43.6596 211.771C43.6596 211.771 44.6378 212.539 45.3207 212.802C46.0037 213.066 46.1491 213.127 46.1491 213.127L46.625 212.653C46.625 212.653 48.2244 214.189 49.5903 214.54C50.9518 214.896 53.71 215.014 54.6573 214.777C55.6047 214.54 56.0497 213.627 55.6663 213.303C55.283 212.978 53.9788 212.86 53.1769 212.179C52.375 211.499 50.8945 210.288 50.6874 209.669C50.4803 209.05 50.5376 208.519 50.5376 208.519C50.5376 208.519 50.1499 208.792 45.823 206.931Z" fill="url(#paint49_linear)"/>
<path d="M80.2305 212.056C79.7503 212.135 79.0232 212.162 77.957 212.223C75.864 212.342 75.2296 211.71 72.8591 210.885C70.9776 210.226 68.8935 209.423 68.1181 209.121C68.0476 209.792 67.9594 210.709 67.9594 210.709L71.2773 211.446L71.5152 210.806C71.5152 210.806 74.9123 212.5 75.5468 212.539C76.1813 212.579 79.3008 212.539 79.737 212.421C79.9045 212.377 80.0939 212.232 80.2305 212.056Z" fill="url(#paint50_linear)"/>
<path d="M54.7631 214.426C54.014 214.663 50.4935 214.703 48.9161 213.952C47.6296 213.342 45.0652 211.095 44.1487 210.279C43.9064 211.016 43.6596 211.771 43.6596 211.771C43.6596 211.771 44.6378 212.539 45.3207 212.802C46.0037 213.066 46.1491 213.127 46.1491 213.127L46.625 212.653C46.625 212.653 48.2244 214.189 49.5903 214.54C50.9518 214.896 53.71 215.014 54.6573 214.777C55.2786 214.624 55.684 214.176 55.7809 213.794C55.4725 214.097 55.1068 214.321 54.7631 214.426ZM60.491 167.554L61.0859 166.492L70.5282 172.276L70.0347 173.101C70.0347 173.105 62.5487 169.248 60.491 167.554Z" fill="black"/>
<path d="M61.0859 166.492C60.9361 166.4 67.6863 157.834 70.2947 155.078C72.9031 152.322 75.234 150.786 77.0934 150.905C78.9527 151.023 81.8344 153.7 82.4292 156.14C83.024 158.58 80.6491 163.618 80.0983 164.522C79.5432 165.426 76.8202 167.001 74.7229 168.616C72.63 170.231 72.0748 170.977 71.4844 171.412C70.8895 171.846 70.537 172.276 70.537 172.276C70.537 172.276 62.4298 167.322 61.0859 166.492Z" fill="url(#paint51_linear)"/>
<path d="M61.5485 166.641C61.716 166.532 65.1351 160.923 70.5415 155.319C74.0047 151.73 76.7761 151.032 76.7761 151.032C76.7761 151.032 75.2075 150.813 71.9734 153.45C69.2152 155.706 61.0771 166.492 61.0771 166.492L61.5485 166.641Z" fill="white"/>
<path d="M81.6317 154.293C81.6317 154.293 85.2271 151.695 85.7822 151.186C86.3374 150.672 88.8665 150.44 90.1663 151.067C91.4706 151.699 93.0127 155.24 92.973 156.342C92.9334 157.443 92.105 158.308 92.105 158.308L90.8405 157.992C90.8405 157.992 89.8535 159.093 89.4966 159.291C89.1397 159.488 88.6286 159.488 88.6286 159.488C88.6286 159.488 87.8003 161.182 87.5227 161.182C87.2451 161.182 86.3771 160.594 86.3771 160.594C86.3771 160.594 83.729 161.498 83.61 161.261C83.4911 161.024 82.1472 159.137 82.1472 159.137C82.1472 159.137 83.2531 156.693 81.6317 154.293Z" fill="black"/>
<path d="M77.6397 151.067C77.6397 151.067 84.3194 152.05 86.6899 152.011C89.0604 151.971 89.0604 151.971 89.0604 151.971L100.124 150.751L100.402 153.349C100.402 153.349 93.4093 155.394 90.6422 155.71C87.8752 156.026 82.5041 156.654 81.6713 156.733C80.843 156.812 76.3752 157.088 76.3752 157.088" fill="url(#paint52_linear)"/>
<path d="M100.164 151.265C100.164 151.265 102.019 150.44 102.257 149.966C102.495 149.492 102.415 147.96 102.693 147.328C102.971 146.696 104.195 145.007 104.433 145.007C104.671 145.007 104.83 145.046 104.711 146.108C104.592 147.17 104.314 148.469 104.314 148.983C104.314 149.496 104.433 150.988 104.076 151.423C103.72 151.857 103.05 152.011 102.574 152.248C102.098 152.485 100.322 152.84 100.322 152.84L100.164 151.265Z" fill="white"/>
<path d="M86.1832 47.7039H49.3788V50.5256H86.1832V47.7039Z" fill="#005CB4"/>
<path d="M103.878 53.6984H67.0738V56.5201H103.878V53.6984Z" fill="#00759F"/>
<path d="M89.8667 58.982H24.255V61.8037H89.8667V58.982Z" fill="#4529AC"/>
<path d="M188.599 61.8036H122.988V64.6254H188.599V61.8036Z" fill="#3129AC"/>
<path d="M156.042 55.8092H132.686V58.6309H156.042V55.8092Z" fill="#4529AC"/>
<path d="M202.399 56.1647H177.13V58.9864H202.399V56.1647Z" fill="#0075B4"/>
<path opacity="0.3" d="M276.435 57.2222H251.166V60.0439H276.435V57.2222Z" fill="white"/>
<path opacity="0.1" d="M250.92 47.7039H225.65V50.5256H250.92V47.7039Z" fill="white"/>
<path d="M148.966 28.6716H124.547V31.4933H148.966V28.6716Z" fill="#00759F"/>
<path d="M165.242 36.4258H136.581V39.2476H165.242V36.4258Z" fill="#313BAC"/>
<path d="M142.498 210.2C165.698 210.2 184.506 191.468 184.506 168.362C184.506 145.255 165.698 126.523 142.498 126.523C119.298 126.523 100.49 145.255 100.49 168.362C100.49 191.468 119.298 210.2 142.498 210.2Z" fill="url(#paint53_linear)"/>
<path d="M142.498 126.527V168.366L178.765 147.245C171.473 134.848 157.963 126.527 142.498 126.527Z" fill="url(#paint54_linear)"/>
<path opacity="0.3" d="M130.676 27.1533C129.39 27.1533 128.187 27.5044 127.156 28.1144C126.909 24.5422 123.926 21.7205 120.278 21.7205C119.489 21.7205 118.736 21.861 118.031 22.1023C117.013 18.8286 113.951 16.4501 110.329 16.4501C110.056 16.4501 109.787 16.4677 109.522 16.494C106.139 16.7047 103.323 18.9866 102.345 22.0892C101.636 21.8434 100.878 21.703 100.085 21.703C96.4363 21.703 93.4533 24.5247 93.2066 28.0968C92.1756 27.4868 90.9727 27.1358 89.6861 27.1358C85.8748 27.1358 82.7861 30.212 82.7861 34.0035C82.7861 37.7951 85.8748 40.8713 89.6861 40.8713C89.9417 40.8713 90.1884 40.8581 90.4396 40.8274H101.032C101.34 40.8625 101.653 40.8889 101.975 40.8889C102.252 40.8889 102.526 40.8757 102.799 40.8494H117.925C118.079 40.8581 118.233 40.8713 118.388 40.8713C118.546 40.8713 118.696 40.8581 118.85 40.8494H129.923C130.17 40.8757 130.421 40.8889 130.676 40.8889C134.488 40.8889 137.572 37.8126 137.572 34.0211C137.576 30.2296 134.488 27.1533 130.676 27.1533Z" fill="url(#paint55_linear)"/>
</g>
<defs>
<linearGradient id="paint0_linear" x1="176.485" y1="204.886" x2="176.244" y2="203.003" gradientUnits="userSpaceOnUse">
<stop stop-color="#7700BB"/>
<stop offset="1" stop-color="#00008B"/>
</linearGradient>
<linearGradient id="paint1_linear" x1="7.02368" y1="92.0933" x2="340.399" y2="92.0933" gradientUnits="userSpaceOnUse">
<stop stop-color="#511C52"/>
<stop offset="1" stop-color="#280E28"/>
</linearGradient>
<linearGradient id="paint2_linear" x1="68.4291" y1="43.7299" x2="67.762" y2="27.7257" gradientUnits="userSpaceOnUse">
<stop stop-color="#88CFDA"/>
<stop offset="0.0506" stop-color="#93D1D5"/>
<stop offset="0.2502" stop-color="#BAD7C2"/>
<stop offset="0.4481" stop-color="#D8DBB3"/>
<stop offset="0.6414" stop-color="#EEDEA8"/>
<stop offset="0.8279" stop-color="#FBE0A2"/>
<stop offset="1" stop-color="#FFE1A0"/>
</linearGradient>
<linearGradient id="paint3_linear" x1="41.1571" y1="84.3146" x2="41.1571" y2="117.211" gradientUnits="userSpaceOnUse">
<stop stop-color="#7633FF"/>
<stop offset="0.1585" stop-color="#7137FF"/>
<stop offset="0.3535" stop-color="#6243FF"/>
<stop offset="0.5676" stop-color="#4957FF"/>
<stop offset="0.7937" stop-color="#2672FF"/>
<stop offset="1" stop-color="#0090FF"/>
</linearGradient>
<linearGradient id="paint4_linear" x1="48.1747" y1="84.3146" x2="48.1747" y2="117.211" gradientUnits="userSpaceOnUse">
<stop stop-color="#7633FF"/>
<stop offset="0.1585" stop-color="#7137FF"/>
<stop offset="0.3535" stop-color="#6243FF"/>
<stop offset="0.5676" stop-color="#4957FF"/>
<stop offset="0.7937" stop-color="#2672FF"/>
<stop offset="1" stop-color="#0090FF"/>
</linearGradient>
<linearGradient id="paint5_linear" x1="55.1925" y1="84.3146" x2="55.1925" y2="117.211" gradientUnits="userSpaceOnUse">
<stop stop-color="#7633FF"/>
<stop offset="0.1585" stop-color="#7137FF"/>
<stop offset="0.3535" stop-color="#6243FF"/>
<stop offset="0.5676" stop-color="#4957FF"/>
<stop offset="0.7937" stop-color="#2672FF"/>
<stop offset="1" stop-color="#0090FF"/>
</linearGradient>
<linearGradient id="paint6_linear" x1="62.2102" y1="84.3145" x2="62.2102" y2="117.211" gradientUnits="userSpaceOnUse">
<stop stop-color="#7633FF"/>
<stop offset="0.1585" stop-color="#7137FF"/>
<stop offset="0.3535" stop-color="#6243FF"/>
<stop offset="0.5676" stop-color="#4957FF"/>
<stop offset="0.7937" stop-color="#2672FF"/>
<stop offset="1" stop-color="#0090FF"/>
</linearGradient>
<linearGradient id="paint7_linear" x1="69.2276" y1="84.3147" x2="69.2276" y2="117.211" gradientUnits="userSpaceOnUse">
<stop stop-color="#7633FF"/>
<stop offset="0.1585" stop-color="#7137FF"/>
<stop offset="0.3535" stop-color="#6243FF"/>
<stop offset="0.5676" stop-color="#4957FF"/>
<stop offset="0.7937" stop-color="#2672FF"/>
<stop offset="1" stop-color="#0090FF"/>
</linearGradient>
<linearGradient id="paint8_linear" x1="76.2456" y1="84.3145" x2="76.2456" y2="117.211" gradientUnits="userSpaceOnUse">
<stop stop-color="#7633FF"/>
<stop offset="0.1585" stop-color="#7137FF"/>
<stop offset="0.3535" stop-color="#6243FF"/>
<stop offset="0.5676" stop-color="#4957FF"/>
<stop offset="0.7937" stop-color="#2672FF"/>
<stop offset="1" stop-color="#0090FF"/>
</linearGradient>
<linearGradient id="paint9_linear" x1="83.2632" y1="84.3148" x2="83.2632" y2="117.211" gradientUnits="userSpaceOnUse">
<stop stop-color="#7633FF"/>
<stop offset="0.1585" stop-color="#7137FF"/>
<stop offset="0.3535" stop-color="#6243FF"/>
<stop offset="0.5676" stop-color="#4957FF"/>
<stop offset="0.7937" stop-color="#2672FF"/>
<stop offset="1" stop-color="#0090FF"/>
</linearGradient>
<linearGradient id="paint10_linear" x1="90.2808" y1="84.3147" x2="90.2808" y2="117.211" gradientUnits="userSpaceOnUse">
<stop stop-color="#7633FF"/>
<stop offset="0.1585" stop-color="#7137FF"/>
<stop offset="0.3535" stop-color="#6243FF"/>
<stop offset="0.5676" stop-color="#4957FF"/>
<stop offset="0.7937" stop-color="#2672FF"/>
<stop offset="1" stop-color="#0090FF"/>
</linearGradient>
<linearGradient id="paint11_linear" x1="97.2985" y1="84.3145" x2="97.2985" y2="117.211" gradientUnits="userSpaceOnUse">
<stop stop-color="#7633FF"/>
<stop offset="0.1585" stop-color="#7137FF"/>
<stop offset="0.3535" stop-color="#6243FF"/>
<stop offset="0.5676" stop-color="#4957FF"/>
<stop offset="0.7937" stop-color="#2672FF"/>
<stop offset="1" stop-color="#0090FF"/>
</linearGradient>
<linearGradient id="paint12_linear" x1="104.316" y1="84.3147" x2="104.316" y2="117.211" gradientUnits="userSpaceOnUse">
<stop stop-color="#7633FF"/>
<stop offset="0.1585" stop-color="#7137FF"/>
<stop offset="0.3535" stop-color="#6243FF"/>
<stop offset="0.5676" stop-color="#4957FF"/>
<stop offset="0.7937" stop-color="#2672FF"/>
<stop offset="1" stop-color="#0090FF"/>
</linearGradient>
<linearGradient id="paint13_linear" x1="111.334" y1="84.3147" x2="111.334" y2="117.211" gradientUnits="userSpaceOnUse">
<stop stop-color="#7633FF"/>
<stop offset="0.1585" stop-color="#7137FF"/>
<stop offset="0.3535" stop-color="#6243FF"/>
<stop offset="0.5676" stop-color="#4957FF"/>
<stop offset="0.7937" stop-color="#2672FF"/>
<stop offset="1" stop-color="#0090FF"/>
</linearGradient>
<linearGradient id="paint14_linear" x1="208.148" y1="183.989" x2="208.148" y2="69.7904" gradientUnits="userSpaceOnUse">
<stop stop-color="#A1BAFF"/>
<stop offset="0.4332" stop-color="white"/>
</linearGradient>
<linearGradient id="paint15_linear" x1="210.802" y1="139.113" x2="210.802" y2="72.0415" gradientUnits="userSpaceOnUse">
<stop stop-color="#88CFDA"/>
<stop offset="0.0506" stop-color="#93D1D5"/>
<stop offset="0.2502" stop-color="#BAD7C2"/>
<stop offset="0.4481" stop-color="#D8DBB3"/>
<stop offset="0.6414" stop-color="#EEDEA8"/>
<stop offset="0.8279" stop-color="#FBE0A2"/>
<stop offset="1" stop-color="#FFE1A0"/>
</linearGradient>
<linearGradient id="paint16_linear" x1="174.47" y1="210.95" x2="174.47" y2="121.661" gradientUnits="userSpaceOnUse">
<stop stop-color="#88CFDA"/>
<stop offset="0.1838" stop-color="#98D1D2"/>
<stop offset="0.5428" stop-color="#C2D8BE"/>
<stop offset="1" stop-color="#FFE1A0"/>
</linearGradient>
<linearGradient id="paint17_linear" x1="190.65" y1="140.793" x2="190.65" y2="103.486" gradientUnits="userSpaceOnUse">
<stop stop-color="#7633FF"/>
<stop offset="0.1585" stop-color="#7137FF"/>
<stop offset="0.3535" stop-color="#6243FF"/>
<stop offset="0.5676" stop-color="#4957FF"/>
<stop offset="0.7937" stop-color="#2672FF"/>
<stop offset="1" stop-color="#0090FF"/>
</linearGradient>
<linearGradient id="paint18_linear" x1="127.813" y1="80.8975" x2="131.353" y2="80.8975" gradientUnits="userSpaceOnUse">
<stop stop-color="#7633FF"/>
<stop offset="0.1585" stop-color="#7137FF"/>
<stop offset="0.3535" stop-color="#6243FF"/>
<stop offset="0.5676" stop-color="#4957FF"/>
<stop offset="0.7937" stop-color="#2672FF"/>
<stop offset="1" stop-color="#0090FF"/>
</linearGradient>
<linearGradient id="paint19_linear" x1="127.813" y1="92.8453" x2="131.353" y2="92.8453" gradientUnits="userSpaceOnUse">
<stop stop-color="#7633FF"/>
<stop offset="0.1585" stop-color="#7137FF"/>
<stop offset="0.3535" stop-color="#6243FF"/>
<stop offset="0.5676" stop-color="#4957FF"/>
<stop offset="0.7937" stop-color="#2672FF"/>
<stop offset="1" stop-color="#0090FF"/>
</linearGradient>
<linearGradient id="paint20_linear" x1="127.813" y1="105.968" x2="131.353" y2="105.968" gradientUnits="userSpaceOnUse">
<stop stop-color="#7633FF"/>
<stop offset="0.1585" stop-color="#7137FF"/>
<stop offset="0.3535" stop-color="#6243FF"/>
<stop offset="0.5676" stop-color="#4957FF"/>
<stop offset="0.7937" stop-color="#2672FF"/>
<stop offset="1" stop-color="#0090FF"/>
</linearGradient>
<linearGradient id="paint21_linear" x1="218.763" y1="161.298" x2="285.806" y2="161.298" gradientUnits="userSpaceOnUse">
<stop stop-color="#270036"/>
<stop offset="0.5936" stop-color="#4F008B"/>
<stop offset="1" stop-color="#4C24B1"/>
</linearGradient>
<linearGradient id="paint22_linear" x1="155.442" y1="137.248" x2="155.442" y2="98.1203" gradientUnits="userSpaceOnUse">
<stop stop-color="#7633FF"/>
<stop offset="0.1585" stop-color="#7137FF"/>
<stop offset="0.3535" stop-color="#6243FF"/>
<stop offset="0.5676" stop-color="#4957FF"/>
<stop offset="0.7937" stop-color="#2672FF"/>
<stop offset="1" stop-color="#0090FF"/>
</linearGradient>
<linearGradient id="paint23_linear" x1="164.078" y1="138.306" x2="164.078" y2="119.011" gradientUnits="userSpaceOnUse">
<stop stop-color="#7633FF"/>
<stop offset="0.1585" stop-color="#7137FF"/>
<stop offset="0.3535" stop-color="#6243FF"/>
<stop offset="0.5676" stop-color="#4957FF"/>
<stop offset="0.7937" stop-color="#2672FF"/>
<stop offset="1" stop-color="#0090FF"/>
</linearGradient>
<linearGradient id="paint24_linear" x1="172.835" y1="137.601" x2="172.835" y2="124.166" gradientUnits="userSpaceOnUse">
<stop stop-color="#311341"/>
<stop offset="0.2299" stop-color="#3113C2"/>
<stop offset="0.3479" stop-color="#2F18C5"/>
<stop offset="0.4931" stop-color="#2927CC"/>
<stop offset="0.6524" stop-color="#1F40D8"/>
<stop offset="0.8219" stop-color="#1263E9"/>
<stop offset="0.9978" stop-color="#008FFF"/>
<stop offset="1" stop-color="#0090FF"/>
</linearGradient>
<linearGradient id="paint25_linear" x1="194.634" y1="177.254" x2="194.634" y2="154.227" gradientUnits="userSpaceOnUse">
<stop stop-color="#7633FF"/>
<stop offset="0.1585" stop-color="#7137FF"/>
<stop offset="0.3535" stop-color="#6243FF"/>
<stop offset="0.5676" stop-color="#4957FF"/>
<stop offset="0.7937" stop-color="#2672FF"/>
<stop offset="1" stop-color="#0090FF"/>
</linearGradient>
<linearGradient id="paint26_linear" x1="198.618" y1="177.098" x2="198.618" y2="153.575" gradientUnits="userSpaceOnUse">
<stop stop-color="#311341"/>
<stop offset="0.2299" stop-color="#3113C2"/>
<stop offset="0.3479" stop-color="#2F18C5"/>
<stop offset="0.4931" stop-color="#2927CC"/>
<stop offset="0.6524" stop-color="#1F40D8"/>
<stop offset="0.8219" stop-color="#1263E9"/>
<stop offset="0.9978" stop-color="#008FFF"/>
<stop offset="1" stop-color="#0090FF"/>
</linearGradient>
<linearGradient id="paint27_linear" x1="45.0868" y1="120.349" x2="58.0705" y2="120.349" gradientUnits="userSpaceOnUse">
<stop stop-color="#7633FF"/>
<stop offset="0.1585" stop-color="#7137FF"/>
<stop offset="0.3535" stop-color="#6243FF"/>
<stop offset="0.5676" stop-color="#4957FF"/>
<stop offset="0.7937" stop-color="#2672FF"/>
<stop offset="1" stop-color="#0090FF"/>
</linearGradient>
<linearGradient id="paint28_linear" x1="45.34" y1="122.485" x2="39.7467" y2="126.051" gradientUnits="userSpaceOnUse">
<stop stop-color="#A1BAFF"/>
<stop offset="0.4332" stop-color="white"/>
</linearGradient>
<linearGradient id="paint29_linear" x1="36.2381" y1="188.945" x2="34.4235" y2="145.408" gradientUnits="userSpaceOnUse">
<stop stop-color="#A1BAFF"/>
<stop offset="0.4332" stop-color="white"/>
<stop offset="0.5794" stop-color="#FBFCFF"/>
<stop offset="0.7123" stop-color="#F0F4FF"/>
<stop offset="0.84" stop-color="#DEE7FF"/>
<stop offset="0.9637" stop-color="#C4D4FF"/>
<stop offset="1" stop-color="#BBCDFF"/>
</linearGradient>
<linearGradient id="paint30_linear" x1="42.3014" y1="188.699" x2="40.4875" y2="145.158" gradientUnits="userSpaceOnUse">
<stop stop-color="#A1BAFF"/>
<stop offset="0.4332" stop-color="white"/>
<stop offset="0.5794" stop-color="#FBFCFF"/>
<stop offset="0.7123" stop-color="#F0F4FF"/>
<stop offset="0.84" stop-color="#DEE7FF"/>
<stop offset="0.9637" stop-color="#C4D4FF"/>
<stop offset="1" stop-color="#BBCDFF"/>
</linearGradient>
<linearGradient id="paint31_linear" x1="38.8088" y1="132.961" x2="43.5955" y2="156.991" gradientUnits="userSpaceOnUse">
<stop stop-color="#311341"/>
<stop offset="0.6346" stop-color="#3113C2"/>
<stop offset="0.6906" stop-color="#2F18C5"/>
<stop offset="0.7595" stop-color="#2927CC"/>
<stop offset="0.8351" stop-color="#1F40D8"/>
<stop offset="0.9155" stop-color="#1263E9"/>
<stop offset="0.999" stop-color="#008FFF"/>
<stop offset="1" stop-color="#0090FF"/>
</linearGradient>
<linearGradient id="paint32_linear" x1="30.4405" y1="125.838" x2="37.077" y2="125.838" gradientUnits="userSpaceOnUse">
<stop stop-color="#A1BAFF"/>
<stop offset="0.4332" stop-color="white"/>
</linearGradient>
<linearGradient id="paint33_linear" x1="33.8293" y1="112.177" x2="42.2936" y2="112.177" gradientUnits="userSpaceOnUse">
<stop stop-color="#88CFDA"/>
<stop offset="0.0506" stop-color="#93D1D5"/>
<stop offset="0.2502" stop-color="#BAD7C2"/>
<stop offset="0.4481" stop-color="#D8DBB3"/>
<stop offset="0.6414" stop-color="#EEDEA8"/>
<stop offset="0.8279" stop-color="#FBE0A2"/>
<stop offset="1" stop-color="#FFE1A0"/>
</linearGradient>
<linearGradient id="paint34_linear" x1="27.8441" y1="122.367" x2="48.3683" y2="122.367" gradientUnits="userSpaceOnUse">
<stop stop-color="#88CFDA"/>
<stop offset="0.0506" stop-color="#93D1D5"/>
<stop offset="0.2502" stop-color="#BAD7C2"/>
<stop offset="0.4481" stop-color="#D8DBB3"/>
<stop offset="0.6414" stop-color="#EEDEA8"/>
<stop offset="0.8279" stop-color="#FBE0A2"/>
<stop offset="1" stop-color="#FFE1A0"/>
</linearGradient>
<linearGradient id="paint35_linear" x1="37.304" y1="142.487" x2="44.787" y2="156.936" gradientUnits="userSpaceOnUse">
<stop stop-color="#311341"/>
<stop offset="0.6346" stop-color="#3113C2"/>
<stop offset="0.6906" stop-color="#2F18C5"/>
<stop offset="0.7595" stop-color="#2927CC"/>
<stop offset="0.8351" stop-color="#1F40D8"/>
<stop offset="0.9155" stop-color="#1263E9"/>
<stop offset="0.999" stop-color="#008FFF"/>
<stop offset="1" stop-color="#0090FF"/>
</linearGradient>
<linearGradient id="paint36_linear" x1="266.379" y1="123.634" x2="253.786" y2="123.634" gradientUnits="userSpaceOnUse">
<stop stop-color="#7633FF"/>
<stop offset="0.1585" stop-color="#7137FF"/>
<stop offset="0.3535" stop-color="#6243FF"/>
<stop offset="0.5676" stop-color="#4957FF"/>
<stop offset="0.7937" stop-color="#2672FF"/>
<stop offset="1" stop-color="#0090FF"/>
</linearGradient>
<linearGradient id="paint37_linear" x1="271.883" y1="138.257" x2="263.85" y2="178.588" gradientUnits="userSpaceOnUse">
<stop stop-color="#3822D1"/>
<stop offset="0.1652" stop-color="#3527D3"/>
<stop offset="0.3684" stop-color="#2E36DA"/>
<stop offset="0.5916" stop-color="#214FE4"/>
<stop offset="0.8272" stop-color="#0F72F2"/>
<stop offset="1" stop-color="#0090FF"/>
</linearGradient>
<linearGradient id="paint38_linear" x1="277.298" y1="115.707" x2="269.089" y2="115.707" gradientUnits="userSpaceOnUse">
<stop stop-color="#88CFDA"/>
<stop offset="0.0506" stop-color="#93D1D5"/>
<stop offset="0.2502" stop-color="#BAD7C2"/>
<stop offset="0.4481" stop-color="#D8DBB3"/>
<stop offset="0.6414" stop-color="#EEDEA8"/>
<stop offset="0.8279" stop-color="#FBE0A2"/>
<stop offset="1" stop-color="#FFE1A0"/>
</linearGradient>
<linearGradient id="paint39_linear" x1="223.645" y1="84.4404" x2="230.215" y2="84.4404" gradientUnits="userSpaceOnUse">
<stop stop-color="#7633FF"/>
<stop offset="0.1585" stop-color="#7137FF"/>
<stop offset="0.3535" stop-color="#6243FF"/>
<stop offset="0.5676" stop-color="#4957FF"/>
<stop offset="0.7937" stop-color="#2672FF"/>
<stop offset="1" stop-color="#0090FF"/>
</linearGradient>
<linearGradient id="paint40_linear" x1="227.864" y1="85.4025" x2="231.724" y2="114.466" gradientUnits="userSpaceOnUse">
<stop stop-color="#7633FF"/>
<stop offset="0.1585" stop-color="#7137FF"/>
<stop offset="0.3535" stop-color="#6243FF"/>
<stop offset="0.5676" stop-color="#4957FF"/>
<stop offset="0.7937" stop-color="#2672FF"/>
<stop offset="1" stop-color="#0090FF"/>
</linearGradient>
<linearGradient id="paint41_linear" x1="199.519" y1="96.6635" x2="227.319" y2="92.7321" gradientUnits="userSpaceOnUse">
<stop stop-color="#5E60FF"/>
<stop offset="0.1814" stop-color="#5963FF"/>
<stop offset="0.4044" stop-color="#4A6AFF"/>
<stop offset="0.6491" stop-color="#3177FF"/>
<stop offset="0.9079" stop-color="#0E89FF"/>
<stop offset="1" stop-color="#0090FF"/>
</linearGradient>
<linearGradient id="paint42_linear" x1="237.558" y1="94.6274" x2="245.081" y2="99.4172" gradientUnits="userSpaceOnUse">
<stop stop-color="#591DDB"/>
<stop offset="0.1609" stop-color="#5522DD"/>
<stop offset="0.3589" stop-color="#4931E1"/>
<stop offset="0.5762" stop-color="#364AE9"/>
<stop offset="0.8058" stop-color="#1B6DF4"/>
<stop offset="1" stop-color="#0090FF"/>
</linearGradient>
<linearGradient id="paint43_linear" x1="228.557" y1="114.215" x2="228.557" y2="162.084" gradientUnits="userSpaceOnUse">
<stop stop-color="#311341"/>
<stop offset="0.2299" stop-color="#3113C2"/>
<stop offset="0.3479" stop-color="#2F18C5"/>
<stop offset="0.4931" stop-color="#2927CC"/>
<stop offset="0.6524" stop-color="#1F40D8"/>
<stop offset="0.8219" stop-color="#1263E9"/>
<stop offset="0.9978" stop-color="#008FFF"/>
<stop offset="1" stop-color="#0090FF"/>
</linearGradient>
<linearGradient id="paint44_linear" x1="231.872" y1="158.764" x2="231.872" y2="167.622" gradientUnits="userSpaceOnUse">
<stop stop-color="#270036"/>
<stop offset="0.5936" stop-color="#4F008B"/>
<stop offset="1" stop-color="#4C24B1"/>
</linearGradient>
<linearGradient id="paint45_linear" x1="221.438" y1="158.764" x2="221.438" y2="167.622" gradientUnits="userSpaceOnUse">
<stop stop-color="#270036"/>
<stop offset="0.5936" stop-color="#4F008B"/>
<stop offset="1" stop-color="#4C24B1"/>
</linearGradient>
<linearGradient id="paint46_linear" x1="76.5312" y1="157.888" x2="113.12" y2="157.888" gradientUnits="userSpaceOnUse">
<stop stop-color="#311341"/>
<stop offset="0.2299" stop-color="#3113C2"/>
<stop offset="0.3479" stop-color="#2F18C5"/>
<stop offset="0.4931" stop-color="#2927CC"/>
<stop offset="0.6524" stop-color="#1F40D8"/>
<stop offset="0.8219" stop-color="#1263E9"/>
<stop offset="0.9978" stop-color="#008FFF"/>
<stop offset="1" stop-color="#0090FF"/>
</linearGradient>
<linearGradient id="paint47_linear" x1="60.1702" y1="184.906" x2="65.7989" y2="184.906" gradientUnits="userSpaceOnUse">
<stop stop-color="#7633FF"/>
<stop offset="0.1106" stop-color="#6640FF"/>
<stop offset="0.5243" stop-color="#2F6BFF"/>
<stop offset="0.8331" stop-color="#0D86FF"/>
<stop offset="1" stop-color="#0090FF"/>
</linearGradient>
<linearGradient id="paint48_linear" x1="67.9608" y1="209.575" x2="80.4205" y2="209.575" gradientUnits="userSpaceOnUse">
<stop stop-color="#27004F"/>
<stop offset="1" stop-color="#004C81"/>
</linearGradient>
<linearGradient id="paint49_linear" x1="43.659" y1="210.918" x2="55.8003" y2="210.918" gradientUnits="userSpaceOnUse">
<stop stop-color="#27004F"/>
<stop offset="1" stop-color="#004C81"/>
</linearGradient>
<linearGradient id="paint50_linear" x1="67.9608" y1="210.838" x2="80.2306" y2="210.838" gradientUnits="userSpaceOnUse">
<stop stop-color="#27004F"/>
<stop offset="1" stop-color="#004C81"/>
</linearGradient>
<linearGradient id="paint51_linear" x1="61.0826" y1="161.59" x2="82.5176" y2="161.59" gradientUnits="userSpaceOnUse">
<stop stop-color="#A1BAFF"/>
<stop offset="0.4332" stop-color="white"/>
</linearGradient>
<linearGradient id="paint52_linear" x1="102.895" y1="153.747" x2="71.8752" y2="157.037" gradientUnits="userSpaceOnUse">
<stop stop-color="#A1BAFF"/>
<stop offset="0.4332" stop-color="white"/>
</linearGradient>
<linearGradient id="paint53_linear" x1="100.492" y1="168.362" x2="184.504" y2="168.362" gradientUnits="userSpaceOnUse">
<stop stop-color="#611F69"/>
<stop offset="0.5936" stop-color="#4F008B"/>
<stop offset="1" stop-color="#4C24B1"/>
</linearGradient>
<linearGradient id="paint54_linear" x1="137.54" y1="167.741" x2="168.103" y2="137.053" gradientUnits="userSpaceOnUse">
<stop stop-color="#6243FF"/>
<stop offset="0.5676" stop-color="#4957FF"/>
<stop offset="0.7937" stop-color="#2672FF"/>
<stop offset="1" stop-color="#0090FF"/>
</linearGradient>
<linearGradient id="paint55_linear" x1="82.7916" y1="28.6729" x2="137.575" y2="28.6729" gradientUnits="userSpaceOnUse">
<stop stop-color="#A1BAFF"/>
<stop offset="0.0888" stop-color="#ACC2FF"/>
<stop offset="0.4988" stop-color="#D9E3FF"/>
<stop offset="0.816" stop-color="#F5F7FF"/>
<stop offset="1" stop-color="white"/>
</linearGradient>
<clipPath id="clip0">
<rect width="344.475" height="225.825" fill="white"/>
</clipPath>
</defs>
</svg>
