<svg width="742" height="459" viewBox="0 0 742 459" fill="none" xmlns="http://www.w3.org/2000/svg">
<path fill-rule="evenodd" clip-rule="evenodd" d="M35.9876 372.199C35.9876 372.199 -9.3879 382.661 1.7638 423.557C7.59115 444.928 50.2713 449.87 110.101 449.87C111.506 449.87 112.892 449.861 114.287 449.852C115.568 450.253 116.859 450.646 118.168 451.012C188.486 470.572 284.485 451.047 371.307 426.492C439.28 407.27 593.183 410.722 641.216 410.722C807.343 410.722 718.016 372.199 718.016 372.199H35.9876Z" fill="url(#paint0_linear)"/>
<path opacity="0.5" d="M696.016 399.831H283.906V371.369H665.731L696.016 399.831Z" fill="#000640"/>
<path opacity="0.5" fill-rule="evenodd" clip-rule="evenodd" d="M358.647 431.505C358.647 440.076 291.594 447.033 208.882 447.033C126.169 447.033 59.1167 440.085 59.1167 431.505C59.1167 422.933 126.169 415.976 208.882 415.976C291.604 415.985 358.647 422.933 358.647 431.505Z" fill="#000640"/>
<path d="M26.4494 374.375H730.866C730.866 374.375 755.258 218.346 647.006 122.015C538.754 25.6845 381.709 100.305 381.709 100.305C381.709 100.305 294.232 -41.524 165.195 12.1179C-43.6877 98.9494 26.4494 374.375 26.4494 374.375Z" fill="url(#paint1_linear)"/>
<path opacity="0.8" d="M146.764 46.3421C146.679 46.3421 146.593 46.3332 146.508 46.3332C133.316 46.3332 122.62 56.3855 122.62 68.7836C122.62 81.1817 133.316 91.234 146.508 91.234C159.7 91.234 170.396 81.1817 170.396 68.7836H146.764V46.3421Z" fill="url(#paint2_linear)"/>
<path d="M92.5718 168.905H84.7419V235.338H92.5718V168.905Z" fill="url(#paint3_linear)"/>
<path d="M107.681 191.472H99.8513V235.347H107.681V191.472Z" fill="url(#paint4_linear)"/>
<path d="M122.8 177.165H114.97V235.677H122.8V177.165Z" fill="url(#paint5_linear)"/>
<path d="M137.919 171.474H130.089V235.347H137.919V171.474Z" fill="url(#paint6_linear)"/>
<path d="M153.028 192.827H145.198V235.347H153.028V192.827Z" fill="url(#paint7_linear)"/>
<path d="M168.147 201.167H160.317V235.347H168.147V201.167Z" fill="url(#paint8_linear)"/>
<path d="M183.266 175.729H175.436V235.347H183.266V175.729Z" fill="url(#paint9_linear)"/>
<path d="M198.375 186.477H190.545V235.347H198.375V186.477Z" fill="url(#paint10_linear)"/>
<path d="M213.494 177.887H205.664V235.347H213.494V177.887Z" fill="url(#paint11_linear)"/>
<path d="M228.613 196.199H220.783V235.347H228.613V196.199Z" fill="url(#paint12_linear)"/>
<path d="M243.732 188.751H235.902V235.347H243.732V188.751Z" fill="url(#paint13_linear)"/>
<path d="M238.882 183.97C238.882 183.979 238.721 183.961 238.408 183.917C238.066 183.863 237.61 183.801 237.041 183.712C236.443 183.605 235.693 183.515 234.811 183.435C234.364 183.39 233.89 183.346 233.377 183.292C232.865 183.275 232.324 183.248 231.745 183.221C229.439 183.123 226.601 183.185 223.355 183.649C220.119 184.095 216.465 184.934 212.64 186.387C208.825 187.841 204.82 189.893 201.09 192.801C197.303 195.655 194 199.446 190.745 203.575C187.461 207.669 184.111 212.165 179.451 215.786C177.144 217.597 174.525 219.167 171.611 220.237C168.698 221.29 165.452 221.744 162.263 221.316C159.055 220.951 156.084 219.711 153.446 218.177C150.826 216.589 148.501 214.689 146.451 212.629C142.313 208.517 139.314 203.843 136.144 199.669C133.012 195.476 129.709 191.65 125.847 188.894C123.939 187.493 121.86 186.486 119.801 185.665C117.722 184.88 115.616 184.398 113.594 184.095C109.522 183.524 105.745 183.854 102.566 184.541C99.3767 185.237 96.7763 186.334 94.7642 187.378C92.7901 188.501 91.357 189.527 90.4554 190.285C90.0283 190.651 89.6866 190.945 89.4304 191.159C89.1931 191.356 89.0697 191.454 89.0597 191.445C89.0507 191.436 89.1646 191.329 89.3829 191.115C89.6297 190.883 89.9524 190.58 90.37 190.196C91.2526 189.402 92.6667 188.341 94.6408 187.172C96.6529 186.084 99.2628 184.942 102.49 184.202C105.698 183.48 109.522 183.105 113.67 183.658C115.729 183.952 117.874 184.425 120 185.219C122.098 186.04 124.243 187.074 126.188 188.484C130.136 191.266 133.487 195.129 136.647 199.33C139.836 203.522 142.845 208.16 146.926 212.201C148.947 214.234 151.244 216.089 153.797 217.641C156.379 219.14 159.254 220.344 162.348 220.692C165.423 221.102 168.546 220.665 171.374 219.648C174.202 218.614 176.765 217.08 179.033 215.305C183.608 211.755 186.948 207.304 190.251 203.21C191.903 201.158 193.535 199.16 195.262 197.323C196.135 196.413 196.99 195.512 197.929 194.709C198.394 194.299 198.85 193.898 199.305 193.496C199.77 193.113 200.254 192.756 200.729 192.381C204.525 189.456 208.587 187.395 212.45 185.959C216.322 184.514 220.014 183.703 223.289 183.283C226.563 182.855 229.42 182.82 231.735 182.953C232.314 182.989 232.865 183.016 233.377 183.052C233.89 183.114 234.364 183.168 234.811 183.221C235.703 183.319 236.443 183.426 237.041 183.551C237.61 183.667 238.066 183.747 238.398 183.819C238.73 183.926 238.882 183.961 238.882 183.97ZM76.1148 239.976C75.9344 239.976 75.7826 221.031 75.7826 197.671C75.7826 174.301 75.925 155.356 76.1148 155.356C76.2951 155.356 76.4469 174.293 76.4469 197.671C76.4469 221.031 76.3046 239.976 76.1148 239.976ZM246.921 239.976C246.921 240.145 209.783 240.288 163.981 240.288C118.159 240.288 81.031 240.154 81.031 239.976C81.031 239.806 118.159 239.664 163.981 239.664C209.783 239.664 246.921 239.806 246.921 239.976ZM95.9031 245.203C95.9031 245.372 93.3026 245.515 90.0947 245.515C86.8868 245.515 84.2864 245.372 84.2864 245.203C84.2864 245.033 86.8868 244.891 90.0947 244.891C93.3026 244.891 95.9031 245.033 95.9031 245.203ZM115.179 245.47C115.179 245.64 112.066 245.783 108.232 245.783C104.397 245.783 101.284 245.64 101.284 245.47C101.284 245.301 104.397 245.158 108.232 245.158C112.066 245.158 115.179 245.301 115.179 245.47ZM131.617 245.47C131.617 245.64 128.504 245.783 124.67 245.783C120.835 245.783 117.722 245.64 117.722 245.47C117.722 245.301 120.835 245.158 124.67 245.158C128.514 245.158 131.617 245.301 131.617 245.47ZM148.055 245.47C148.055 245.64 144.942 245.783 141.108 245.783C137.274 245.783 134.161 245.64 134.161 245.47C134.161 245.301 137.264 245.158 141.108 245.158C144.952 245.158 148.055 245.301 148.055 245.47ZM164.503 245.47C164.503 245.64 161.39 245.783 157.555 245.783C153.721 245.783 150.608 245.64 150.608 245.47C150.608 245.301 153.721 245.158 157.555 245.158C161.39 245.158 164.503 245.301 164.503 245.47ZM180.941 245.47C180.941 245.64 177.828 245.783 173.993 245.783C170.159 245.783 167.046 245.64 167.046 245.47C167.046 245.301 170.159 245.158 173.993 245.158C177.828 245.158 180.941 245.301 180.941 245.47ZM197.379 245.47C197.379 245.64 194.266 245.783 190.432 245.783C186.597 245.783 183.484 245.64 183.484 245.47C183.484 245.301 186.597 245.158 190.432 245.158C194.266 245.158 197.379 245.301 197.379 245.47ZM213.817 245.47C213.817 245.64 210.704 245.783 206.87 245.783C203.035 245.783 199.922 245.64 199.922 245.47C199.922 245.301 203.035 245.158 206.87 245.158C210.704 245.158 213.817 245.301 213.817 245.47ZM230.255 245.47C230.255 245.64 227.142 245.783 223.308 245.783C219.473 245.783 216.36 245.64 216.36 245.47C216.36 245.301 219.473 245.158 223.308 245.158C227.151 245.158 230.255 245.301 230.255 245.47ZM246.693 245.47C246.693 245.64 243.58 245.783 239.746 245.783C235.911 245.783 232.798 245.64 232.798 245.47C232.798 245.301 235.911 245.158 239.746 245.158C243.59 245.158 246.693 245.301 246.693 245.47Z" fill="white"/>
<path d="M138.251 200.462C138.232 200.382 138.925 200.48 139.191 201.319C139.305 201.711 139.305 202.264 138.877 202.746C138.46 203.236 137.625 203.343 136.998 203.058C136.362 202.799 135.888 202.148 136.002 201.524C136.097 200.917 136.543 200.543 136.932 200.364C137.776 199.99 138.317 200.409 138.242 200.454C138.213 200.543 137.729 200.373 137.169 200.739C136.903 200.917 136.638 201.23 136.609 201.586C136.571 201.934 136.837 202.309 137.273 202.496C137.71 202.675 138.185 202.621 138.441 202.362C138.707 202.113 138.783 201.711 138.745 201.408C138.659 200.775 138.194 200.552 138.251 200.462ZM213.921 184.425C213.921 184.389 214.073 184.336 214.367 184.381C214.652 184.425 215.06 184.604 215.392 184.996C215.725 185.371 215.971 186.049 215.668 186.726C215.373 187.378 214.633 187.886 213.75 187.886C212.83 187.886 212.156 187.19 211.966 186.557C211.738 185.897 211.957 185.21 212.336 184.853C213.115 184.122 213.845 184.238 213.826 184.291C213.864 184.389 213.209 184.479 212.697 185.13C212.45 185.442 212.355 185.906 212.536 186.379C212.716 186.842 213.181 187.27 213.76 187.27C214.339 187.279 214.899 186.914 215.117 186.494C215.345 186.066 215.231 185.585 215.013 185.255C214.567 184.559 213.902 184.523 213.921 184.425Z" fill="white"/>
<path d="M215.155 153.412C214.975 153.412 214.823 153.011 214.823 152.52C214.823 152.029 214.975 151.628 215.155 151.628C215.335 151.628 215.486 152.029 215.486 152.52C215.477 153.011 215.335 153.412 215.155 153.412ZM215.155 161.136C214.975 161.136 214.823 160.271 214.823 159.201C214.823 158.13 214.975 157.265 215.155 157.265C215.335 157.265 215.486 158.13 215.486 159.201C215.477 160.271 215.335 161.136 215.155 161.136ZM215.155 168.87C214.975 168.87 214.823 168.004 214.823 166.934C214.823 165.864 214.975 164.998 215.155 164.998C215.335 164.998 215.486 165.864 215.486 166.934C215.477 168.004 215.335 168.87 215.155 168.87ZM215.155 176.603C214.975 176.603 214.823 175.738 214.823 174.667C214.823 173.597 214.975 172.732 215.155 172.732C215.335 172.732 215.486 173.597 215.486 174.667C215.477 175.738 215.335 176.603 215.155 176.603ZM215.155 182.249C214.975 182.249 214.823 181.847 214.823 181.357C214.823 180.866 214.975 180.465 215.155 180.465C215.335 180.465 215.486 180.866 215.486 181.357C215.477 181.847 215.335 182.249 215.155 182.249Z" fill="white"/>
<path d="M269.822 364.733C269.822 364.733 260.141 377.069 227.275 376.329C203.32 375.793 179.574 358.748 179.574 358.748C179.574 358.748 220.223 333.435 269.822 364.733Z" fill="#00759F"/>
<path d="M269.31 366.026C269.31 366.026 249.483 368.033 223.032 339.625C203.757 318.914 200.444 284.752 200.444 284.752C200.444 284.752 258.3 298.202 269.31 366.026Z" fill="#005CB4"/>
<path d="M268.417 365.518C268.417 365.518 250.347 357.598 243.362 320.421C238.265 293.323 254.257 262.48 254.257 262.48C254.257 262.48 296.33 302.127 268.417 365.518Z" fill="#741AAC"/>
<path d="M625.832 372.208C625.832 372.208 635.455 384.472 668.113 383.732C691.916 383.197 715.51 366.258 715.51 366.258C715.51 366.258 675.117 341.105 625.832 372.208Z" fill="#00759F"/>
<path d="M626.335 373.492C626.335 373.492 646.028 375.49 672.318 347.251C691.479 326.674 694.763 292.717 694.763 292.717C694.763 292.717 637.278 306.096 626.335 373.492Z" fill="#005CB4"/>
<path d="M627.227 372.993C627.227 372.993 645.183 365.117 652.121 328.181C657.18 301.253 641.292 270.605 641.292 270.605C641.292 270.605 599.485 310.003 627.227 372.993Z" fill="#741AAC"/>
<path opacity="0.3" d="M91.9454 208.865L265.57 138.151L484.238 378.879L86.4123 222.494" fill="#83FFFF"/>
<path d="M631.137 138.151H265.57V377.408H631.137V138.151Z" fill="url(#paint14_linear)"/>
<path d="M616.73 152.083H291.404V282.424H616.73V152.083Z" fill="url(#paint15_linear)"/>
<path d="M460.208 289.631H291.404V365.527H460.208V289.631Z" fill="url(#paint16_linear)"/>
<path d="M399.922 221.789H382.896V279.24H399.922V221.789Z" fill="#A600A9"/>
<path d="M419.169 210.907H402.143V279.24H419.169V210.907Z" fill="url(#paint17_linear)"/>
<path d="M438.493 173.659H421.466V279.249H438.493V173.659Z" fill="#A600A9"/>
<path d="M279.123 168.013C281.23 168.013 282.938 166.408 282.938 164.428C282.938 162.447 281.23 160.842 279.123 160.842C277.016 160.842 275.308 162.447 275.308 164.428C275.308 166.408 277.016 168.013 279.123 168.013Z" fill="url(#paint18_linear)"/>
<path d="M279.123 192.301C281.23 192.301 282.938 190.696 282.938 188.715C282.938 186.735 281.23 185.13 279.123 185.13C277.016 185.13 275.308 186.735 275.308 188.715C275.308 190.696 277.016 192.301 279.123 192.301Z" fill="url(#paint19_linear)"/>
<path d="M279.123 218.97C281.23 218.97 282.938 217.365 282.938 215.385C282.938 213.405 281.23 211.799 279.123 211.799C277.016 211.799 275.308 213.405 275.308 215.385C275.308 217.365 277.016 218.97 279.123 218.97Z" fill="url(#paint20_linear)"/>
<path d="M587.593 317.13C574.866 320.617 574.914 315.069 559.728 312.643C544.552 310.217 539.845 315.069 532.528 320.091C525.22 325.104 513.916 319.85 506.95 317.62C499.974 315.39 489.534 318.896 481.401 325.211C478.734 327.289 475.004 328.457 471.207 329.109V357.25H615.62V298.425C606.281 303.099 597.739 314.347 587.593 317.13Z" fill="url(#paint21_linear)"/>
<path d="M587.593 325.398C574.866 328.886 574.914 323.338 559.728 320.912C544.552 318.485 539.845 323.338 532.528 328.359C525.21 333.381 513.916 328.119 506.95 325.889C499.974 323.659 489.534 327.164 481.401 333.479C478.734 335.557 475.004 336.726 471.207 337.377V365.518H615.62V306.694C606.281 311.377 597.739 322.615 587.593 325.398Z" fill="#00759F"/>
<path d="M324.603 218.177H307.576V279.24H324.603V218.177Z" fill="#A600A9"/>
<path d="M343.338 200.204H326.311V279.24H343.338V200.204Z" fill="url(#paint22_linear)"/>
<path d="M361.94 241.082H344.913V279.249H361.94V241.082Z" fill="url(#paint23_linear)"/>
<path d="M380.798 252.16H363.772V279.24H380.798V252.16Z" fill="url(#paint24_linear)"/>
<path d="M422.026 318.057H416.455V357.571H422.026V318.057Z" fill="url(#paint25_linear)"/>
<path d="M413.446 334.683H407.875V357.562H413.446V334.683Z" fill="#005CB4"/>
<path d="M404.867 331.116H399.296V357.571H404.867V331.116Z" fill="#A600A9"/>
<path d="M396.287 346.903H390.716V357.571H396.287V346.903Z" fill="#005CB4"/>
<path d="M439.195 309.423H433.624V357.562H439.195V309.423Z" fill="#00759F"/>
<path d="M430.606 313.829H425.035V357.571H430.606V313.829Z" fill="url(#paint26_linear)"/>
<path d="M456.354 304.66H450.783V357.562H456.354V304.66Z" fill="#A600A9"/>
<path d="M447.775 294.215H442.204V357.571H447.775V294.215Z" fill="#005CB4"/>
<path d="M396.134 362.53C396.134 362.655 395.034 362.753 393.667 362.753C392.31 362.753 391.199 362.655 391.199 362.53C391.199 362.405 392.3 362.298 393.667 362.298C395.034 362.298 396.134 362.405 396.134 362.53ZM404.6 362.53C404.6 362.655 403.499 362.753 402.133 362.753C400.775 362.753 399.675 362.655 399.675 362.53C399.675 362.405 400.775 362.298 402.133 362.298C403.499 362.298 404.6 362.405 404.6 362.53ZM413.057 362.53C413.057 362.655 411.956 362.753 410.598 362.753C409.241 362.753 408.14 362.655 408.14 362.53C408.14 362.405 409.241 362.298 410.598 362.298C411.956 362.298 413.057 362.405 413.057 362.53ZM421.513 362.53C421.513 362.655 420.412 362.753 419.055 362.753C417.698 362.753 416.587 362.655 416.587 362.53C416.587 362.405 417.688 362.298 419.055 362.298C420.412 362.298 421.513 362.405 421.513 362.53ZM429.979 362.53C429.979 362.655 428.878 362.753 427.521 362.753C426.163 362.753 425.053 362.655 425.053 362.53C425.053 362.405 426.154 362.298 427.521 362.298C428.878 362.298 429.979 362.405 429.979 362.53ZM438.435 362.53C438.435 362.655 437.334 362.753 435.967 362.753C434.61 362.753 433.5 362.655 433.5 362.53C433.5 362.405 434.601 362.298 435.967 362.298C437.334 362.298 438.435 362.405 438.435 362.53ZM446.901 362.53C446.901 362.655 445.8 362.753 444.433 362.753C443.076 362.753 441.975 362.655 441.975 362.53C441.975 362.405 443.076 362.298 444.433 362.298C445.79 362.298 446.901 362.405 446.901 362.53ZM455.357 362.53C455.357 362.655 454.256 362.753 452.89 362.753C451.532 362.753 450.431 362.655 450.431 362.53C450.431 362.405 451.532 362.298 452.89 362.298C454.256 362.298 455.357 362.405 455.357 362.53Z" fill="#1A2E35"/>
<path opacity="0.5" d="M96.7098 398.788C125.34 398.788 148.549 395.581 148.549 391.625C148.549 387.67 125.34 384.463 96.7098 384.463C68.08 384.463 44.871 387.67 44.871 391.625C44.871 395.581 68.08 398.788 96.7098 398.788Z" fill="#000640"/>
<path d="M102.385 228.603L95.476 257.128C95.2862 257.904 95.8461 258.671 96.6908 258.778L118.197 261.677C118.947 261.775 119.649 261.32 119.82 260.633L126.729 232.118C126.919 231.342 126.359 230.575 125.524 230.459L104.018 227.56C103.258 227.453 102.556 227.908 102.385 228.603Z" fill="black"/>
<path d="M103.733 229.522L97.1179 256.825L118.472 259.706L125.087 232.403L103.733 229.522Z" fill="url(#paint27_linear)"/>
<path d="M122.819 234.41L104.682 231.966" stroke="#A1D2F0" stroke-width="1.481" stroke-linecap="round" stroke-linejoin="round"/>
<path d="M122.212 236.997L104.065 234.544" stroke="#A1D2F0" stroke-width="1.481" stroke-linecap="round" stroke-linejoin="round"/>
<path d="M114.657 239.137L103.315 237.603" stroke="#A1D2F0" stroke-width="1.481" stroke-linecap="round" stroke-linejoin="round"/>
<path d="M113.85 241.35L102.509 239.824" stroke="#A1D2F0" stroke-width="1.481" stroke-linecap="round" stroke-linejoin="round"/>
<path d="M113.043 243.57L101.702 242.045" stroke="#A1D2F0" stroke-width="1.481" stroke-linecap="round" stroke-linejoin="round"/>
<path d="M117.2 255.826L105.868 254.301" stroke="#A1D2F0" stroke-width="1.481" stroke-linecap="round" stroke-linejoin="round"/>
<path d="M94.1093 257.458C95.3241 256.923 96.2352 255.924 97.0989 254.952C97.9531 253.997 98.8072 253.043 99.6614 252.089C100.003 251.714 100.354 251.295 100.392 250.804C98.9591 250.697 98.0385 252.445 96.6054 252.543C97.2697 250.331 98.2283 248.191 99.4526 246.193C99.7468 245.702 100.07 245.14 99.8607 244.614C98.3137 245.167 97.004 246.202 95.8841 247.343C95.0963 248.146 94.3655 249.011 93.7297 249.921C91.841 252.606 90.6641 255.692 89.8669 258.832" fill="url(#paint28_linear)"/>
<path d="M87.9877 297.703L81.3062 312.099C84.125 316.568 85.7479 321.848 85.9662 327.191C86.0801 329.974 85.8144 332.748 85.8998 335.531C85.9093 335.727 85.9377 335.941 85.9852 336.137C86.8773 332.016 87.5512 328.618 87.8074 326.415C88.5382 320.225 88.5382 310.387 88.3104 297.685C88.2155 297.685 88.1016 297.685 87.9877 297.703Z" fill="#F2A181"/>
<path d="M87.9487 280.435L72.5925 268.26C72.5925 268.26 65.446 277.366 68.1414 286.152C69.4701 290.469 71.131 292.619 71.8523 294.67C72.5261 296.588 77.1481 323.694 76.8065 325.683C76.4648 327.664 73.9782 333.212 73.0291 339.045C71.9851 345.458 72.0611 365.108 71.4062 373.055H71.3967C71.3967 373.055 70.8747 378.986 70.1249 380.28C69.3847 381.573 68.3312 383.018 68.1509 384.775C68.0465 385.792 68.6444 386.871 69.8877 387.469C71.131 388.067 71.9662 387.442 72.4122 387.496C75.0127 387.79 75.4778 389.645 79.9384 390.341C81.3146 390.555 83.4216 390.118 84.6269 389.226C85.1014 388.878 85.0824 388.316 84.8167 387.924C84.551 387.54 81.2577 386.479 79.7771 385.578C78.363 384.722 76.9773 382.367 76.5882 381.564C76.4933 381.359 76.5123 380.77 76.5977 380.03C76.797 378.763 77.0248 377.443 77.2715 376.079C77.4708 375.106 77.6322 374.402 77.6322 374.402L77.5847 374.393C80.8401 357.125 86.8952 334.309 87.8253 326.442C88.8503 317.656 88.4327 301.61 87.9487 280.435Z" fill="url(#paint29_linear)"/>
<path d="M84.9697 389.512C85.2923 388.985 85.3778 388.2 85.0741 388.004C84.6565 387.737 83.1569 386.809 82.2933 386.434C81.4296 386.06 80.0534 385.73 80.5375 385.979C81.0215 386.229 80.1294 387.148 79.3226 387.094C76.5228 386.934 74.4633 385.186 72.8689 384.811C70.5721 384.267 69.6041 381.716 69.4997 381.306C69.0631 381.564 68.0571 383.625 67.8483 384.267C67.6679 384.856 67.3263 385.917 67.5066 386.523C67.63 386.943 67.8957 387.79 67.7628 388.682C67.7628 388.682 68.2184 389.012 69.4142 389.244C70.1735 389.396 71.1985 389.271 71.1985 389.271L71.3978 387.915C71.3978 387.915 72.0242 387.897 72.8214 388.049C73.6187 388.2 74.9189 388.914 74.9948 389.003C75.3175 389.36 75.5738 390.02 75.9914 390.216C77.1113 390.742 78.2407 391.001 79.6643 391.081C82.6634 391.224 84.4097 390.404 84.9697 389.512Z" fill="black"/>
<path d="M108.915 389.244C108.583 388.905 105.024 388.361 103.363 387.701C101.778 387.076 99.8513 385.07 99.4716 384.213C99.092 383.366 99.1869 379.049 99.2344 377.238C99.5665 364.76 102.025 334.264 102.376 326.968C102.993 314.275 101.237 301.173 96.0454 280.8L76.6937 266.841C76.6937 266.841 71.2744 276.305 73.0872 285.358C74.1407 290.612 78.7722 291.415 79.5599 293.457C80.3477 295.5 92.0498 328.404 92.0498 328.404C92.0498 328.404 89.772 335.522 89.6392 343.317C89.5253 349.971 92.7332 370.04 93.3311 377.684C93.3975 379.174 93.6727 382.759 93.2077 383.892C92.6382 385.284 91.1672 386.925 91.2431 388.682C91.2811 389.708 92.0688 390.671 93.445 391.072C94.8116 391.474 95.5804 390.725 96.0549 390.707C98.7788 390.6 99.5381 392.366 104.246 392.357C105.698 392.357 107.805 391.608 108.924 390.528C109.342 390.145 109.247 389.592 108.915 389.244Z" fill="url(#paint30_linear)"/>
<path d="M109.323 390.814C109.579 390.243 109.541 389.449 109.209 389.306C108.735 389.11 107.055 388.414 106.106 388.182C105.157 387.942 103.695 387.826 104.227 387.995C104.758 388.165 103.98 389.208 103.135 389.289C100.221 389.556 97.8297 388.147 96.1309 388.022C93.6727 387.844 92.7711 385.471 92.6098 385.07C92.2017 385.391 90.9868 387.576 90.8729 388.254C90.7685 388.86 90.5882 389.966 90.8635 390.537C91.0533 390.93 91.4614 391.732 91.4519 392.624C91.4519 392.624 91.9739 392.874 93.2456 392.928C94.0524 392.954 95.0869 392.678 95.0869 392.678V391.304C95.0869 391.304 95.7322 391.188 96.5769 391.215C97.4216 391.242 98.4656 391.652 98.9781 392.009C99.3767 392.294 99.7943 392.767 100.269 392.883C101.636 393.204 102.613 393.293 104.094 393.151C107.197 392.856 108.877 391.777 109.323 390.814Z" fill="black"/>
<path d="M73.0018 266.725C71.692 268.081 67.0131 275.413 66.9561 281.371C66.9087 287.338 69.1675 291.165 69.3668 292.405C70.8473 301.52 72.2899 312.509 72.2899 313.107C72.2899 313.705 77.7946 317.156 85.1974 316.719C98.8737 315.908 104.189 312.545 104.189 312.545C104.189 312.545 103.543 290.469 101.436 279.587C100.383 274.138 95.7797 265.352 95.7797 265.352" fill="url(#paint31_linear)"/>
<path d="M60.5206 242.893C60.5206 242.893 62.7225 253.177 63.3014 255.005C63.8803 256.834 66.7371 268.456 69.442 268.251C72.1468 268.046 86.981 256.415 86.981 256.415L84.8835 252.463L71.8241 258.314C71.8241 258.314 70.6473 245.033 69.6128 241.867" fill="white"/>
<path d="M65.5705 249.225C66.9561 253.819 69.7844 258.653 70.6291 262.221C70.7999 262.935 79.8446 259.849 79.8636 256.655" fill="url(#paint32_linear)"/>
<path d="M64.4126 236.907C64.4126 236.907 63.938 245.497 65.5894 249.832C67.2219 249.805 68.655 249.448 68.655 249.448L64.4126 236.907Z" fill="#B03D44"/>
<path d="M90.0567 201.675C92.6667 204.851 92.1542 209.328 91.5088 213.298C91.1861 215.304 90.8539 217.311 90.5312 219.318C90.3794 220.273 90.1706 221.316 89.3829 221.932C88.5856 222.547 87.4467 222.538 86.4122 222.503C86.4217 224.162 86.4312 225.821 86.4407 227.489C83.4131 227.551 80.3951 227.569 77.3675 227.524C77.3675 226.356 77.0923 225.196 76.5893 224.144C75.1087 224.117 74.1217 222.726 73.5427 221.441C72.8784 219.969 72.3848 218.426 71.9198 216.883C71.2934 214.841 70.6955 212.762 70.6385 210.631C70.5816 208.499 71.1226 206.287 72.5557 204.646C73.5332 203.522 74.8714 202.728 76.2381 202.059C78.1173 201.14 80.3666 200.418 82.3027 201.221" fill="white"/>
<path d="M87.4278 208.963C87.6651 209.311 87.6081 209.783 87.8359 210.14C88.2155 210.747 88.709 210.961 89.3829 211.255C90.4648 211.728 90.2181 213.217 90.1801 213.877C90.9963 213.369 91.1292 211.969 91.3285 211.264C91.5468 210.47 91.6892 209.649 91.9454 208.865C92.1827 208.097 92.6003 207.375 92.6762 206.563C92.9419 203.772 91.0817 200.489 88.8229 198.928C87.181 197.787 84.6849 197.831 82.8342 198.991C82.056 199.481 81.4676 200.213 81.1259 201.033C80.974 201.381 80.8791 201.791 81.0595 202.13" fill="black"/>
<path d="M72.8689 228.675C73.0207 227.703 73.3055 226.57 74.264 226.186C74.5298 226.079 74.824 226.044 75.1182 226.017C78.0699 225.714 81.0405 225.58 84.0016 225.624C85.2259 225.642 86.4977 225.705 87.5986 226.213C89.3165 227.025 90.2655 228.764 91.1007 230.396" fill="url(#paint33_linear)"/>
<path d="M96.8332 247.326C96.8332 248.235 96.2922 249.457 96.1214 249.93C95.4475 250.26 92.7711 250.795 91.2336 250.135C90.8919 247.129 89.0222 241.349 89.0222 241.349C89.0222 241.349 96.8332 246.487 96.8332 247.326Z" fill="#B03D44"/>
<path d="M93.3975 245.229C93.3975 245.229 102.262 265.352 106.106 265.352C108.905 265.352 115.758 246.772 115.758 246.772L111.421 244.846L106.59 252.624L101.702 238.112" fill="white"/>
<path d="M110.566 246.228C110.566 246.228 111.999 244.106 111.895 242.598C111.857 242.027 111.487 239.289 111.791 238.754C112.094 238.219 112.825 236.453 113.243 236.114C113.66 235.775 115.198 235.222 115.577 235.463C115.957 235.703 116.422 234.58 117.049 234.678C117.675 234.776 118.187 235.266 118.187 235.802C118.187 236.337 119.023 236.435 119.127 236.827C119.231 237.22 119.184 237.559 119.336 237.853C119.488 238.147 119.953 238.005 120.114 238.736C120.266 239.405 120.067 239.467 120.114 239.815C120.162 240.154 120.475 240.127 120.37 240.779C120.266 241.43 119.791 242.277 119.374 243.008C118.956 243.74 118.102 244.659 116.954 245.31C116.394 245.631 116.081 246.193 115.54 247.138" fill="white"/>
<path d="M112.949 230.682C112.835 230.521 112.54 230.254 112.18 230.485C111.829 230.717 111.933 231.119 112.009 231.288C112.085 231.449 114.628 236.863 114.628 236.863C114.628 236.863 114.837 237.095 115.245 236.756C115.682 236.39 115.549 236.212 115.549 236.212C115.549 236.212 113.053 230.842 112.949 230.682Z" fill="black"/>
<path d="M115.701 235.846C115.198 236.685 114.619 236.952 114.106 237.407C113.698 237.764 113.746 237.996 113.3 238.37C114.087 238.317 113.955 237.88 114.97 237.184C115.445 236.863 115.929 236.515 116.024 235.971C116.062 235.793 115.824 235.686 115.701 235.846Z" fill="black"/>
<path d="M96.8427 248.895C99.6994 248.405 101.911 246.541 104.179 244.364C102.917 241.091 101.123 233.036 98.0005 229.959C94.7737 226.793 89.3354 227.185 86.4218 227.274C83.4037 227.15 80.9171 227.488 77.3106 227.64C74.9094 227.738 72.5177 228.006 70.164 228.487C69.8983 228.541 69.6325 228.603 69.3668 228.666V228.639C69.3668 228.639 65.039 229.076 62.8371 230.655C57.2375 234.678 61.5748 249.297 61.5748 249.297C61.5748 249.297 61.2996 250.073 65.0579 249.876C65.6938 249.841 66.3107 249.787 66.8992 249.716C68.8543 254.024 73.7705 262.908 72.3374 264.808C71.9673 265.298 71.0277 266.244 70.9138 266.859C70.4962 269.116 75.9344 269.919 78.2597 270.097C81.7997 270.373 85.8713 270.186 89.4208 270.035C92.1162 269.919 98.0005 269.036 98.4181 265.905C98.5035 265.289 98.1809 264.799 97.8582 264.353C97.4406 263.782 96.4915 263.095 96.1498 262.462C95.3336 260.946 94.6123 254.568 94.897 252.945C95.1153 251.643 96.0644 250.795 96.8427 248.895Z" fill="url(#paint34_linear)"/>
<path d="M87.8074 316.523C86.9342 311.225 81.5435 294.813 81.3157 294.358C78.3735 292.217 76.4374 290.005 75.4599 288.221C74.7955 291.816 76.5418 295.375 78.1742 298.693C81.031 304.482 82.7298 310.77 85.1879 316.719" fill="url(#paint35_linear)"/>
<path d="M86.9342 216.821C86.5736 215.153 86.6021 214.207 87.181 213.092C87.3708 212.727 87.6271 212.379 87.9782 212.147C88.4528 211.835 89.0697 211.772 89.5917 211.986C89.9333 212.129 90.2086 212.388 90.4079 212.7C91.0248 210.461 91.1576 208.071 90.9773 205.743C90.6926 202.05 88.3294 199.196 84.8652 197.858C78.459 195.387 69.2624 197.831 66.6619 203.736C64.6973 208.196 65.6938 214.635 69.4522 218.382C72.7835 221.691 77.5668 222.181 81.9895 221.495C84.2483 221.147 87.7409 221.352 88.9083 218.462C89.0032 218.239 88.7944 218.016 88.5572 218.034C87.6366 218.105 87.0007 217.133 86.9342 216.821Z" fill="black"/>
<path d="M74.4444 219.425C72.6031 218.935 70.6101 219.907 69.3763 221.298C67.9526 222.895 67.3452 225.384 68.6645 227.043C69.158 227.667 69.8698 228.104 70.5911 228.488C72.793 229.638 75.3934 230.316 77.8421 229.754C80.2812 229.192 82.4261 227.132 82.3977 224.768C82.3692 222.627 80.7083 220.843 79.0284 219.399" fill="black"/>
<path opacity="0.5" d="M635.826 394.23C635.826 399.466 613.199 403.711 585.296 403.711C557.393 403.711 534.767 399.466 534.767 394.23C534.767 388.994 557.384 384.748 585.296 384.748C613.209 384.748 635.826 388.994 635.826 394.23Z" fill="#000640"/>
<path d="M568.669 235.757L575.369 263.416C575.549 264.166 575.008 264.906 574.192 265.022L553.331 267.84C552.61 267.939 551.917 267.493 551.756 266.824L545.055 239.164C544.875 238.406 545.416 237.666 546.232 237.559L567.093 234.749C567.824 234.642 568.507 235.088 568.669 235.757Z" fill="black"/>
<path d="M567.368 236.649L573.784 263.14L553.066 265.932L546.65 239.441L567.368 236.649Z" fill="url(#paint36_linear)"/>
<path d="M548.842 241.394L566.448 239.022" stroke="#A1D2F0" stroke-width="1.436" stroke-linecap="round" stroke-linejoin="round"/>
<path d="M549.439 243.901L567.035 241.528" stroke="#A1D2F0" stroke-width="1.436" stroke-linecap="round" stroke-linejoin="round"/>
<path d="M556.767 245.979L567.767 244.489" stroke="#A1D2F0" stroke-width="1.436" stroke-linecap="round" stroke-linejoin="round"/>
<path d="M557.545 248.128L568.545 246.639" stroke="#A1D2F0" stroke-width="1.436" stroke-linecap="round" stroke-linejoin="round"/>
<path d="M558.333 250.278L569.333 248.797" stroke="#A1D2F0" stroke-width="1.436" stroke-linecap="round" stroke-linejoin="round"/>
<path d="M554.299 262.168L565.299 260.687" stroke="#A1D2F0" stroke-width="1.436" stroke-linecap="round" stroke-linejoin="round"/>
<path d="M576.698 263.755C575.521 263.229 574.638 262.266 573.803 261.32C572.977 260.393 572.142 259.465 571.316 258.537C570.984 258.172 570.643 257.77 570.605 257.298C572 257.191 572.892 258.885 574.278 258.983C573.632 256.834 572.702 254.756 571.516 252.82C571.231 252.347 570.918 251.794 571.117 251.286C572.617 251.821 573.888 252.829 574.98 253.935C575.749 254.711 576.451 255.549 577.068 256.432C578.9 259.037 580.039 262.034 580.817 265.075" fill="black"/>
<path d="M582.63 302.778L589.102 316.746C586.369 321.081 584.793 326.201 584.585 331.383C584.48 334.077 584.727 336.78 584.651 339.473C584.642 339.661 584.613 339.866 584.566 340.062C583.702 336.066 583.047 332.775 582.8 330.625C582.089 324.622 582.089 315.078 582.316 302.76C582.421 302.769 582.525 302.769 582.63 302.778Z" fill="#F2A181"/>
<path d="M582.677 286.036L597.568 274.227C597.568 274.227 604.496 283.057 601.886 291.584C600.605 295.776 598.992 297.855 598.289 299.844C597.634 301.699 593.155 328.003 593.487 329.92C593.819 331.847 596.23 337.225 597.15 342.88C598.166 349.097 598.09 368.158 598.726 375.874H598.735C598.735 375.874 599.248 381.627 599.969 382.875C600.691 384.133 601.706 385.533 601.886 387.228C601.991 388.209 601.402 389.262 600.197 389.842C598.992 390.421 598.185 389.815 597.748 389.868C595.224 390.154 594.778 391.956 590.45 392.624C589.112 392.83 587.071 392.41 585.894 391.536C585.439 391.197 585.458 390.653 585.714 390.279C585.97 389.904 589.159 388.869 590.602 388.004C591.978 387.175 593.316 384.891 593.696 384.106C593.791 383.901 593.772 383.339 593.686 382.617C593.487 381.386 593.269 380.101 593.031 378.79C592.842 377.845 592.69 377.158 592.69 377.158L592.737 377.149C589.586 360.407 583.711 338.269 582.81 330.634C581.794 322.134 582.202 306.578 582.677 286.036Z" fill="black"/>
<path d="M585.562 391.831C585.249 391.322 585.164 390.555 585.458 390.368C585.866 390.109 587.318 389.208 588.153 388.843C588.988 388.477 590.327 388.156 589.852 388.397C589.387 388.637 590.251 389.529 591.029 389.476C593.743 389.324 595.746 387.621 597.293 387.264C599.523 386.738 600.463 384.267 600.558 383.865C600.985 384.115 601.962 386.113 602.162 386.738C602.342 387.308 602.665 388.343 602.494 388.932C602.38 389.342 602.114 390.163 602.247 391.019C602.247 391.019 601.81 391.34 600.643 391.563C599.903 391.706 598.916 391.581 598.916 391.581L598.726 390.261C598.726 390.261 598.118 390.243 597.35 390.386C596.581 390.537 595.319 391.224 595.243 391.313C594.93 391.661 594.683 392.294 594.275 392.491C593.193 393.008 592.092 393.249 590.716 393.329C587.802 393.499 586.103 392.705 585.562 391.831Z" fill="black"/>
<path d="M562.337 391.581C562.66 391.251 566.105 390.725 567.728 390.082C569.266 389.476 571.135 387.531 571.496 386.702C571.857 385.872 571.771 381.689 571.733 379.932C571.41 367.828 569.028 338.251 568.687 331.169C568.089 318.86 569.788 306.15 574.827 286.384L593.6 272.844C593.6 272.844 598.858 282.031 597.093 290.808C596.068 295.901 591.578 296.686 590.819 298.666C590.06 300.646 578.709 332.56 578.709 332.56C578.709 332.56 580.92 339.464 581.044 347.019C581.158 353.477 578.035 372.939 577.456 380.351C577.39 381.805 577.124 385.275 577.579 386.372C578.139 387.728 579.554 389.315 579.487 391.019C579.449 392.009 578.69 392.954 577.352 393.338C576.023 393.73 575.283 392.999 574.827 392.981C572.179 392.874 571.448 394.587 566.883 394.587C565.479 394.587 563.429 393.855 562.347 392.812C561.92 392.446 562.015 391.911 562.337 391.581Z" fill="black"/>
<path d="M561.949 393.097C561.702 392.544 561.731 391.777 562.063 391.634C562.518 391.438 564.151 390.769 565.071 390.537C565.992 390.305 567.416 390.198 566.894 390.359C566.372 390.528 567.131 391.536 567.947 391.608C570.775 391.866 573.091 390.502 574.743 390.377C577.125 390.198 577.998 387.897 578.159 387.514C578.558 387.826 579.735 389.949 579.839 390.6C579.944 391.188 580.114 392.259 579.849 392.821C579.668 393.204 579.27 393.98 579.279 394.845C579.279 394.845 578.776 395.095 577.542 395.14C576.764 395.166 575.758 394.899 575.758 394.899V393.57C575.758 393.57 575.132 393.454 574.316 393.49C573.49 393.516 572.484 393.909 571.99 394.266C571.601 394.542 571.193 395.006 570.737 395.113C569.418 395.425 568.469 395.514 567.027 395.381C564.009 395.077 562.376 394.034 561.949 393.097Z" fill="black"/>
<path d="M597.179 272.737C598.451 274.048 602.987 281.157 603.035 286.946C603.082 292.735 600.89 296.445 600.7 297.649C599.257 306.489 605.275 350.988 605.275 351.568C605.275 352.148 597.616 357.972 590.469 358.739C574.771 360.425 559.965 354.101 559.965 354.101C559.965 354.101 562.661 319.957 569.599 285.216C570.652 279.935 575.084 271.408 575.084 271.408" fill="url(#paint37_linear)"/>
<path d="M609.28 249.618C609.28 249.618 607.144 259.59 606.584 261.365C606.024 263.14 603.253 274.414 600.624 274.218C597.995 274.022 583.607 262.73 583.607 262.73L585.648 258.903L598.318 264.576C598.318 264.576 599.466 251.687 600.463 248.619" fill="black"/>
<path d="M605.502 243.82C605.502 243.82 605.967 252.151 604.354 256.361C602.769 256.334 601.383 255.995 601.383 255.995L605.502 243.82Z" fill="#B03D44"/>
<path d="M580.627 209.641C578.093 212.727 578.596 217.062 579.222 220.915C579.536 222.859 579.849 224.813 580.171 226.757C580.323 227.685 580.523 228.693 581.291 229.29C582.06 229.888 583.171 229.879 584.167 229.843C584.158 231.458 584.148 233.063 584.139 234.678C587.071 234.74 590.004 234.758 592.937 234.713C592.937 233.581 593.202 232.457 593.696 231.431C595.129 231.404 596.088 230.057 596.648 228.809C597.293 227.382 597.767 225.883 598.223 224.385C598.83 222.404 599.409 220.38 599.466 218.319C599.523 216.259 599.001 214.109 597.606 212.513C596.657 211.425 595.357 210.657 594.028 210.006C592.206 209.114 590.023 208.41 588.144 209.186" fill="white"/>
<path d="M583.18 216.714C582.952 217.053 583 217.508 582.791 217.855C582.43 218.444 581.946 218.649 581.291 218.935C580.238 219.399 580.485 220.835 580.513 221.486C579.716 220.986 579.592 219.639 579.403 218.944C579.184 218.177 579.052 217.383 578.805 216.616C578.577 215.866 578.169 215.171 578.093 214.386C577.837 211.674 579.64 208.499 581.823 206.974C583.408 205.868 585.837 205.912 587.631 207.036C588.39 207.509 588.96 208.222 589.292 209.016C589.434 209.355 589.539 209.757 589.358 210.078" fill="black"/>
<path d="M597.302 235.828C597.15 234.883 596.885 233.786 595.945 233.411C595.689 233.304 595.404 233.277 595.119 233.251C592.253 232.956 589.377 232.823 586.502 232.867C585.315 232.885 584.082 232.938 583.019 233.438C581.348 234.223 580.428 235.918 579.621 237.496" fill="url(#paint38_linear)"/>
<path d="M574.059 253.917C574.059 254.8 574.581 255.978 574.752 256.45C575.407 256.762 578.007 257.289 579.497 256.655C579.82 253.739 581.642 248.128 581.642 248.128C581.642 248.128 574.059 253.105 574.059 253.917Z" fill="#B03D44"/>
<path d="M577.391 251.883C577.391 251.883 568.792 271.399 565.071 271.399C562.357 271.399 555.704 253.382 555.704 253.382L559.908 251.509L564.597 259.055L569.342 244.98" fill="black"/>
<path d="M560.734 252.865C560.734 252.865 559.339 250.804 559.443 249.341C559.481 248.779 559.832 246.13 559.538 245.613C559.244 245.096 558.542 243.383 558.134 243.053C557.726 242.723 556.236 242.188 555.875 242.429C555.514 242.67 555.059 241.572 554.451 241.671C553.844 241.769 553.341 242.241 553.341 242.759C553.341 243.276 552.534 243.374 552.43 243.758C552.325 244.141 552.373 244.471 552.231 244.757C552.079 245.042 551.633 244.899 551.471 245.613C551.329 246.264 551.519 246.327 551.471 246.657C551.424 246.987 551.12 246.96 551.215 247.593C551.319 248.226 551.775 249.047 552.183 249.761C552.591 250.474 553.417 251.357 554.527 251.99C555.078 252.303 555.372 252.847 555.894 253.765" fill="black"/>
<path d="M558.428 237.782C558.532 237.63 558.827 237.371 559.168 237.594C559.51 237.817 559.405 238.21 559.33 238.37C559.254 238.531 556.786 243.776 556.786 243.776C556.786 243.776 556.577 243.999 556.188 243.669C555.761 243.321 555.894 243.142 555.894 243.142C555.894 243.142 558.324 237.933 558.428 237.782Z" fill="white"/>
<path d="M555.751 242.786C556.235 243.597 556.795 243.856 557.298 244.302C557.697 244.65 557.64 244.873 558.077 245.238C557.308 245.185 557.441 244.757 556.454 244.088C555.998 243.776 555.524 243.437 555.429 242.91C555.4 242.732 555.638 242.634 555.751 242.786Z" fill="black"/>
<path d="M574.04 255.442C571.269 254.961 569.124 253.159 566.922 251.045C568.147 247.879 569.883 240.056 572.911 237.077C576.033 234.009 581.31 234.383 584.139 234.473C587.062 234.348 589.472 234.678 592.975 234.829C595.3 234.927 597.625 235.177 599.912 235.65C600.178 235.703 600.434 235.757 600.681 235.819L600.691 235.793C600.691 235.793 604.895 236.212 607.021 237.746C612.45 241.653 608.245 255.826 608.245 255.826C608.245 255.826 608.511 256.584 604.867 256.388C604.25 256.352 603.652 256.299 603.082 256.227C601.184 260.41 596.41 269.018 597.805 270.864C598.166 271.346 599.077 272.256 599.182 272.853C599.58 275.047 594.313 275.814 592.054 275.993C588.618 276.26 584.67 276.082 581.225 275.93C578.615 275.814 572.911 274.958 572.503 271.926C572.427 271.328 572.74 270.855 573.053 270.418C573.452 269.865 574.373 269.196 574.705 268.59C575.502 267.118 576.195 260.937 575.92 259.358C575.72 258.109 574.8 257.289 574.04 255.442Z" fill="#A600A9"/>
<path d="M583.664 224.331C584.006 222.708 583.987 221.798 583.417 220.719C583.227 220.362 582.981 220.023 582.648 219.8C582.193 219.497 581.586 219.443 581.083 219.648C580.75 219.782 580.485 220.032 580.295 220.335C579.697 218.159 579.573 215.84 579.744 213.583C580.02 209.997 582.316 207.232 585.676 205.93C591.893 203.531 600.814 205.903 603.338 211.63C605.246 215.956 604.278 222.208 600.634 225.83C597.407 229.041 592.756 229.513 588.476 228.853C586.283 228.514 582.895 228.719 581.766 225.919C581.68 225.705 581.88 225.482 582.108 225.5C582.981 225.58 583.598 224.634 583.664 224.331Z" fill="black"/>
<path d="M595.774 226.864C597.568 226.391 599.495 227.337 600.69 228.675C602.067 230.227 602.664 232.635 601.374 234.25C600.89 234.856 600.206 235.284 599.504 235.65C597.369 236.765 594.844 237.425 592.471 236.872C590.099 236.328 588.02 234.33 588.049 232.037C588.077 229.959 589.691 228.229 591.314 226.828" fill="black"/>
<path d="M582.648 219.8C582.648 219.8 584.471 219.818 582.088 225.508C579.706 231.199 579.478 241.947 579.478 241.947C579.478 241.947 585.98 244.48 594.73 244.266C603.481 244.052 604.373 244.052 604.601 243.419C604.829 242.786 610.21 212.013 598.318 206.742" fill="black"/>
<path opacity="0.5" d="M527.725 445.606C556.355 445.606 579.564 442.4 579.564 438.444C579.564 434.488 556.355 431.282 527.725 431.282C499.095 431.282 475.886 434.488 475.886 438.444C475.886 442.4 499.095 445.606 527.725 445.606Z" fill="#000640"/>
<path d="M468.256 339.892H517.456L515.33 335.459H466.31L468.256 339.892Z" fill="black"/>
<path d="M561.579 438.64H555.752L483.052 265.486H489.43L561.579 438.64Z" fill="black"/>
<path d="M457.806 315.034H507.007L504.881 310.601H455.861L457.806 315.034Z" fill="black"/>
<path d="M447.262 289.827H496.462L494.337 285.385H445.316L447.262 289.827Z" fill="black"/>
<path d="M509.133 438.64H503.305L430.606 265.486H436.993L509.133 438.64Z" fill="black"/>
<path d="M499.329 415.173H548.539L546.413 410.74H497.393L499.329 415.173Z" fill="black"/>
<path d="M488.974 389.958H538.174L536.049 385.525H487.029L488.974 389.958Z" fill="black"/>
<path d="M478.515 365.277H527.725L525.599 360.844H476.579L478.515 365.277Z" fill="black"/>
<path d="M495.884 172.357L494.08 168.834C494.08 168.834 490.607 169.877 487.835 170.011C485.064 170.145 483.954 170.662 483.954 170.662L481.733 174.052C481.733 174.052 490.331 175.613 495.884 172.357Z" fill="url(#paint39_linear)"/>
<path d="M495.884 172.357C495.884 172.357 500.458 171.965 502.821 173.267C505.185 174.569 507.681 182.784 508.506 188.394C509.342 194.005 510.727 215.777 510.87 220.21C511.012 224.643 510.87 234.687 510.87 234.687C510.87 234.687 498.38 237.166 489.781 236.908C481.182 236.649 474.377 230.254 474.377 230.254C474.377 230.254 475.07 220.995 476.181 217.998C477.291 215.001 479.094 209.525 477.984 204.958C476.873 200.391 473.542 187.226 474.377 182.267C475.213 177.307 474.377 176.398 477.291 175.488C480.205 174.578 481.733 174.052 481.733 174.052C481.733 174.052 489.088 175.613 495.884 172.357Z" fill="url(#paint40_linear)"/>
<path d="M484.229 183.266C484.229 183.266 483.489 188.742 479.047 195.004C474.605 201.265 469.063 207.437 467.212 208.392C465.361 209.346 461.479 209.177 459.353 207.607C457.227 206.046 442.517 190.044 442.517 190.044C442.517 190.044 442.422 188.136 444.092 186.477C445.753 184.826 447.423 184.826 447.423 184.826L461.574 196.038C461.574 196.038 470.543 181.785 472.764 179.261C474.985 176.736 477.206 176.13 478.961 176.389C480.717 176.656 484.419 179.609 484.229 183.266Z" fill="url(#paint41_linear)"/>
<path d="M446.399 184.916C446.399 184.916 443.342 181.874 441.682 181C440.021 180.135 434.649 179.091 433.909 179.171C433.168 179.261 433.149 179.733 434.07 180.17C434.991 180.608 437.05 181.169 437.05 181.169C437.05 181.169 434.459 182.65 434.459 183.694C434.459 184.737 436.12 186.735 437.145 186.735C438.16 186.735 439.641 186.477 439.641 186.477L442.697 188.653C442.697 188.653 443.342 185.959 446.399 184.916Z" fill="white"/>
<path d="M503.372 173.659C503.229 173.517 516.621 184.416 520.294 189.375C523.967 194.335 527.089 201.568 526.605 203.522C526.121 205.475 522.372 209.132 519.876 211.086C517.38 213.039 510.784 217.213 510.784 217.213L510.234 204.824C510.234 204.824 514.742 200.908 514.324 200.391C513.907 199.874 509.332 195.566 509.332 195.566C509.332 195.566 508.706 187.092 507.254 182.4C505.801 177.7 504.691 174.961 503.372 173.659Z" fill="url(#paint42_linear)"/>
<path d="M475.051 230.833C476.978 232.421 482.777 236.685 489.771 236.899C498.37 237.157 510.86 234.678 510.86 234.678C510.86 234.678 509.332 244.195 508.089 247.977C506.836 251.759 506.01 256.584 505.868 258.145C505.725 259.706 508.222 285.92 508.639 293.35C509.057 300.78 507.994 324.863 507.994 324.863H500.221C500.221 324.863 497.402 295.83 494.906 279.793C492.41 263.755 491.157 255.148 491.157 255.148L489.354 258.02C489.354 258.02 488.519 286.188 487.826 298.702C487.133 311.216 485.652 324.997 485.652 324.997L477.462 325.389C477.462 325.389 474.226 277.714 473.808 264.023C473.428 251.107 474.89 232.867 475.051 230.833Z" fill="url(#paint43_linear)"/>
<path d="M507.538 324.952C507.538 324.952 508.744 331.294 508.744 332.168C508.744 333.033 508.373 335.994 508.373 335.994C508.373 335.994 502.726 336.173 498.845 336.084C494.963 335.994 490.426 335.129 490.426 335.129C490.426 335.129 489.686 332.783 490.702 331.481C491.717 330.179 495.694 329.92 496.899 328.618C498.104 327.316 500.23 324.881 500.23 324.881C500.23 324.881 506.428 325.3 507.538 324.952Z" fill="url(#paint44_linear)"/>
<path d="M485.064 324.952C485.064 324.952 486.269 331.294 486.269 332.168C486.269 333.033 485.899 335.994 485.899 335.994C485.899 335.994 480.262 336.173 476.37 336.084C472.489 335.994 467.952 335.129 467.952 335.129C467.952 335.129 467.212 332.783 468.227 331.481C469.243 330.179 473.22 329.92 474.425 328.618C475.63 327.316 477.756 324.881 477.756 324.881C477.756 324.881 483.954 325.3 485.064 324.952Z" fill="url(#paint45_linear)"/>
<path d="M494.033 168.397C494.033 168.397 495.105 155.312 493.938 151.878C492.552 147.793 489.771 144.921 485.425 144.751C481.078 144.573 473.865 144.921 471.919 147.186C469.974 149.443 470.989 152.752 471.179 153.795C471.369 154.839 473.21 155.972 473.21 155.972C473.21 155.972 475.981 155.276 476.816 155.883C477.652 156.489 478.942 159.183 478.942 159.183C478.942 159.183 479.882 156.605 481.068 157.096C484.03 158.309 483.099 161.966 482.644 162.742C482.055 163.741 482.644 163 482.644 163L489.212 169.69C489.221 169.699 491.907 169.967 494.033 168.397Z" fill="black"/>
<path d="M476.826 155.883C477.661 156.489 478.952 159.183 478.952 159.183C478.952 159.183 479.892 156.605 481.078 157.096C484.039 158.309 483.109 161.966 482.653 162.742C482.065 163.741 482.653 163 482.653 163L489.221 169.69L483.954 170.644L483.764 169.431C483.764 169.431 481.733 170.127 480.527 170.127C479.322 170.127 477.936 167.781 476.361 165.257C474.786 162.733 473.22 155.954 473.22 155.954C473.22 155.954 476 155.276 476.826 155.883Z" fill="white"/>
<path d="M165.632 316.559C165.632 316.559 180.172 316.559 185.212 315.774C190.251 314.989 190.251 314.989 190.251 314.989L208.882 312.786L207.221 318.37C207.221 318.37 200.596 320.582 194.807 322.035C189.008 323.489 177.761 326.344 176.015 326.754C174.269 327.155 164.844 329.037 164.844 329.037" fill="url(#paint46_linear)"/>
<path d="M130.298 340.561C130.298 340.561 125.448 344.281 123.91 347.643C122.382 351.006 122.126 355.805 122.382 357.482C122.639 359.158 123.274 360.844 123.274 360.479C123.274 360.122 121.234 386.274 121.234 386.274C121.234 386.274 112.55 393.231 109.228 398.993C105.906 404.755 98.5035 420.346 98.5035 420.346C98.5035 420.346 104.502 423.102 106.675 423.468C108.848 423.825 108.848 423.825 108.848 423.825C108.848 423.825 118.168 405.709 120.978 402.463C122.753 400.411 129.785 394.899 132.471 390.582C135.147 386.265 140.007 368.265 140.007 368.265C140.007 368.265 146.261 374.625 149.07 377.506C151.88 380.387 155.325 384.463 155.325 385.542C155.325 386.622 152.895 394.658 152.259 397.539C151.624 400.42 149.07 420.213 149.07 420.213C149.07 420.213 152.649 420.935 155.714 420.569C158.78 420.213 159.292 419.606 159.292 419.606C159.292 419.606 161.076 405.923 162.737 399.207C164.398 392.491 166.315 386.845 166.828 385.765C167.34 384.686 167.464 382.403 165.803 377.729C164.142 373.046 159.036 363.333 154.955 357.571C150.874 351.809 150.874 351.809 150.874 351.809C150.874 351.809 137.321 345.244 130.298 340.561Z" fill="black"/>
<path d="M139.703 369.398C140.956 362.878 141.734 357.482 141.734 357.482L136.742 376.694C135.432 383.732 129.614 394.123 129.614 394.123C129.614 394.123 129.614 394.15 129.624 394.194C130.763 392.972 131.769 391.75 132.481 390.609C134.749 386.925 138.593 373.376 139.703 369.398Z" fill="url(#paint47_linear)"/>
<path d="M149.071 420.239C149.071 420.239 146.983 423.281 146.897 423.682C146.812 424.083 146.385 428.285 146.385 428.285L153.531 429.783L154.044 428.481C154.044 428.481 161.361 431.924 162.728 432.004C164.094 432.084 170.814 432.004 171.754 431.763C172.693 431.522 173.965 429.926 172.693 429.444C171.412 428.962 167.075 428.802 166.05 428.249C165.025 427.687 159.833 423.209 159.321 421.934C158.808 420.649 158.637 419.936 158.637 419.936C158.637 419.936 155.923 421.354 149.071 420.239Z" fill="url(#paint48_linear)"/>
<path d="M98.7028 420.596C98.7028 420.596 96.4061 423.593 95.96 424.913C95.5139 426.233 94.0428 430.434 94.0428 430.434C94.0428 430.434 96.1498 431.995 97.6209 432.53C99.092 433.066 99.4052 433.19 99.4052 433.19L100.43 432.227C100.43 432.227 103.875 435.349 106.817 436.063C109.75 436.785 115.691 437.026 117.732 436.544C119.772 436.063 120.731 434.207 119.905 433.547C119.08 432.887 116.27 432.646 114.543 431.264C112.816 429.881 109.627 427.42 109.181 426.162C108.735 424.904 108.858 423.825 108.858 423.825C108.858 423.825 108.023 424.378 98.7028 420.596Z" fill="url(#paint49_linear)"/>
<path d="M172.817 431.014C171.782 431.175 170.216 431.228 167.919 431.353C163.411 431.594 162.044 430.309 156.938 428.633C152.886 427.295 148.397 425.662 146.726 425.047C146.574 426.412 146.385 428.276 146.385 428.276L153.531 429.774L154.044 428.472C154.044 428.472 161.361 431.915 162.728 431.995C164.095 432.075 170.814 431.995 171.754 431.754C172.114 431.665 172.522 431.371 172.817 431.014Z" fill="url(#paint50_linear)"/>
<path d="M117.96 435.831C116.346 436.312 108.763 436.392 105.365 434.867C102.594 433.627 97.0704 429.061 95.0963 427.402C94.5743 428.9 94.0428 430.434 94.0428 430.434C94.0428 430.434 96.1498 431.995 97.6209 432.53C99.092 433.066 99.4051 433.19 99.4051 433.19L100.43 432.227C100.43 432.227 103.875 435.349 106.817 436.062C109.75 436.785 115.691 437.026 117.732 436.544C119.07 436.232 119.943 435.322 120.152 434.546C119.488 435.162 118.7 435.616 117.96 435.831ZM130.298 340.561L131.579 338.403L151.918 350.159L150.855 351.836C150.855 351.844 134.73 344.004 130.298 340.561Z" fill="black"/>
<path d="M131.579 338.403C131.256 338.215 145.796 320.805 151.415 315.203C157.033 309.602 162.054 306.48 166.059 306.721C170.064 306.961 176.271 312.402 177.552 317.362C178.834 322.321 173.718 332.56 172.532 334.398C171.336 336.235 165.471 339.437 160.953 342.72C156.445 346.002 155.249 347.518 153.977 348.401C152.696 349.285 151.937 350.159 151.937 350.159C151.937 350.159 134.474 340.089 131.579 338.403Z" fill="url(#paint51_linear)"/>
<path d="M132.576 338.706C132.936 338.483 140.301 327.084 151.946 315.694C159.406 308.397 165.376 306.979 165.376 306.979C165.376 306.979 161.997 306.533 155.031 311.894C149.09 316.479 131.56 338.403 131.56 338.403L132.576 338.706Z" fill="white"/>
<path d="M175.835 313.607C175.835 313.607 183.579 308.326 184.775 307.292C185.971 306.248 191.419 305.775 194.218 307.051C197.028 308.335 200.349 315.533 200.264 317.772C200.179 320.011 198.394 321.768 198.394 321.768L195.67 321.126C195.67 321.126 193.544 323.364 192.776 323.766C192.007 324.167 190.906 324.167 190.906 324.167C190.906 324.167 189.122 327.61 188.524 327.61C187.926 327.61 186.056 326.415 186.056 326.415C186.056 326.415 180.352 328.252 180.096 327.771C179.84 327.289 176.945 323.454 176.945 323.454C176.945 323.454 179.327 318.486 175.835 313.607Z" fill="black"/>
<path d="M167.236 307.051C167.236 307.051 181.624 309.049 186.73 308.968C191.836 308.888 191.836 308.888 191.836 308.888L215.668 306.408L216.265 311.689C216.265 311.689 201.204 315.845 195.243 316.487C189.283 317.13 177.714 318.405 175.92 318.566C174.136 318.726 164.512 319.288 164.512 319.288" fill="url(#paint52_linear)"/>
<path d="M215.753 307.452C215.753 307.452 219.749 305.775 220.261 304.812C220.774 303.849 220.603 300.736 221.201 299.451C221.799 298.167 224.437 294.733 224.95 294.733C225.462 294.733 225.804 294.813 225.547 296.972C225.291 299.13 224.693 301.77 224.693 302.814C224.693 303.857 224.95 306.89 224.181 307.773C223.412 308.656 221.969 308.968 220.944 309.45C219.919 309.932 216.095 310.654 216.095 310.654L215.753 307.452Z" fill="white"/>
<path d="M185.639 96.9604H106.362V102.696H185.639V96.9604Z" fill="#005CB4"/>
<path d="M223.754 109.144H144.477V114.88H223.754V109.144Z" fill="#00759F"/>
<path d="M193.573 119.884H52.2454V125.619H193.573V119.884Z" fill="#4529AC"/>
<path d="M406.243 125.619H264.915V131.354H406.243V125.619Z" fill="#3129AC"/>
<path d="M336.115 113.435H285.805V119.17H336.115V113.435Z" fill="#4529AC"/>
<path d="M435.968 114.157H381.538V119.892H435.968V114.157Z" fill="#0075B4"/>
<path opacity="0.3" d="M595.442 116.307H541.012V122.042H595.442V116.307Z" fill="white"/>
<path opacity="0.1" d="M540.481 96.9604H486.051V102.696H540.481V96.9604Z" fill="white"/>
<path d="M320.873 58.2764H268.275V64.0117H320.873V58.2764Z" fill="#00759F"/>
<path d="M355.932 74.0372H294.194V79.7725H355.932V74.0372Z" fill="#313BAC"/>
<path d="M306.941 427.241C356.914 427.241 397.426 389.168 397.426 342.202C397.426 295.237 356.914 257.164 306.941 257.164C256.967 257.164 216.455 295.237 216.455 342.202C216.455 389.168 256.967 427.241 306.941 427.241Z" fill="url(#paint53_linear)"/>
<path d="M306.941 257.173V342.211L385.059 299.282C369.352 274.084 340.253 257.173 306.941 257.173Z" fill="url(#paint54_linear)"/>
<path opacity="0.3" d="M281.477 55.1903C278.705 55.1903 276.114 55.9039 273.894 57.1437C273.362 49.8832 266.937 44.1479 259.078 44.1479C257.38 44.1479 255.757 44.4334 254.238 44.9239C252.046 38.27 245.45 33.4356 237.648 33.4356C237.06 33.4356 236.481 33.4713 235.911 33.5248C228.623 33.9529 222.558 38.5911 220.451 44.8972C218.923 44.3977 217.29 44.1123 215.582 44.1123C207.724 44.1123 201.298 49.8475 200.767 57.108C198.546 55.8682 195.955 55.1546 193.184 55.1546C184.974 55.1546 178.321 61.4072 178.321 69.1137C178.321 76.8201 184.974 83.0727 193.184 83.0727C193.734 83.0727 194.266 83.0459 194.807 82.9835H217.623C218.287 83.0549 218.961 83.1084 219.654 83.1084C220.252 83.1084 220.84 83.0816 221.428 83.0281H254.01C254.343 83.0459 254.675 83.0727 255.007 83.0727C255.349 83.0727 255.671 83.0459 256.003 83.0281H279.854C280.385 83.0816 280.926 83.1084 281.477 83.1084C289.686 83.1084 296.33 76.8558 296.33 69.1493C296.339 61.4429 289.686 55.1903 281.477 55.1903Z" fill="url(#paint55_linear)"/>
<defs>
<linearGradient id="paint0_linear" x1="380.149" y1="416.44" x2="379.685" y2="412.607" gradientUnits="userSpaceOnUse">
<stop stop-color="#7700BB"/>
<stop offset="1" stop-color="#00008B"/>
</linearGradient>
<linearGradient id="paint1_linear" x1="15.129" y1="187.184" x2="733.22" y2="187.184" gradientUnits="userSpaceOnUse">
<stop stop-color="#7700BB"/>
<stop offset="1"/>
</linearGradient>
<linearGradient id="paint2_linear" x1="147.396" y1="88.883" x2="146.117" y2="56.3475" gradientUnits="userSpaceOnUse">
<stop stop-color="#88CFDA"/>
<stop offset="0.0506" stop-color="#93D1D5"/>
<stop offset="0.2502" stop-color="#BAD7C2"/>
<stop offset="0.4481" stop-color="#D8DBB3"/>
<stop offset="0.6414" stop-color="#EEDEA8"/>
<stop offset="0.8279" stop-color="#FBE0A2"/>
<stop offset="1" stop-color="#FFE1A0"/>
</linearGradient>
<linearGradient id="paint3_linear" x1="88.6523" y1="171.373" x2="88.6523" y2="238.236" gradientUnits="userSpaceOnUse">
<stop stop-color="#7633FF"/>
<stop offset="0.1585" stop-color="#7137FF"/>
<stop offset="0.3535" stop-color="#6243FF"/>
<stop offset="0.5676" stop-color="#4957FF"/>
<stop offset="0.7937" stop-color="#2672FF"/>
<stop offset="1" stop-color="#0090FF"/>
</linearGradient>
<linearGradient id="paint4_linear" x1="103.768" y1="171.373" x2="103.768" y2="238.237" gradientUnits="userSpaceOnUse">
<stop stop-color="#7633FF"/>
<stop offset="0.1585" stop-color="#7137FF"/>
<stop offset="0.3535" stop-color="#6243FF"/>
<stop offset="0.5676" stop-color="#4957FF"/>
<stop offset="0.7937" stop-color="#2672FF"/>
<stop offset="1" stop-color="#0090FF"/>
</linearGradient>
<linearGradient id="paint5_linear" x1="118.885" y1="171.373" x2="118.885" y2="238.237" gradientUnits="userSpaceOnUse">
<stop stop-color="#7633FF"/>
<stop offset="0.1585" stop-color="#7137FF"/>
<stop offset="0.3535" stop-color="#6243FF"/>
<stop offset="0.5676" stop-color="#4957FF"/>
<stop offset="0.7937" stop-color="#2672FF"/>
<stop offset="1" stop-color="#0090FF"/>
</linearGradient>
<linearGradient id="paint6_linear" x1="134.001" y1="171.373" x2="134.001" y2="238.237" gradientUnits="userSpaceOnUse">
<stop stop-color="#7633FF"/>
<stop offset="0.1585" stop-color="#7137FF"/>
<stop offset="0.3535" stop-color="#6243FF"/>
<stop offset="0.5676" stop-color="#4957FF"/>
<stop offset="0.7937" stop-color="#2672FF"/>
<stop offset="1" stop-color="#0090FF"/>
</linearGradient>
<linearGradient id="paint7_linear" x1="149.116" y1="171.373" x2="149.116" y2="238.237" gradientUnits="userSpaceOnUse">
<stop stop-color="#7633FF"/>
<stop offset="0.1585" stop-color="#7137FF"/>
<stop offset="0.3535" stop-color="#6243FF"/>
<stop offset="0.5676" stop-color="#4957FF"/>
<stop offset="0.7937" stop-color="#2672FF"/>
<stop offset="1" stop-color="#0090FF"/>
</linearGradient>
<linearGradient id="paint8_linear" x1="164.233" y1="171.373" x2="164.233" y2="238.237" gradientUnits="userSpaceOnUse">
<stop stop-color="#7633FF"/>
<stop offset="0.1585" stop-color="#7137FF"/>
<stop offset="0.3535" stop-color="#6243FF"/>
<stop offset="0.5676" stop-color="#4957FF"/>
<stop offset="0.7937" stop-color="#2672FF"/>
<stop offset="1" stop-color="#0090FF"/>
</linearGradient>
<linearGradient id="paint9_linear" x1="179.349" y1="171.373" x2="179.349" y2="238.237" gradientUnits="userSpaceOnUse">
<stop stop-color="#7633FF"/>
<stop offset="0.1585" stop-color="#7137FF"/>
<stop offset="0.3535" stop-color="#6243FF"/>
<stop offset="0.5676" stop-color="#4957FF"/>
<stop offset="0.7937" stop-color="#2672FF"/>
<stop offset="1" stop-color="#0090FF"/>
</linearGradient>
<linearGradient id="paint10_linear" x1="194.465" y1="171.373" x2="194.465" y2="238.237" gradientUnits="userSpaceOnUse">
<stop stop-color="#7633FF"/>
<stop offset="0.1585" stop-color="#7137FF"/>
<stop offset="0.3535" stop-color="#6243FF"/>
<stop offset="0.5676" stop-color="#4957FF"/>
<stop offset="0.7937" stop-color="#2672FF"/>
<stop offset="1" stop-color="#0090FF"/>
</linearGradient>
<linearGradient id="paint11_linear" x1="209.581" y1="171.373" x2="209.581" y2="238.237" gradientUnits="userSpaceOnUse">
<stop stop-color="#7633FF"/>
<stop offset="0.1585" stop-color="#7137FF"/>
<stop offset="0.3535" stop-color="#6243FF"/>
<stop offset="0.5676" stop-color="#4957FF"/>
<stop offset="0.7937" stop-color="#2672FF"/>
<stop offset="1" stop-color="#0090FF"/>
</linearGradient>
<linearGradient id="paint12_linear" x1="224.698" y1="171.373" x2="224.698" y2="238.237" gradientUnits="userSpaceOnUse">
<stop stop-color="#7633FF"/>
<stop offset="0.1585" stop-color="#7137FF"/>
<stop offset="0.3535" stop-color="#6243FF"/>
<stop offset="0.5676" stop-color="#4957FF"/>
<stop offset="0.7937" stop-color="#2672FF"/>
<stop offset="1" stop-color="#0090FF"/>
</linearGradient>
<linearGradient id="paint13_linear" x1="239.813" y1="171.373" x2="239.813" y2="238.236" gradientUnits="userSpaceOnUse">
<stop stop-color="#7633FF"/>
<stop offset="0.1585" stop-color="#7137FF"/>
<stop offset="0.3535" stop-color="#6243FF"/>
<stop offset="0.5676" stop-color="#4957FF"/>
<stop offset="0.7937" stop-color="#2672FF"/>
<stop offset="1" stop-color="#0090FF"/>
</linearGradient>
<linearGradient id="paint14_linear" x1="448.35" y1="373.965" x2="448.35" y2="141.852" gradientUnits="userSpaceOnUse">
<stop stop-color="#A1BAFF"/>
<stop offset="0.4332" stop-color="white"/>
</linearGradient>
<linearGradient id="paint15_linear" x1="454.067" y1="282.752" x2="454.067" y2="146.428" gradientUnits="userSpaceOnUse">
<stop stop-color="#88CFDA"/>
<stop offset="0.0506" stop-color="#93D1D5"/>
<stop offset="0.2502" stop-color="#BAD7C2"/>
<stop offset="0.4481" stop-color="#D8DBB3"/>
<stop offset="0.6414" stop-color="#EEDEA8"/>
<stop offset="0.8279" stop-color="#FBE0A2"/>
<stop offset="1" stop-color="#FFE1A0"/>
</linearGradient>
<linearGradient id="paint16_linear" x1="375.808" y1="428.764" x2="375.808" y2="247.282" gradientUnits="userSpaceOnUse">
<stop stop-color="#88CFDA"/>
<stop offset="0.1838" stop-color="#98D1D2"/>
<stop offset="0.5428" stop-color="#C2D8BE"/>
<stop offset="1" stop-color="#FFE1A0"/>
</linearGradient>
<linearGradient id="paint17_linear" x1="410.659" y1="286.167" x2="410.659" y2="210.341" gradientUnits="userSpaceOnUse">
<stop stop-color="#7633FF"/>
<stop offset="0.1585" stop-color="#7137FF"/>
<stop offset="0.3535" stop-color="#6243FF"/>
<stop offset="0.5676" stop-color="#4957FF"/>
<stop offset="0.7937" stop-color="#2672FF"/>
<stop offset="1" stop-color="#0090FF"/>
</linearGradient>
<linearGradient id="paint18_linear" x1="275.31" y1="164.428" x2="282.934" y2="164.428" gradientUnits="userSpaceOnUse">
<stop stop-color="#7633FF"/>
<stop offset="0.1585" stop-color="#7137FF"/>
<stop offset="0.3535" stop-color="#6243FF"/>
<stop offset="0.5676" stop-color="#4957FF"/>
<stop offset="0.7937" stop-color="#2672FF"/>
<stop offset="1" stop-color="#0090FF"/>
</linearGradient>
<linearGradient id="paint19_linear" x1="275.31" y1="188.712" x2="282.934" y2="188.712" gradientUnits="userSpaceOnUse">
<stop stop-color="#7633FF"/>
<stop offset="0.1585" stop-color="#7137FF"/>
<stop offset="0.3535" stop-color="#6243FF"/>
<stop offset="0.5676" stop-color="#4957FF"/>
<stop offset="0.7937" stop-color="#2672FF"/>
<stop offset="1" stop-color="#0090FF"/>
</linearGradient>
<linearGradient id="paint20_linear" x1="275.31" y1="215.385" x2="282.934" y2="215.385" gradientUnits="userSpaceOnUse">
<stop stop-color="#7633FF"/>
<stop offset="0.1585" stop-color="#7137FF"/>
<stop offset="0.3535" stop-color="#6243FF"/>
<stop offset="0.5676" stop-color="#4957FF"/>
<stop offset="0.7937" stop-color="#2672FF"/>
<stop offset="1" stop-color="#0090FF"/>
</linearGradient>
<linearGradient id="paint21_linear" x1="471.216" y1="327.846" x2="615.625" y2="327.846" gradientUnits="userSpaceOnUse">
<stop stop-color="#270036"/>
<stop offset="0.5936" stop-color="#4F008B"/>
<stop offset="1" stop-color="#4C24B1"/>
</linearGradient>
<linearGradient id="paint22_linear" x1="334.822" y1="278.963" x2="334.822" y2="199.434" gradientUnits="userSpaceOnUse">
<stop stop-color="#7633FF"/>
<stop offset="0.1585" stop-color="#7137FF"/>
<stop offset="0.3535" stop-color="#6243FF"/>
<stop offset="0.5676" stop-color="#4957FF"/>
<stop offset="0.7937" stop-color="#2672FF"/>
<stop offset="1" stop-color="#0090FF"/>
</linearGradient>
<linearGradient id="paint23_linear" x1="353.423" y1="281.113" x2="353.423" y2="241.895" gradientUnits="userSpaceOnUse">
<stop stop-color="#7633FF"/>
<stop offset="0.1585" stop-color="#7137FF"/>
<stop offset="0.3535" stop-color="#6243FF"/>
<stop offset="0.5676" stop-color="#4957FF"/>
<stop offset="0.7937" stop-color="#2672FF"/>
<stop offset="1" stop-color="#0090FF"/>
</linearGradient>
<linearGradient id="paint24_linear" x1="372.287" y1="279.68" x2="372.287" y2="252.373" gradientUnits="userSpaceOnUse">
<stop stop-color="#311341"/>
<stop offset="0.2299" stop-color="#3113C2"/>
<stop offset="0.3479" stop-color="#2F18C5"/>
<stop offset="0.4931" stop-color="#2927CC"/>
<stop offset="0.6524" stop-color="#1F40D8"/>
<stop offset="0.8219" stop-color="#1263E9"/>
<stop offset="0.9978" stop-color="#008FFF"/>
<stop offset="1" stop-color="#0090FF"/>
</linearGradient>
<linearGradient id="paint25_linear" x1="419.242" y1="360.277" x2="419.242" y2="313.473" gradientUnits="userSpaceOnUse">
<stop stop-color="#7633FF"/>
<stop offset="0.1585" stop-color="#7137FF"/>
<stop offset="0.3535" stop-color="#6243FF"/>
<stop offset="0.5676" stop-color="#4957FF"/>
<stop offset="0.7937" stop-color="#2672FF"/>
<stop offset="1" stop-color="#0090FF"/>
</linearGradient>
<linearGradient id="paint26_linear" x1="427.823" y1="359.959" x2="427.823" y2="312.147" gradientUnits="userSpaceOnUse">
<stop stop-color="#311341"/>
<stop offset="0.2299" stop-color="#3113C2"/>
<stop offset="0.3479" stop-color="#2F18C5"/>
<stop offset="0.4931" stop-color="#2927CC"/>
<stop offset="0.6524" stop-color="#1F40D8"/>
<stop offset="0.8219" stop-color="#1263E9"/>
<stop offset="0.9978" stop-color="#008FFF"/>
<stop offset="1" stop-color="#0090FF"/>
</linearGradient>
<linearGradient id="paint27_linear" x1="97.117" y1="244.614" x2="125.084" y2="244.614" gradientUnits="userSpaceOnUse">
<stop stop-color="#7633FF"/>
<stop offset="0.1585" stop-color="#7137FF"/>
<stop offset="0.3535" stop-color="#6243FF"/>
<stop offset="0.5676" stop-color="#4957FF"/>
<stop offset="0.7937" stop-color="#2672FF"/>
<stop offset="1" stop-color="#0090FF"/>
</linearGradient>
<linearGradient id="paint28_linear" x1="97.6624" y1="248.956" x2="86.0282" y2="256.816" gradientUnits="userSpaceOnUse">
<stop stop-color="#A1BAFF"/>
<stop offset="0.4332" stop-color="white"/>
</linearGradient>
<linearGradient id="paint29_linear" x1="78.0562" y1="384.04" x2="74.5754" y2="295.532" gradientUnits="userSpaceOnUse">
<stop stop-color="#A1BAFF"/>
<stop offset="0.4332" stop-color="white"/>
<stop offset="0.5794" stop-color="#FBFCFF"/>
<stop offset="0.7123" stop-color="#F0F4FF"/>
<stop offset="0.84" stop-color="#DEE7FF"/>
<stop offset="0.9637" stop-color="#C4D4FF"/>
<stop offset="1" stop-color="#BBCDFF"/>
</linearGradient>
<linearGradient id="paint30_linear" x1="91.1172" y1="383.538" x2="87.6376" y2="295.023" gradientUnits="userSpaceOnUse">
<stop stop-color="#A1BAFF"/>
<stop offset="0.4332" stop-color="white"/>
<stop offset="0.5794" stop-color="#FBFCFF"/>
<stop offset="0.7123" stop-color="#F0F4FF"/>
<stop offset="0.84" stop-color="#DEE7FF"/>
<stop offset="0.9637" stop-color="#C4D4FF"/>
<stop offset="1" stop-color="#BBCDFF"/>
</linearGradient>
<linearGradient id="paint31_linear" x1="83.5941" y1="270.249" x2="92.8133" y2="319.296" gradientUnits="userSpaceOnUse">
<stop stop-color="#311341"/>
<stop offset="0.6346" stop-color="#3113C2"/>
<stop offset="0.6906" stop-color="#2F18C5"/>
<stop offset="0.7595" stop-color="#2927CC"/>
<stop offset="0.8351" stop-color="#1F40D8"/>
<stop offset="0.9155" stop-color="#1263E9"/>
<stop offset="0.999" stop-color="#008FFF"/>
<stop offset="1" stop-color="#0090FF"/>
</linearGradient>
<linearGradient id="paint32_linear" x1="65.5689" y1="255.772" x2="79.8639" y2="255.772" gradientUnits="userSpaceOnUse">
<stop stop-color="#A1BAFF"/>
<stop offset="0.4332" stop-color="white"/>
</linearGradient>
<linearGradient id="paint33_linear" x1="72.8683" y1="228.004" x2="91.1004" y2="228.004" gradientUnits="userSpaceOnUse">
<stop stop-color="#88CFDA"/>
<stop offset="0.0506" stop-color="#93D1D5"/>
<stop offset="0.2502" stop-color="#BAD7C2"/>
<stop offset="0.4481" stop-color="#D8DBB3"/>
<stop offset="0.6414" stop-color="#EEDEA8"/>
<stop offset="0.8279" stop-color="#FBE0A2"/>
<stop offset="1" stop-color="#FFE1A0"/>
</linearGradient>
<linearGradient id="paint34_linear" x1="59.9761" y1="248.717" x2="104.185" y2="248.717" gradientUnits="userSpaceOnUse">
<stop stop-color="#88CFDA"/>
<stop offset="0.0506" stop-color="#93D1D5"/>
<stop offset="0.2502" stop-color="#BAD7C2"/>
<stop offset="0.4481" stop-color="#D8DBB3"/>
<stop offset="0.6414" stop-color="#EEDEA8"/>
<stop offset="0.8279" stop-color="#FBE0A2"/>
<stop offset="1" stop-color="#FFE1A0"/>
</linearGradient>
<linearGradient id="paint35_linear" x1="80.3527" y1="289.612" x2="95.0452" y2="319.677" gradientUnits="userSpaceOnUse">
<stop stop-color="#311341"/>
<stop offset="0.6346" stop-color="#3113C2"/>
<stop offset="0.6906" stop-color="#2F18C5"/>
<stop offset="0.7595" stop-color="#2927CC"/>
<stop offset="0.8351" stop-color="#1F40D8"/>
<stop offset="0.9155" stop-color="#1263E9"/>
<stop offset="0.999" stop-color="#008FFF"/>
<stop offset="1" stop-color="#0090FF"/>
</linearGradient>
<linearGradient id="paint36_linear" x1="573.78" y1="251.291" x2="546.654" y2="251.291" gradientUnits="userSpaceOnUse">
<stop stop-color="#7633FF"/>
<stop offset="0.1585" stop-color="#7137FF"/>
<stop offset="0.3535" stop-color="#6243FF"/>
<stop offset="0.5676" stop-color="#4957FF"/>
<stop offset="0.7937" stop-color="#2672FF"/>
<stop offset="1" stop-color="#0090FF"/>
</linearGradient>
<linearGradient id="paint37_linear" x1="585.636" y1="281.014" x2="570.164" y2="363.332" gradientUnits="userSpaceOnUse">
<stop stop-color="#3822D1"/>
<stop offset="0.1652" stop-color="#3527D3"/>
<stop offset="0.3684" stop-color="#2E36DA"/>
<stop offset="0.5916" stop-color="#214FE4"/>
<stop offset="0.8272" stop-color="#0F72F2"/>
<stop offset="1" stop-color="#0090FF"/>
</linearGradient>
<linearGradient id="paint38_linear" x1="597.3" y1="235.18" x2="579.617" y2="235.18" gradientUnits="userSpaceOnUse">
<stop stop-color="#88CFDA"/>
<stop offset="0.0506" stop-color="#93D1D5"/>
<stop offset="0.2502" stop-color="#BAD7C2"/>
<stop offset="0.4481" stop-color="#D8DBB3"/>
<stop offset="0.6414" stop-color="#EEDEA8"/>
<stop offset="0.8279" stop-color="#FBE0A2"/>
<stop offset="1" stop-color="#FFE1A0"/>
</linearGradient>
<linearGradient id="paint39_linear" x1="481.732" y1="171.629" x2="495.883" y2="171.629" gradientUnits="userSpaceOnUse">
<stop stop-color="#7633FF"/>
<stop offset="0.1585" stop-color="#7137FF"/>
<stop offset="0.3535" stop-color="#6243FF"/>
<stop offset="0.5676" stop-color="#4957FF"/>
<stop offset="0.7937" stop-color="#2672FF"/>
<stop offset="1" stop-color="#0090FF"/>
</linearGradient>
<linearGradient id="paint40_linear" x1="490.82" y1="173.584" x2="498.236" y2="232.769" gradientUnits="userSpaceOnUse">
<stop stop-color="#7633FF"/>
<stop offset="0.1585" stop-color="#7137FF"/>
<stop offset="0.3535" stop-color="#6243FF"/>
<stop offset="0.5676" stop-color="#4957FF"/>
<stop offset="0.7937" stop-color="#2672FF"/>
<stop offset="1" stop-color="#0090FF"/>
</linearGradient>
<linearGradient id="paint41_linear" x1="429.764" y1="196.473" x2="489.501" y2="187.52" gradientUnits="userSpaceOnUse">
<stop stop-color="#5E60FF"/>
<stop offset="0.1814" stop-color="#5963FF"/>
<stop offset="0.4044" stop-color="#4A6AFF"/>
<stop offset="0.6491" stop-color="#3177FF"/>
<stop offset="0.9079" stop-color="#0E89FF"/>
<stop offset="1" stop-color="#0090FF"/>
</linearGradient>
<linearGradient id="paint42_linear" x1="511.7" y1="192.334" x2="527.348" y2="202.893" gradientUnits="userSpaceOnUse">
<stop stop-color="#591DDB"/>
<stop offset="0.1609" stop-color="#5522DD"/>
<stop offset="0.3589" stop-color="#4931E1"/>
<stop offset="0.5762" stop-color="#364AE9"/>
<stop offset="0.8058" stop-color="#1B6DF4"/>
<stop offset="1" stop-color="#0090FF"/>
</linearGradient>
<linearGradient id="paint43_linear" x1="492.312" y1="232.147" x2="492.312" y2="329.442" gradientUnits="userSpaceOnUse">
<stop stop-color="#311341"/>
<stop offset="0.2299" stop-color="#3113C2"/>
<stop offset="0.3479" stop-color="#2F18C5"/>
<stop offset="0.4931" stop-color="#2927CC"/>
<stop offset="0.6524" stop-color="#1F40D8"/>
<stop offset="0.8219" stop-color="#1263E9"/>
<stop offset="0.9978" stop-color="#008FFF"/>
<stop offset="1" stop-color="#0090FF"/>
</linearGradient>
<linearGradient id="paint44_linear" x1="499.452" y1="322.695" x2="499.452" y2="340.698" gradientUnits="userSpaceOnUse">
<stop stop-color="#270036"/>
<stop offset="0.5936" stop-color="#4F008B"/>
<stop offset="1" stop-color="#4C24B1"/>
</linearGradient>
<linearGradient id="paint45_linear" x1="476.977" y1="322.695" x2="476.977" y2="340.698" gradientUnits="userSpaceOnUse">
<stop stop-color="#270036"/>
<stop offset="0.5936" stop-color="#4F008B"/>
<stop offset="1" stop-color="#4C24B1"/>
</linearGradient>
<linearGradient id="paint46_linear" x1="164.848" y1="320.914" x2="243.661" y2="320.914" gradientUnits="userSpaceOnUse">
<stop stop-color="#311341"/>
<stop offset="0.2299" stop-color="#3113C2"/>
<stop offset="0.3479" stop-color="#2F18C5"/>
<stop offset="0.4931" stop-color="#2927CC"/>
<stop offset="0.6524" stop-color="#1F40D8"/>
<stop offset="0.8219" stop-color="#1263E9"/>
<stop offset="0.9978" stop-color="#008FFF"/>
<stop offset="1" stop-color="#0090FF"/>
</linearGradient>
<linearGradient id="paint47_linear" x1="129.607" y1="375.829" x2="141.731" y2="375.829" gradientUnits="userSpaceOnUse">
<stop stop-color="#7633FF"/>
<stop offset="0.1106" stop-color="#6640FF"/>
<stop offset="0.5243" stop-color="#2F6BFF"/>
<stop offset="0.8331" stop-color="#0D86FF"/>
<stop offset="1" stop-color="#0090FF"/>
</linearGradient>
<linearGradient id="paint48_linear" x1="146.388" y1="425.971" x2="173.226" y2="425.971" gradientUnits="userSpaceOnUse">
<stop stop-color="#27004F"/>
<stop offset="1" stop-color="#004C81"/>
</linearGradient>
<linearGradient id="paint49_linear" x1="94.0415" y1="428.7" x2="120.194" y2="428.7" gradientUnits="userSpaceOnUse">
<stop stop-color="#27004F"/>
<stop offset="1" stop-color="#004C81"/>
</linearGradient>
<linearGradient id="paint50_linear" x1="146.388" y1="428.537" x2="172.817" y2="428.537" gradientUnits="userSpaceOnUse">
<stop stop-color="#27004F"/>
<stop offset="1" stop-color="#004C81"/>
</linearGradient>
<linearGradient id="paint51_linear" x1="131.572" y1="328.439" x2="177.743" y2="328.439" gradientUnits="userSpaceOnUse">
<stop stop-color="#A1BAFF"/>
<stop offset="0.4332" stop-color="white"/>
</linearGradient>
<linearGradient id="paint52_linear" x1="221.636" y1="312.497" x2="154.911" y2="319.997" gradientUnits="userSpaceOnUse">
<stop stop-color="#A1BAFF"/>
<stop offset="0.4332" stop-color="white"/>
</linearGradient>
<linearGradient id="paint53_linear" x1="216.461" y1="342.202" x2="397.422" y2="342.202" gradientUnits="userSpaceOnUse">
<stop stop-color="#270036"/>
<stop offset="0.5936" stop-color="#4F008B"/>
<stop offset="1" stop-color="#4C24B1"/>
</linearGradient>
<linearGradient id="paint54_linear" x1="296.26" y1="340.94" x2="358.262" y2="274.966" gradientUnits="userSpaceOnUse">
<stop stop-color="#7633FF"/>
<stop offset="0.1585" stop-color="#7137FF"/>
<stop offset="0.3535" stop-color="#6243FF"/>
<stop offset="0.5676" stop-color="#4957FF"/>
<stop offset="0.7937" stop-color="#2672FF"/>
<stop offset="1" stop-color="#0090FF"/>
</linearGradient>
<linearGradient id="paint55_linear" x1="178.333" y1="58.2789" x2="296.336" y2="58.2789" gradientUnits="userSpaceOnUse">
<stop stop-color="#A1BAFF"/>
<stop offset="0.0888" stop-color="#ACC2FF"/>
<stop offset="0.4988" stop-color="#D9E3FF"/>
<stop offset="0.816" stop-color="#F5F7FF"/>
<stop offset="1" stop-color="white"/>
</linearGradient>
</defs>
</svg>
